<?xml version="1.0" encoding="utf-8"?>
<!-- Generator: Adobe Illustrator 15.1.0, SVG Export Plug-In . SVG Version: 6.00 Build 0)  -->
<!DOCTYPE svg PUBLIC "-//W3C//DTD SVG 1.1//EN" "http://www.w3.org/Graphics/SVG/1.1/DTD/svg11.dtd">
<svg version="1.1" id="Layer_1" xmlns="http://www.w3.org/2000/svg" xmlns:xlink="http://www.w3.org/1999/xlink" x="0px" y="0px"
	 width="72px" height="70.001px" viewBox="0 0 72 70.001" enable-background="new 0 0 72 70.001" xml:space="preserve">
<g>
	<circle fill="#ADC259" cx="35.814" cy="35.163" r="32.84"/>
	<path fill="#FFFFFF" d="M58.815,46.486c0.093,0.71-0.124,1.327-0.648,1.852l-6.152,6.104c-0.277,0.31-0.64,0.572-1.087,0.787
		c-0.447,0.216-0.886,0.355-1.318,0.417c-0.03,0-0.123,0.008-0.277,0.023c-0.154,0.015-0.354,0.022-0.602,0.022
		c-0.586,0-1.534-0.101-2.846-0.3c-1.311-0.201-2.914-0.695-4.811-1.481s-4.048-1.967-6.453-3.539
		c-2.406-1.572-4.966-3.73-7.68-6.477c-2.159-2.129-3.948-4.163-5.367-6.106c-1.418-1.942-2.56-3.738-3.423-5.39
		c-0.863-1.649-1.512-3.146-1.943-4.486c-0.432-1.343-0.725-2.499-0.878-3.471c-0.154-0.972-0.217-1.734-0.186-2.29
		c0.031-0.555,0.045-0.863,0.045-0.926c0.062-0.432,0.201-0.871,0.418-1.318c0.215-0.446,0.478-0.81,0.786-1.087l6.152-6.152
		c0.432-0.432,0.926-0.647,1.48-0.647c0.401,0,0.756,0.115,1.063,0.347c0.31,0.231,0.57,0.517,0.787,0.856l4.95,9.39
		c0.277,0.494,0.354,1.033,0.231,1.62c-0.123,0.585-0.387,1.079-0.787,1.48l-2.266,2.267c-0.062,0.062-0.117,0.162-0.163,0.301
		s-0.069,0.255-0.069,0.348c0.123,0.646,0.4,1.388,0.832,2.221c0.371,0.739,0.941,1.642,1.713,2.706
		c0.771,1.063,1.865,2.29,3.284,3.678c1.388,1.418,2.621,2.521,3.701,3.308c1.079,0.786,1.981,1.364,2.706,1.735
		c0.725,0.369,1.279,0.593,1.666,0.67l0.577,0.115c0.062,0,0.163-0.022,0.302-0.069c0.138-0.046,0.239-0.1,0.301-0.162l2.637-2.683
		c0.556-0.493,1.202-0.74,1.942-0.74c0.524,0,0.941,0.093,1.249,0.278h0.047l8.929,5.273C58.307,45.36,58.691,45.869,58.815,46.486z
		"/>
</g>
</svg>
