<?xml version="1.0" encoding="utf-8"?>
<!-- Generator: Adobe Illustrator 15.1.0, SVG Export Plug-In . SVG Version: 6.00 Build 0)  -->
<!DOCTYPE svg PUBLIC "-//W3C//DTD SVG 1.1//EN" "http://www.w3.org/Graphics/SVG/1.1/DTD/svg11.dtd">
<svg version="1.1" id="Layer_1" xmlns="http://www.w3.org/2000/svg" xmlns:xlink="http://www.w3.org/1999/xlink" x="0px" y="0px"
	 width="121px" height="121px" viewBox="0 0 121 121" enable-background="new 0 0 121 121" xml:space="preserve">
<circle fill="#01519C" cx="60.599" cy="62.129" r="55"/>
<g>
	<path fill="#231F20" d="M96.543,65.845c-0.506,0.139-0.862,0.592-0.877,1.116l-0.04,1.326c-0.011,0.351,0.134,0.688,0.394,0.923
		c0.161,0.145,0.359,0.222,0.566,0.264l0.014-3.646L96.543,65.845z"/>
	<path fill="#231F20" d="M107.027,68.292l-0.014,1.001l0.382-0.062c0.28-0.045,0.536-0.189,0.72-0.405l0.53-0.624
		c0.32-0.375,0.376-0.911,0.141-1.344c-0.236-0.435-0.714-0.68-1.204-0.615l-0.531,0.069l-0.026,1.884
		C107.027,68.228,107.028,68.26,107.027,68.292z"/>
	<path fill="#231F20" d="M85.038,91.837l20.922-7.976c0.512-0.196,0.826-0.714,0.761-1.258c-0.218-1.841-0.447-5.467-0.621-9.827
		c0.508-0.139,0.873-0.598,0.88-1.136l0.033-2.347l0.014-1.001c0.001-0.033,0-0.064-0.002-0.096l0.026-1.884l0.074-5.513
		c0.005-0.392-0.182-0.762-0.501-0.989c-0.233-0.167-0.515-0.242-0.792-0.218c0.012-3.604,0.117-6.237,0.308-7.67
		c0.844-6.271-2.523-7.733-2.613-7.768c-0.045-0.022-4.595-2.167-7.917-3.851c-1.068-0.539-1.962-0.802-2.73-0.802
		c-1.662,0-2.354,1.193-2.44,2.07l-1.8,8.565c-0.008,0.042-0.015,0.084-0.019,0.125l-0.11,0.494c-0.088,0.391,0.025,0.798,0.3,1.086
		l-1.562,2.222c-0.319,0.455-0.283,1.069,0.086,1.484l6.08,6.799c0.279,0.599,0.899,1.142,1.797,1.142
		c0.528,0,1.084-0.188,1.692-0.572c-0.186,0.212-0.294,0.487-0.295,0.782L96.6,65.829l-0.306,3.646L96,70.138
		c0,0.022,0,0.044,0,0.065l0.282,2.552c-0.001,0.347,0.294,0.678,0.555,0.905c0.262,0.228,0.68,0.331,1.026,0.283l0.239-0.029
		c0.121,1.349,0.248,2.515,0.316,3.251l-1.957,0.955c-0.061-1.406-0.367-3.219-1.544-4.457c-1.088-1.145-2.656-1.55-4.61-1.175
		c-1.576,0.301-2.808,1.231-3.566,2.69c-1.282,2.47-0.953,6.093-0.596,7.963l-1.521,0.739c-0.157-2.333-0.343-4.658-0.556-6.941
		c0.662-0.307,1.065-0.671,1.263-0.858c0.571-0.42,0.904-1.143,0.854-1.886c-0.578-7.576-1.402-14.013-2.521-19.681
		C79.455,33.164,72.498,18.861,62.985,12c-2.684-1.936-5.749-3.003-8.631-3.003c-2.212,0-4.278,0.623-5.975,1.801
		c-3.386,2.35-5.155,6.691-4.979,12.288c0.023,0.287,2.028,29.672-3.157,46c-0.246,0.74-0.074,1.541,0.469,2.11
		c0.082,0.083,0.439,0.43,1.03,0.869c-0.41,2.208-0.826,4.367-1.243,6.443l-3.079-1.569c0.1-0.19,0.197-0.39,0.294-0.597
		c2.387-5.144,0.593-8.884-2.08-10.182c-0.692-0.338-1.418-0.51-2.158-0.51c-2.523,0-4.903,2.008-6.528,5.508
		c-0.056,0.118-0.108,0.238-0.16,0.358l-2.715-1.385c0.207-0.767,0.521-1.941,0.876-3.284l0.553,0.1
		c0.317,0.053,0.643-0.017,0.906-0.204c0.262-0.187,0.437-0.472,0.487-0.79l0.522-3.367c0.281,0.022,0.563-0.058,0.793-0.226
		c0.265-0.193,0.438-0.486,0.48-0.812l0.173-1.329c0.076-0.579-0.279-1.128-0.838-1.298l-0.036-0.011l0.313-2.002
		c0.079-0.511-0.178-1.009-0.628-1.243c0.019-0.077,0.038-0.152,0.058-0.221c0.089,0.06,0.198,0.14,0.328,0.243
		c0.835,0.662,1.599,0.984,2.335,0.984c0.822,0,1.458-0.427,1.809-0.924l8.113-6.442c0.476-0.377,0.592-1.052,0.271-1.566
		l-1.377-2.214c0.345-0.25,0.531-0.665,0.487-1.09l-0.048-0.473c0.001-0.049,0-0.097-0.003-0.146l-0.702-8.667
		c0.006-0.308-0.052-0.93-0.539-1.479c-0.329-0.372-0.962-0.816-2.103-0.816c-0.784,0-1.722,0.2-2.868,0.611
		c-4.1,1.473-9.689,3.336-9.696,3.34c-0.168,0.048-4.11,1.252-4.142,7.544c-0.007,1.459-0.316,4.158-0.897,7.852l-0.043-0.017
		c-0.341-0.13-0.72-0.1-1.034,0.085c-0.313,0.184-0.525,0.5-0.577,0.86l-0.82,5.671l-0.936-0.16
		c-0.491-0.082-0.975,0.141-1.227,0.564c-0.253,0.423-0.221,0.958,0.082,1.347l0.513,0.66c0.175,0.227,0.426,0.381,0.707,0.438
		l0.436,0.087l-0.322,2.232c-0.084,0.582,0.267,1.129,0.811,1.306c-0.886,4.278-1.716,7.828-2.259,9.638
		c-0.177,0.591,0.125,1.219,0.696,1.451l24.154,9.804c-2.304,10.312-4.566,17.976-6.731,22.815c0.339,0.205,0.688,0.396,1.033,0.594
		c2.551-5.649,4.934-14.452,6.965-23.618l0.068-0.537L15.18,75.255c0.622-2.076,1.579-6.251,2.527-10.929l-0.617-0.188L18,60.791
		v-0.003l0,0l0.212-4.04L17.889,57h-0.041l0.405-3.329l1.407,0.36c0.674-4.083,1.133-7.723,1.141-9.585
		c0.027-5.468,3.274-6.448,3.274-6.448s5.608-1.893,9.77-3.388c4.162-1.496,3.907,0.57,3.907,0.57l0.708,8.736l-0.012,0.005
		l0.065,0.636l-0.918,0.625l1.982,3.186l-8.28,6.575c0,0-0.585,1.317-2.491-0.193c-1.799-1.426-2.1-0.492-2.5,1.659l0.819,0.316
		l-1.407,9.045l-1.639-0.295c-0.752,2.857-1.407,5.28-1.407,5.28l4.783,2.44c0.14-0.47,0.323-0.981,0.581-1.532
		c1.935-4.167,4.707-5.589,7.077-4.43c2.375,1.153,3.45,4.447,1.521,8.605c-0.293,0.63-0.59,1.147-0.893,1.584l5.62,2.862
		c0.61-2.979,1.18-5.932,1.701-8.764c-0.901-0.584-1.442-1.109-1.503-1.17c-0.211-0.222-0.286-0.569-0.18-0.887
		c5.29-16.659,3.244-46.151,3.213-46.48c-0.16-5.111,1.422-9.087,4.47-11.204c3.584-2.487,8.776-2.02,13.226,1.19
		c9.251,6.672,16.055,20.723,20.204,41.776c1.114,5.638,1.93,12.031,2.503,19.541c0.023,0.341-0.139,0.686-0.411,0.859
		c-0.079,0.053-0.605,0.694-1.802,0.98c0.304,3.11,0.559,6.331,0.757,9.613l3.992-1.941c-0.201-0.445-2.117-9.156,3.003-10.134
		c5.668-1.088,4.661,5.909,4.713,6.379l4.457-2.164c0,0-0.231-2.444-0.485-5.324l-1.449-0.366L97.779,69h-0.001l0.003-0.266
		L97.784,68h-0.001l0.107-0.142L98,66.716v0.012v-0.787v0.002l-0.095-2.24l0.698-0.268c-0.051-2.156-0.209-3.098-1.953-1.778
		c-1.851,1.398-2.185,0.059-2.185,0.059l-6.234-6.963l2.146-3.061l-0.702-0.673l0.139-0.63l-0.006-0.006l1.815-8.644
		c0,0,0.065-2.076,3.446-0.369c3.375,1.71,7.947,3.864,7.947,3.864s2.668,1.099,1.938,6.528c-0.249,1.85-0.336,5.396-0.318,9.484
		l1.293-0.464l-0.042,2.856L105.882,64h-0.002l-0.035,2.903l-0.007,0.5l0,0L105.83,68h0.002L105,69.035v-0.097l0.374,2.734
		l-0.714,0.107c0.172,4.696,0.522,8.883,0.771,10.978l-21.677,8.277c0.271,6.771,0.313,13.591-0.028,19.874
		c-0.018,0.343-0.032,0.691-0.051,1.035c0.411-0.187,0.833-0.366,1.239-0.563c0.007-0.138,0.02-0.271,0.028-0.41
		C85.258,105.171,85.292,98.739,85.038,91.837z"/>
	<path fill="#F7CD9E" d="M69.86,113.018c-2.976-1.587-8.636-1.328-12.275-0.99c-1.595,0.149-3.113,2.13-4.353,4.352
		c2.459,0.333,4.965,0.52,7.516,0.52c3.868,0,7.641-0.397,11.287-1.149C71.587,114.543,70.9,113.571,69.86,113.018z"/>
	<path fill="#F7CD9E" d="M83.806,91.028l-3.603,1.374l-0.25-4.92l3.586-1.743c-0.199-3.282-0.454-6.502-0.757-9.613
		c-1.231,0.295-3.173,0.215-6.08-1.272c-0.457-0.229-0.529-0.668-0.711-2.806c-0.019-0.252-0.033-0.459-0.044-0.531
		c-0.455-3.182-1.589-6.389-2.576-9.359c-0.464-1.392-1.087-3.26-1.928-4.985c-0.413-0.848-0.88-1.659-1.402-2.373l-0.288-0.369
		c-0.894-1.11-1.942-1.915-3.181-2.073c-0.057-0.008-0.649-0.104-0.821-0.126c-2.499-0.318-5.646,2.565-7.313,4.812l-1.03,1.821
		c-3.879,6.427-3.71,12.936-3.709,13.003c0.015,0.394-0.22,0.769-0.563,0.885c-1.74,0.625-4.226,0.615-5.625,0.437
		c-1.896-0.242-3.414-0.997-4.451-1.67c-0.521,2.833-1.091,5.785-1.701,8.764l2.517,1.283l-1.025,4.677l0.421,0.148l-0.379,1.198
		l-2.747-1.595l0.004-0.038c-2.032,9.166-4.414,17.969-6.965,23.618c5.891,3.373,12.453,5.705,19.443,6.728
		c0.434-1.216,0.973-2.373,1.85-3.369c0.702-0.792,1.593-1.458,2.604-2c5.695-3.027,15.306-1.958,17.327,4.229
		c0.004,0.012,0.006,0.025,0.01,0.036c3.211-0.812,6.306-1.915,9.268-3.259c0.02-0.344,0.046-0.693,0.064-1.036
		C84.093,104.622,84.078,97.798,83.806,91.028z M43.848,80.961l-2.461-0.71l2.567,0.328L43.848,80.961z M68.871,61.312l-0.403,0.361
		c-1.375,1.238-2.588,1.797-3.606,1.668c-2.1-0.268-2.575-3.295-2.594-3.427l-0.063-0.438L68.871,61.312z M63.207,57.941
		c0.128,0.022,0.472,0.324,0.158,0.26c-1.078-0.231-2.059,0.393-2.259,1.703c-0.016,0.105-0.469-0.037-0.445-0.205
		C60.88,58.226,62.049,57.692,63.207,57.941z M75.478,90.396c-7.695-2.737-18.839,0.644-20.572,1.569l-1.516-2.43l1.704,0.731
		c8.981-3.187,11.861-2.19,11.861-2.19l1.647-12.021c-4.745-0.699-10.669-0.503-17.663,1.788c0,0,6.024-3.717,16.966-2.118
		c10.533,1.539,14.086,5.885,14.086,5.885s-4.256-3.859-12.116-5.341l-1.81,11.646c5.448-0.232,7.23,1.096,7.23,1.096l3.637-1.188
		L75.478,90.396z M55.662,87.482c0.047-0.304,0.254-0.538,0.459-0.513c0.212,0.027,0.338,0.304,0.292,0.611
		c-0.047,0.312-0.252,0.541-0.463,0.514C55.743,88.068,55.614,87.799,55.662,87.482z M74.885,86.43
		c-0.047,0.306-0.255,0.532-0.464,0.506c-0.208-0.028-0.335-0.296-0.29-0.603c0.05-0.313,0.253-0.542,0.461-0.516
		C74.801,85.841,74.931,86.115,74.885,86.43z"/>
	<path fill="#E45B2F" d="M59.313,32.551c-0.9-9.533-10.03-14.379-12.43-15.495c-0.602,1.597-0.878,3.515-0.806,5.715
		c0.006,0.083,0.022,0.308,0.043,0.638C53.328,22.556,59.313,32.551,59.313,32.551z"/>
	<path fill="#E45B2F" d="M61.115,27.831c-1.397-7.551-0.464-12.206-0.071-13.669c-3.897-2.633-8.277-3.035-11.275-0.954
		c-1.211,0.839-2.125,2.034-2.747,3.521C55.358,16.213,61.115,27.831,61.115,27.831z"/>
	<path fill="#E45B2F" d="M64.77,29.912c-2.401-6.108-1.02-11.4-0.458-13.079c-0.931-0.891-1.886-1.708-2.874-2.421
		c-0.106-0.077-0.216-0.131-0.323-0.205C59.484,24.182,64.77,29.912,64.77,29.912z"/>
	<path fill="#E45B2F" d="M65.799,26.717c2.177,0.757,3.495-1.454,4.108-2.914c-0.969-1.527-1.98-2.927-3.034-4.199
		C66.207,20.799,63.511,25.922,65.799,26.717z"/>
	<path fill="#E45B2F" d="M72.521,28.433c-0.805-1.598-1.646-3.094-2.521-4.485C68.963,28.944,71.365,28.773,72.521,28.433z"/>
	<path fill="#E45B2F" d="M50.057,35.94c-0.437-1.431-2.466-1.772-3.56-1.852c0.025,2.134,0.022,4.473-0.027,6.939
		C47.446,40.252,50.568,37.617,50.057,35.94z"/>
	<path fill="#E45B2F" d="M51.669,29.767c-0.487-2.296-3.863-1.875-5.315-1.582c0.061,1.627,0.114,3.561,0.141,5.704
		C48.154,33.44,52.166,32.104,51.669,29.767z"/>
	<path fill="#E45B2F" d="M77.636,73.433c3.853,1.88,4.791,0.906,5.83,0.477c-0.565-7.163-1.355-13.285-2.425-18.697
		c-0.241-1.218-0.493-2.408-0.75-3.577c-0.424,2.24-2.321,2.333-5.128-0.31c-3.974-3.744-3.212-2.222-3.212-2.222
		c2.146,1.609,4.89,9.577,5.558,12.232c0.662,2.654-0.049,2.471-0.049,2.471c-1.116-0.678-1.942-0.997-2.488-1.146
		c0.149,0.428,0.299,0.854,0.453,1.261C76.341,66.362,77.572,73.004,77.636,73.433z"/>
	<path fill="#E45B2F" d="M51.815,59.961c2.063-6.398,7.418-8.665,8.043-10.016c0.621-1.348-0.896-1.16-0.896-1.16
		c-2.237,0-7.254,6.499-7.254,6.499c-3.282,4.293-5.361,0.785-6.029-0.693c-0.542,5.235-1.4,10.38-2.737,14.782
		c1.043,0.854,5.121,3.166,9.28,1.953c-0.032,0.012,0.825-5.755,0.94-6.187c0.235-0.888,0.547-1.788,0.921-2.687
		c-0.685-0.313-1.849-0.822-2.35-0.884C51,61.472,51.815,59.961,51.815,59.961z"/>
	<path fill="#EC8F2A" d="M70.04,54.8c-0.093-0.127-0.191-0.248-0.288-0.369L70.04,54.8z"/>
	<path fill="#EC8F2A" d="M77.507,61.336c-0.667-2.655-3.412-10.623-5.558-12.232c0,0-0.761-1.522,3.212,2.222
		c2.807,2.644,4.704,2.55,5.128,0.31c-2.046-9.268-4.645-17.004-7.77-23.203c-1.156,0.341-3.557,0.512-2.521-4.485
		c-0.031-0.049-0.062-0.095-0.092-0.144c-0.613,1.46-1.931,3.671-4.108,2.914c-2.289-0.795,0.408-5.918,1.074-7.113
		c-0.829-1.001-1.682-1.929-2.562-2.771c-0.562,1.679-1.943,6.971,0.458,13.079c0,0-5.285-5.73-3.655-15.706
		c-0.023-0.016-0.047-0.029-0.07-0.044c-0.393,1.463-1.327,6.118,0.071,13.669c0,0-5.757-11.618-14.093-11.101
		c-0.046,0.11-0.097,0.213-0.14,0.327c2.4,1.116,11.53,5.962,12.43,15.495c0,0-5.984-9.996-13.193-9.141
		c0.054,0.866,0.151,2.527,0.234,4.775c1.453-0.293,4.829-0.714,5.315,1.582c0.497,2.337-3.516,3.674-5.174,4.123
		c0.001,0.065,0.001,0.133,0.002,0.199c1.094,0.08,3.123,0.421,3.56,1.852c0.511,1.677-2.611,4.313-3.587,5.087
		c-0.086,4.296-0.315,8.961-0.791,13.564c0.668,1.478,2.747,4.986,6.029,0.693c0,0,5.017-6.499,7.254-6.499
		c0,0,1.517-0.188,0.896,1.16c-0.625,1.352-5.98,3.618-8.043,10.016c0,0-0.815,1.511-0.081,1.606
		c0.501,0.063,1.665,0.571,2.35,0.884c1.753-4.211,4.923-8.336,8.468-10.482c5.118-3.095,8.438,2.173,10.671,6.341
		c0.698,1.297,1.225,2.86,1.747,4.351c0.546,0.15,1.372,0.468,2.488,1.146C77.458,63.807,78.169,63.99,77.507,61.336z M56.34,48.984
		l-0.052,0.045c-2.011,1.481-4.965,1.988-6.141,1.836c-0.756-0.095-1.335-0.525-1.678-1.244c-0.738-1.545-0.27-3.996,0.415-5.77
		c1.346-3.469,6.54-8.223,10.41-7.73c0.802,0.103,1.585,0.441,2.324,1.005c0.381,0.288,1.161,0.583,1.401,0.666
		C63.54,37.931,64.064,38,64.554,38c0.489-0.066,0.998-0.218,1.524-0.441c0.252-0.101,1.032-0.477,1.361-0.841
		c0.764-0.838,1.79-1.205,2.972-1.056c2.89,0.369,4.26,3.339,5.402,6.092c0.422,1.022,1.713,4.507,0.525,6.34
		c-0.341,0.52-0.571,1.162-1.9,0.993c-0.966-0.122-0.849-0.461-2.328-1.352c-0.003-0.009-0.736-0.494-1.825-0.987
		c-0.018-0.008-1.501-0.842-3.735-1.126C64.089,45.309,59.944,45.59,56.34,48.984z"/>
	<path fill="#F7CD9E" d="M66.725,44.502c2.399,0.307,3.977,1.193,4.004,1.216c1.132,0.505,3.037,2.139,3.882,2.249
		c0.675,0.085,0.698-0.12,0.946-0.501c0.54-0.837,0.273-2.964-0.647-5.181c-1.01-2.439-2.199-5.181-4.672-5.497
		c-0.881-0.112-1.601,0.125-2.136,0.715c-0.548,0.605-1.619,1.064-1.733,1.109c-0.611,0.264-1.212,0.429-1.793,0.51l-0.052,0.002
		c-0.579,0.01-1.171-0.065-1.816-0.239c-0.044-0.018-1.097-0.371-1.676-0.811c-0.62-0.47-1.265-0.749-1.913-0.832
		c-3.296-0.421-8.161,3.987-9.334,7.008c-0.729,1.888-0.909,3.806-0.437,4.779c0.201,0.424,0.518,0.661,0.968,0.718
		c0.644,0.083,2.77-0.051,4.997-1.692C59.199,44.416,64.069,44.164,66.725,44.502z M70.431,40.327
		c0.376-0.061,0.731,0.561,0.793,1.392c0.058,0.835-0.193,1.558-0.567,1.624c-0.376,0.063-0.73-0.561-0.79-1.391
		C69.799,41.12,70.055,40.395,70.431,40.327z M57.781,41.051c0.373-0.062,0.732,0.557,0.794,1.392
		c0.059,0.828-0.197,1.555-0.569,1.619c-0.375,0.061-0.729-0.561-0.792-1.394C57.152,41.84,57.402,41.113,57.781,41.051z"/>
	<path fill="#E45B2F" d="M66.55,45.624c2.234,0.284,3.717,1.118,3.735,1.126c1.089,0.493,1.822,0.978,1.825,0.987
		c1.479,0.89,1.362,1.229,2.328,1.352c1.33,0.169,1.56-0.473,1.9-0.993c1.188-1.833-0.103-5.318-0.525-6.34
		c-1.143-2.753-2.513-5.723-5.402-6.092c-1.182-0.149-2.208,0.217-2.972,1.056c-0.329,0.364-1.109,0.74-1.361,0.841
		c-0.526,0.223-1.036,0.375-1.524,0.441c-0.49-0.001-1.014-0.07-1.535-0.209c-0.24-0.083-1.02-0.378-1.401-0.666
		c-0.739-0.564-1.522-0.902-2.324-1.005c-3.87-0.493-9.064,4.262-10.41,7.73c-0.685,1.774-1.152,4.225-0.415,5.77
		c0.343,0.719,0.921,1.149,1.678,1.244c1.176,0.152,4.13-0.355,6.141-1.836l0.052-0.045C59.944,45.59,64.089,45.309,66.55,45.624z
		 M50.317,49.748c-0.45-0.057-0.768-0.293-0.968-0.718c-0.472-0.973-0.292-2.891,0.437-4.779c1.174-3.021,6.038-7.429,9.334-7.008
		c0.647,0.083,1.293,0.362,1.913,0.832c0.579,0.44,1.631,0.793,1.676,0.811c0.645,0.174,1.238,0.249,1.816,0.239l0.052-0.002
		c0.581-0.081,1.182-0.247,1.793-0.51c0.114-0.044,1.185-0.503,1.733-1.109c0.535-0.59,1.254-0.828,2.136-0.715
		c2.473,0.315,3.662,3.058,4.672,5.497c0.92,2.217,1.187,4.344,0.647,5.181c-0.248,0.381-0.271,0.586-0.946,0.501
		c-0.845-0.11-2.75-1.743-3.882-2.249c-0.027-0.023-1.605-0.91-4.004-1.216c-2.655-0.338-7.525-0.086-11.411,3.553
		C53.087,49.697,50.961,49.83,50.317,49.748z"/>
	<path fill="#F7CD9E" d="M104.637,61.248c-0.018-4.088,0.07-7.634,0.318-9.484c0.73-5.429-1.938-6.528-1.938-6.528
		s-4.572-2.154-7.947-3.864c-3.38-1.707-3.446,0.369-3.446,0.369l-1.815,8.644l0.005,0.006l0.024-0.106
		c0.176,0.137,0.242,0.174,0.326,0.242c1.973,1.612,4.041,3.535,6.308,4.552c1.117,0.496,1.113,0.149,1.556-1.117
		c0.332-0.966,0.41-1.992,0.319-2.982c-0.177-1.897-3.273-3.878-2.582-1.134c0.102,0.412-1.184,0.168-1.302-0.322
		c-0.531-2.094,1.039-2.224,2.287-1.799c2.689,0.917,3.508,4.018,2.427,7.159c-0.844,2.451-2.921,0.981-4.295,0.116
		c-1.537-0.97-3.015-2.102-4.465-3.263l-0.043-0.042l-2.149,3.061l6.226,6.963c0,0,0.323,1.34,2.173-0.059
		c1.742-1.319,1.875-0.377,1.926,1.778L104.637,61.248z"/>
	<path fill="#F7CD9E" d="M79.953,87.482l0.25,4.92l3.603-1.374l21.728-8.284c-0.248-2.094-0.497-6.293-0.669-10.99l-5.646,0.8
		c0.254,2.88,0.485,5.324,0.485,5.324l-4.457,2.164c-0.052-0.47,0.955-7.467-4.713-6.379c-5.12,0.979-3.204,9.689-3.003,10.134
		l-3.992,1.941L79.953,87.482z"/>
	<path fill="#ED9A5A" d="M94.884,54.997c1.374,0.866,3.451,2.335,4.295-0.116c1.081-3.141,0.263-6.242-2.427-7.159
		c-1.249-0.425-2.818-0.295-2.287,1.799c0.118,0.49,1.404,0.733,1.302,0.322c-0.691-2.744,2.405-0.763,2.582,1.134
		c0.091,0.991,0.013,2.016-0.319,2.982c-0.443,1.267-0.439,1.613-1.556,1.117c-2.267-1.017-4.335-2.94-6.308-4.552
		c-0.084-0.068-0.15-0.105-0.326-0.242l-0.024,0.106l-0.14,0.63l0.701,0.673l0.043,0.042C91.869,52.895,93.347,54.027,94.884,54.997
		z"/>
	<polygon fill="#B84F33" points="105.89,63.739 105.888,63.911 105.93,60.783 104.637,61.248 98.551,63.436 97.803,63.705 
		97.795,65.946 	"/>
	<polygon fill="#B84F33" points="105.939,68.273 105.893,67.675 97.92,68.757 98,69.685 98,69.582 	"/>
	<polygon fill="#B84F33" points="105,67.12 105,67.173 105.458,64.541 97.688,66.741 98,68.236 98,68.194 	"/>
	<polygon fill="#B84F33" points="104.864,71.754 105.785,71.624 105.822,68.843 97.779,70.145 97.769,72.76 99.218,72.555 	"/>
	<polygon fill="#F3D52F" points="105,68.67 105,68.948 105.832,68 105.83,68 98,69.582 98,69.685 97.778,69 97.779,69 	"/>
	<polygon fill="#F3D52F" points="105.416,67.297 105.416,67.297 105,67.173 105,67.12 98,68.194 98,68.236 97.783,68 97.784,68 	"/>
	<polygon fill="#F3D52F" points="105.88,64 105.882,64 105.888,63.639 105.993,63.604 98,65.889 98,65.918 98,66.727 98,66.504 	"/>
	<path fill="#F7CD9E" d="M26.305,56.409c0.4-2.151,0.701-3.084,2.5-1.659c1.906,1.51,2.491,0.193,2.491,0.193l8.28-6.575
		l-1.982-3.187l-0.056,0.039c-1.854,1.071-3.73,2.109-5.662,2.989c-1.714,0.774-4.35,2.111-4.926-0.384
		c-0.743-3.207,0.692-6.25,3.941-7.002c1.504-0.344,3.288-0.119,2.343,1.938c-0.218,0.481-1.737,0.648-1.553,0.238
		c1.238-2.692-2.644-0.91-3.154,0.974c-0.267,0.985-0.332,2.011-0.108,3.003c0.303,1.288,0.25,1.638,1.612,1.209
		c2.773-0.871,5.458-2.671,7.993-4.157c0.105-0.061,0.19-0.096,0.41-0.216l0.011,0.105l0.011-0.008l-0.708-8.742
		c0,0,0.254-2.077-3.908-0.581c-4.161,1.496-9.771,3.364-9.771,3.364s-3.249,0.933-3.276,6.401
		c-0.008,1.863-0.474,5.409-1.146,9.492L26.305,56.409z"/>
	<path fill="#F7CD9E" d="M42.852,86.244l1.025-4.677l-2.517-1.283l-5.62-2.862c0.303-0.437,0.599-0.954,0.893-1.584
		c1.929-4.158,0.854-7.452-1.521-8.605c-2.37-1.16-5.142,0.262-7.077,4.43c-0.257,0.55-0.44,1.062-0.581,1.532l-4.783-2.44
		c0,0,0.655-2.422,1.407-5.28l-6.371-1.148c-0.949,4.677-1.906,8.853-2.527,10.929L40.22,85.42l0.013-0.096L42.852,86.244z"/>
	<path fill="#ED9A5A" d="M38.026,44.029c-2.535,1.486-5.22,3.286-7.993,4.157c-1.363,0.428-1.31,0.079-1.612-1.209
		c-0.224-0.992-0.159-2.018,0.108-3.003c0.51-1.884,4.392-3.666,3.154-0.974c-0.184,0.41,1.334,0.243,1.553-0.238
		c0.945-2.058-0.839-2.283-2.343-1.938c-3.249,0.752-4.685,3.796-3.941,7.002c0.576,2.495,3.212,1.159,4.926,0.384
		c1.931-0.88,3.808-1.917,5.662-2.989l0.056-0.039l0.918-0.626l-0.065-0.638l-0.011-0.105
		C38.217,43.934,38.132,43.968,38.026,44.029z"/>
	<path fill="#B84F33" d="M24.078,65.475l1.639,0.295l1.407-9.045l-0.819-0.316l-6.656-2.564l-1.417-0.546l-0.426,2.954l8.971,2.708
		l-0.125,0.793l-8.96-2.703l0.096-0.676l-0.638,4.414l9.063,1.802l-0.092,0.563l-9.049-1.801l0.077-0.562l-0.483,3.348l1.042,0.188
		L24.078,65.475z M17.239,60.184l0.08-0.556l9.105,1.57l-0.084,0.568L17.239,60.184z"/>
	<polygon fill="#F3D52F" points="26.121,63.153 26.637,62.59 18,60.788 18,60.788 18,60.791 17.498,61.352 	"/>
	<polygon fill="#F3D52F" points="26.424,61.198 17.319,59.628 17.239,60.184 26.34,61.767 	"/>
	<polygon fill="#F3D52F" points="26.652,59.753 26.776,58.96 17.805,56.252 17.805,56.252 17.787,56.374 17.691,57.05 	"/>
	<path fill="#ED9A5A" d="M65.996,75.696L68,75.98v0.006l1.589,0.162l0.134,0.122c7.858,1.482,12.193,5.341,12.193,5.341
		s-3.517-4.346-14.049-5.885c-10.941-1.599-16.947,2.118-16.947,2.118c6.994-2.292,12.928-2.487,17.672-1.788l-0.138-0.07
		L65.996,75.696z"/>
	<path fill="#ED9A5A" d="M68.066,87.916l1.81-11.646l0.019-0.122l-1.283-0.162l-0.01,0.07l-1.647,12.021c0,0-2.88-0.997-11.861,2.19
		l-1.704-0.731l1.516,2.43c1.732-0.925,12.876-4.306,20.572-1.569l3.456-2.573l-3.637,1.188
		C75.297,89.012,73.514,87.684,68.066,87.916z"/>
	<polygon fill="#ED9A5A" points="65.689,75.696 68,75.986 68,75.98 	"/>
	<path fill="#ED9A5A" d="M57.083,110.935c-1.011,0.541-1.902,1.208-2.604,2c-0.877,0.996-1.416,2.153-1.85,3.369
		c0.199,0.029,0.402,0.05,0.603,0.077c1.239-2.222,2.757-4.203,4.353-4.352c3.639-0.338,9.299-0.597,12.275,0.99
		c1.04,0.554,1.727,1.526,2.175,2.733c0.801-0.166,1.596-0.351,2.385-0.551c-0.004-0.011-0.005-0.024-0.01-0.036
		C72.39,108.976,62.778,107.908,57.083,110.935z"/>
	<path fill="#F3D52F" d="M47.511,73.19c1.398,0.178,3.885,0.188,5.625-0.437c0.343-0.116,0.578-0.492,0.563-0.885
		c-0.001-0.067-0.17-6.576,3.709-13.003l1.03-1.821c1.667-2.246,4.814-5.13,7.313-4.812c0.172,0.023,0.765,0.119,0.821,0.126
		c1.238,0.158,2.287,0.963,3.181,2.073c0.097,0.121,0.195,0.242,0.288,0.369c0.522,0.713,0.989,1.525,1.402,2.373
		c0.841,1.726,1.464,3.593,1.928,4.985c0.986,2.97,2.121,6.177,2.576,9.359c0.011,0.072,0.025,0.279,0.044,0.531
		c0.182,2.138,0.254,2.577,0.711,2.806c2.907,1.487,4.849,1.567,6.08,1.272c1.197-0.287,1.723-0.927,1.802-0.98
		c0.271-0.173,0.434-0.518,0.411-0.859c-0.573-7.51-1.39-13.903-2.503-19.541C78.341,33.693,71.538,19.642,62.287,12.97
		c-4.449-3.21-9.642-3.678-13.226-1.19c-3.048,2.116-4.629,6.092-4.47,11.204c0.03,0.329,2.077,29.821-3.213,46.48
		c-0.106,0.318-0.032,0.666,0.18,0.887c0.061,0.061,0.602,0.585,1.503,1.17C44.097,72.193,45.615,72.948,47.511,73.19z
		 M73.223,58.31c-2.234-4.168-5.554-9.436-10.671-6.341c-3.544,2.146-6.715,6.271-8.468,10.482
		c-0.374,0.898-0.686,1.799-0.921,2.687c-0.115,0.432-0.972,6.199-0.94,6.187c-4.16,1.213-8.237-1.098-9.28-1.953
		c1.336-4.401,2.195-9.547,2.737-14.782c0.476-4.603,0.704-9.268,0.791-13.564c0.049-2.466,0.052-4.805,0.027-6.939
		c0-0.065-0.001-0.133-0.002-0.199c-0.027-2.144-0.08-4.077-0.141-5.704c-0.083-2.248-0.18-3.909-0.234-4.775
		c-0.021-0.33-0.037-0.555-0.043-0.638c-0.073-2.2,0.204-4.118,0.806-5.715c0.043-0.113,0.094-0.217,0.14-0.327
		c0.623-1.487,1.536-2.683,2.747-3.521c2.998-2.081,7.377-1.679,11.275,0.954c0.023,0.016,0.047,0.028,0.07,0.044
		c0.106,0.074,0.217,0.128,0.323,0.205c0.988,0.713,1.943,1.53,2.874,2.421c0.88,0.842,1.733,1.771,2.562,2.771
		c1.053,1.272,2.064,2.672,3.034,4.199c0.031,0.049,0.061,0.095,0.092,0.144c0.875,1.391,1.716,2.887,2.521,4.485
		c3.125,6.199,5.724,13.935,7.77,23.203c0.257,1.169,0.509,2.359,0.75,3.577c1.07,5.412,1.86,11.534,2.425,18.697
		c-1.04,0.429-1.977,1.403-5.83-0.477c-0.063-0.429-1.294-7.071-2.213-9.511c-0.154-0.408-0.303-0.833-0.453-1.261
		C74.448,61.17,73.921,59.607,73.223,58.31z"/>
	<path fill="#241F20" d="M70.657,43.342c0.375-0.065,0.625-0.789,0.567-1.624c-0.063-0.831-0.417-1.452-0.793-1.392
		c-0.375,0.068-0.632,0.793-0.564,1.624C69.926,42.781,70.28,43.405,70.657,43.342z"/>
	<path fill="#241F20" d="M58.006,44.062c0.372-0.064,0.627-0.792,0.569-1.619c-0.062-0.835-0.421-1.454-0.794-1.392
		c-0.378,0.062-0.629,0.789-0.566,1.617C57.277,43.501,57.631,44.123,58.006,44.062z"/>
	<path fill="#241F20" d="M62.268,59.915c0.019,0.131,0.494,3.159,2.594,3.427c1.019,0.129,2.232-0.431,3.606-1.668l0.403-0.361
		l-6.666-1.835L62.268,59.915z"/>
	<path fill="#DB994F" d="M61.106,59.904c0.2-1.311,1.181-1.935,2.259-1.703c0.314,0.064-0.03-0.237-0.158-0.26
		c-1.158-0.25-2.327,0.284-2.546,1.758C60.637,59.867,61.09,60.01,61.106,59.904z"/>
	<path fill="#ED9A5A" d="M74.131,86.333c-0.045,0.306,0.082,0.575,0.29,0.603c0.209,0.026,0.417-0.2,0.464-0.506
		c0.046-0.314-0.084-0.589-0.292-0.613C74.385,85.791,74.181,86.02,74.131,86.333z"/>
	<path fill="#ED9A5A" d="M56.413,87.581c0.046-0.307-0.08-0.584-0.292-0.611c-0.205-0.025-0.412,0.209-0.459,0.513
		c-0.048,0.317,0.082,0.586,0.288,0.613C56.16,88.121,56.365,87.893,56.413,87.581z"/>
	<polygon fill="#ED9A5A" points="42.894,87.59 43.273,86.393 42.852,86.244 40.232,85.324 40.22,85.42 40.152,85.957 40.147,85.995 
			"/>
	<polygon fill="#ED9A5A" points="41.387,80.25 43.848,80.961 43.955,80.578 	"/>
</g>
</svg>
