<?xml version="1.0" encoding="utf-8"?>
<!-- Generator: Adobe Illustrator 15.1.0, SVG Export Plug-In . SVG Version: 6.00 Build 0)  -->
<!DOCTYPE svg PUBLIC "-//W3C//DTD SVG 1.1//EN" "http://www.w3.org/Graphics/SVG/1.1/DTD/svg11.dtd">
<svg version="1.1" id="Layer_1" xmlns="http://www.w3.org/2000/svg" xmlns:xlink="http://www.w3.org/1999/xlink" x="0px" y="0px"
	 width="25.333px" height="22.438px" viewBox="0 0 25.333 22.438" enable-background="new 0 0 25.333 22.438" xml:space="preserve">
<circle fill="#FFFFFF" cx="12.649" cy="11.219" r="11.219"/>
<g>
	<path fill="#ADC259" d="M18.845,11.565c-0.587,0-0.78-0.432-0.886-0.638c-0.271-0.531-0.701-1.345-1.451-1.777
		c-0.288,0.461-0.404,0.692-0.519,1.414c-0.462-2.337,0.397-3.901,0.521-4.592c-0.845,0.214-2.079,1.015-2.479,2.094
		c-0.207-0.123-0.829-0.23-1.014-0.23h-2.166c-2.121,0-4.303,1.517-4.765,3.993c-0.319,0.085-0.713-0.113-0.713-0.574
		c0-0.632,0.787-0.612,0.826-0.323c0-0.925-1.447-0.784-1.447,0.41c0,1.22,0.761,1.436,1.243,1.449c0,0.006,0,0.012,0,0.018
		c0,1.302,0.629,2.484,1.652,3.369c0.146,0.127,0.444,0.442,0.344,0.951c-0.1,0.51-0.271,1.354-0.271,1.354l2.705,0.541
		c0,0,0.099-0.396,0.166-0.829s0.416-0.495,0.826-0.457c0.26,0.023,0.523,0.043,0.792,0.043c0.329,0,0.65-0.023,0.964-0.064
		c0.184-0.024,0.547-0.031,0.63,0.353c0.084,0.384,0.191,0.955,0.191,0.955l2.705-0.541c0,0-0.232-1.078-0.293-1.406
		c-0.062-0.327,0.179-0.577,0.297-0.681c0.399-0.351,0.732-0.753,0.909-1.146c0.105-0.236,0.468-0.576,0.978-0.576
		c0.405,0,1.078,0,1.078,0v-3.108H18.845z M15.667,13.09c-0.555,0-1.006-0.451-1.006-1.007c0-0.555,0.451-1.006,1.006-1.006
		c0.557,0,1.007,0.451,1.007,1.006C16.673,12.639,16.223,13.09,15.667,13.09z"/>
	<circle fill="#FFFFFF" cx="11.265" cy="5.285" r="1.872"/>
</g>
</svg>
