<?xml version="1.0" encoding="utf-8"?>
<!-- Generator: Adobe Illustrator 15.1.0, SVG Export Plug-In . SVG Version: 6.00 Build 0)  -->
<!DOCTYPE svg PUBLIC "-//W3C//DTD SVG 1.1//EN" "http://www.w3.org/Graphics/SVG/1.1/DTD/svg11.dtd">
<svg version="1.1" id="Capa_1" xmlns="http://www.w3.org/2000/svg" xmlns:xlink="http://www.w3.org/1999/xlink" x="0px" y="0px"
	 width="219.289px" height="45.178px" viewBox="0 0 219.289 45.178" enable-background="new 0 0 219.289 45.178"
	 xml:space="preserve">
<g>
	<g>
		<path fill="#FBB03B" d="M217.076,34.57c0,4.4-3.6,8-8,8h-198c-4.4,0-8-3.6-8-8v-24c0-4.4,3.6-8,8-8h198c4.4,0,8,3.6,8,8V34.57z"/>
		<path fill="none" stroke="#FFFFFF" stroke-width="0.5" stroke-miterlimit="10" d="M217.076,34.57c0,4.4-3.6,8-8,8h-198
			c-4.4,0-8-3.6-8-8v-24c0-4.4,3.6-8,8-8h198c4.4,0,8,3.6,8,8V34.57z"/>
	</g>
	<g>
		<g>
			<path fill="#FFFFFF" d="M30.087,31.525h-1.786V17.201h1.786V31.525z"/>
			<path fill="#FFFFFF" d="M41.364,31.525h-2.166l-4.217-6.061H34.24v6.061h-1.786V17.201h2.166c1.272,0,2.641,0.019,3.78,0.665
				c1.197,0.703,1.881,2.052,1.881,3.42c0,2.051-1.368,3.761-3.438,4.008L41.364,31.525z M34.24,23.982h0.57
				c1.824,0,3.799-0.341,3.799-2.621c0-2.242-2.128-2.564-3.895-2.564H34.24V23.982z"/>
			<path fill="#FFFFFF" d="M50.294,27.934l-1.634,3.591h-1.918l6.839-14.932l6.839,14.932h-1.918l-1.634-3.591H50.294z
				 M53.581,20.506L51.036,26.3h5.091L53.581,20.506z"/>
			<path fill="#FFFFFF" d="M68.895,29.89h4.351v1.635h-6.136V17.201h1.786V29.89z"/>
			<path fill="#FFFFFF" d="M76.945,27.934l-1.634,3.591h-1.918l6.839-14.932l6.839,14.932h-1.918l-1.634-3.591H76.945z
				 M80.232,20.506L77.687,26.3h5.091L80.232,20.506z"/>
			<path fill="#FFFFFF" d="M95.793,27.934l-1.634,3.591h-1.918l6.839-14.932l6.839,14.932H104l-1.634-3.591H95.793z M99.08,20.506
				L96.534,26.3h5.091L99.08,20.506z"/>
			<path fill="#FFFFFF" d="M108.631,31.525h-1.786V17.201h2.052c4.408,0,5.775,1.52,5.775,4.141c0,3.021-2.299,4.179-5.015,4.179
				h-1.026V31.525z M108.631,23.925h0.57c1.824,0,3.799-0.342,3.799-2.622c0-2.241-2.127-2.507-3.894-2.507h-0.475V23.925z"/>
			<path fill="#FFFFFF" d="M117.553,29.89h4.352v1.635h-6.137V17.201h1.785V29.89z"/>
			<path fill="#FFFFFF" d="M124.549,31.525h-1.785V17.201h1.785V31.525z"/>
			<path fill="#FFFFFF" d="M137.396,19.936c-1.026-0.912-2.432-1.406-3.78-1.406c-3.211,0-5.662,2.679-5.662,5.851
				c0,3.135,2.432,5.813,5.624,5.813c1.405,0,2.755-0.532,3.818-1.482v2.109c-1.103,0.646-2.508,1.006-3.762,1.006
				c-4.084,0-7.466-3.248-7.466-7.389c0-4.237,3.4-7.542,7.618-7.542c1.253,0,2.526,0.304,3.609,0.969V19.936z"/>
			<path fill="#FFFFFF" d="M141.487,27.934l-1.634,3.591h-1.918l6.838-14.932l6.84,14.932h-1.919l-1.634-3.591H141.487z
				 M144.773,20.506l-2.545,5.794h5.091L144.773,20.506z"/>
			<path fill="#FFFFFF" d="M162.192,19.936c-1.026-0.912-2.432-1.406-3.78-1.406c-3.211,0-5.662,2.679-5.662,5.851
				c0,3.135,2.432,5.813,5.624,5.813c1.405,0,2.755-0.532,3.818-1.482v2.109c-1.103,0.646-2.508,1.006-3.762,1.006
				c-4.084,0-7.466-3.248-7.466-7.389c0-4.237,3.4-7.542,7.618-7.542c1.253,0,2.526,0.304,3.609,0.969V19.936z"/>
			<path fill="#FFFFFF" d="M165.469,31.525h-1.785V17.201h1.785V31.525z"/>
			<path fill="#FFFFFF" d="M181.995,24.363c0,4.255-3.362,7.465-7.504,7.465s-7.504-3.21-7.504-7.465c0-4.104,3.4-7.466,7.504-7.466
				S181.995,20.259,181.995,24.363z M180.209,24.363c0-3.154-2.355-5.794-5.718-5.794s-5.718,2.641-5.718,5.794
				c0,3.268,2.621,5.794,5.718,5.794S180.209,27.63,180.209,24.363z M177.037,13.458l-3.115,2.831l-0.836-0.513l2.374-3.154
				L177.037,13.458z"/>
			<path fill="#FFFFFF" d="M183.469,16.517l10.753,11.265V17.201h1.786v14.912l-10.753-11.265v10.677h-1.786V16.517z"/>
		</g>
	</g>
</g>
</svg>
