<?xml version="1.0" encoding="utf-8"?>
<!-- Generator: Adobe Illustrator 15.1.0, SVG Export Plug-In . SVG Version: 6.00 Build 0)  -->
<!DOCTYPE svg PUBLIC "-//W3C//DTD SVG 1.1//EN" "http://www.w3.org/Graphics/SVG/1.1/DTD/svg11.dtd">
<svg version="1.1" id="Layer_1" xmlns="http://www.w3.org/2000/svg" xmlns:xlink="http://www.w3.org/1999/xlink" x="0px" y="0px"
	 width="327px" height="73px" viewBox="0 0 327 73" enable-background="new 0 0 327 73" xml:space="preserve">
<g>
	<g>
		<path fill="#FBB03B" d="M223.185,26.563c0,4.889-4,8.888-8.888,8.888H105.681c-4.889,0-8.888-3.999-8.888-8.888V9.888
			c0-4.889,3.999-8.888,8.888-8.888h108.616c4.888,0,8.888,3.999,8.888,8.888V26.563z"/>
	</g>
	<rect x="3.517" y="30.051" fill="#FBB03B" width="320" height="40"/>
	<g>
		<path fill-rule="evenodd" clip-rule="evenodd" fill="#E6E6E6" d="M25.496,44.341c0,0-3.062,1.782-3.518,3.309
			c-0.453,1.523-1.448,3.822-1.448,3.822l-0.09,1.619l-1.628,1.489c0,0-0.144,1.968-0.521,2.76
			c-0.654,1.379-1.174,2.609-1.041,2.798l1.219-0.072l0.613,0.508l0.779-0.587l1.262-0.305c0,0,0.47,0.053,0.646,0.107
			c0.18,0.056,0.88,0.104,1.057,0.102c0.099,0,0.723-0.632,0.91-0.81c0.061-0.058,0.138-0.009,0.138-0.009l0.093-0.461
			c0,0,1.75-1.86,1.646-2.081c-0.1-0.218,0.48-1.765,0.415-1.938c-0.065-0.175-0.105-0.955-0.105-0.955l0.251-0.412l-0.193-0.52
			l0.477-0.948l1.03-1.068l0.479-0.212l1.06-0.943l11.214-9.139c0,0,0.348-1.298-0.856-2.908c-1.201-1.613-2.125-2.324-2.624-1.95
			C36.074,36.05,25.496,44.341,25.496,44.341z"/>
		<path fill-rule="evenodd" clip-rule="evenodd" fill="#A67C52" d="M29.059,49.617l11.216-9.145c0,0-0.953,0.528-2.605-1.556
			c-2.04-2.582-0.457-3.772-0.954-3.398c-0.685,0.514-11.267,8.803-11.267,8.803S25.298,47.231,29.059,49.617z"/>
		<path fill-rule="evenodd" clip-rule="evenodd" fill="#E6E6E6" d="M40.334,40.467c0,0,0.347-1.297-0.856-2.907
			c-1.201-1.611-2.124-2.502-2.621-2.128c0,0-1.01,1.01,0.76,3.454c0.07,0.098,0.693,0.824,0.693,0.824
			C39.269,40.655,40.052,40.647,40.334,40.467z"/>
		<polygon fill="#736357" points="28.416,50.018 25.951,50.288 23.07,48.741 24.515,51.446 25.98,52.705 25.997,54.841 
			22.59,54.449 21.427,52.914 20.887,56.089 22.912,57.61 21.306,58.216 17.454,59.731 17.367,60.382 18.418,60.454 19.262,61.003 
			22.841,60.286 23.967,58.623 25.815,56.504 26.625,53.478 27.159,51.37 		"/>
	</g>
	<text transform="matrix(1 0 0 1 123.7261 22.2764)" fill="#FFFFFF" font-family="'FuturaStd-Heavy'" font-size="12">Meta de hoy</text>
	<polygon opacity="0.5" fill="#FCD792" points="112.75,4 115.078,11.166 122.613,11.166 116.517,15.596 118.845,22.762 
		112.75,18.332 106.654,22.762 108.982,15.596 102.886,11.166 110.421,11.166 	"/>
	<polygon opacity="0.5" fill="#FCD792" points="210.845,4 213.173,11.166 220.708,11.166 214.613,15.596 216.941,22.762 
		210.845,18.332 204.75,22.762 207.078,15.596 200.982,11.166 208.517,11.166 	"/>
</g>
</svg>
