<?xml version="1.0" encoding="utf-8"?>
<!-- Generator: Adobe Illustrator 15.1.0, SVG Export Plug-In . SVG Version: 6.00 Build 0)  -->
<!DOCTYPE svg PUBLIC "-//W3C//DTD SVG 1.1//EN" "http://www.w3.org/Graphics/SVG/1.1/DTD/svg11.dtd">
<svg version="1.1" id="Layer_1" xmlns="http://www.w3.org/2000/svg" xmlns:xlink="http://www.w3.org/1999/xlink" x="0px" y="0px"
	 width="324.667px" height="74px" viewBox="0 0 324.667 74" enable-background="new 0 0 324.667 74" xml:space="preserve">
<g>
	<g>
		<path fill="#FBB03B" d="M222.07,28.359c0,4.888-4,8.888-8.888,8.888H104.566c-4.888,0-8.888-4-8.888-8.888V11.684
			c0-4.888,4-8.888,8.888-8.888h108.616c4.888,0,8.888,4,8.888,8.888V28.359z"/>
	</g>
	<rect x="2.402" y="31.847" fill="#FBB03B" width="320" height="40"/>
	<g>
		<path fill-rule="evenodd" clip-rule="evenodd" fill="#E6E6E6" d="M24.38,46.137c0,0-3.062,1.782-3.518,3.309
			c-0.453,1.523-1.448,3.822-1.448,3.822l-0.09,1.619l-1.628,1.489c0,0-0.144,1.968-0.521,2.76
			c-0.654,1.379-1.174,2.609-1.041,2.798l1.219-0.072l0.613,0.508l0.779-0.587l1.262-0.305c0,0,0.47,0.053,0.646,0.107
			c0.18,0.056,0.88,0.104,1.057,0.102c0.099,0,0.723-0.632,0.91-0.81c0.061-0.058,0.138-0.009,0.138-0.009l0.093-0.461
			c0,0,1.75-1.86,1.646-2.081c-0.1-0.218,0.48-1.765,0.415-1.938c-0.065-0.175-0.105-0.955-0.105-0.955l0.251-0.412l-0.193-0.52
			l0.477-0.948l1.03-1.068l0.479-0.212l1.06-0.943l11.214-9.139c0,0,0.348-1.298-0.856-2.908c-1.201-1.613-2.125-2.324-2.624-1.95
			C34.958,37.846,24.38,46.137,24.38,46.137z"/>
		<path fill-rule="evenodd" clip-rule="evenodd" fill="#A67C52" d="M27.944,51.413l11.216-9.145c0,0-0.953,0.528-2.605-1.556
			c-2.04-2.582-0.457-3.772-0.954-3.398c-0.685,0.514-11.267,8.803-11.267,8.803S24.183,49.027,27.944,51.413z"/>
		<path fill-rule="evenodd" clip-rule="evenodd" fill="#E6E6E6" d="M39.219,42.263c0,0,0.347-1.297-0.856-2.907
			c-1.201-1.611-2.124-2.502-2.621-2.128c0,0-1.01,1.01,0.76,3.454c0.07,0.098,0.693,0.824,0.693,0.824
			C38.154,42.451,38.937,42.443,39.219,42.263z"/>
		<polygon fill="#736357" points="27.3,51.813 24.835,52.084 21.955,50.537 23.4,53.242 24.865,54.501 24.881,56.637 21.475,56.245 
			20.312,54.71 19.772,57.885 21.796,59.406 20.191,60.012 16.338,61.527 16.251,62.178 17.303,62.25 18.147,62.799 21.726,62.082 
			22.852,60.419 24.7,58.3 25.509,55.273 26.043,53.166 		"/>
	</g>
	<g>
		<path fill="#FFFFFF" d="M130.011,18.459h-0.024l-2.051,5.733h-0.611l-1.979-5.733h-0.023l-0.804,5.613h-1.775l1.523-9.283h1.247
			l2.23,5.96l2.135-5.96h1.271l1.355,9.283h-1.775L130.011,18.459z"/>
		<path fill="#FFFFFF" d="M135.054,16.564v1.991h2.806v1.535h-2.806v2.447h2.914v1.535h-4.678v-9.043h4.678v1.535H135.054z"/>
		<path fill="#FFFFFF" d="M142.084,24.072h-1.763v-7.508h-1.823v-1.535h5.409v1.535h-1.823V24.072z"/>
		<path fill="#FFFFFF" d="M145.445,22.166l-0.743,1.907h-1.859l3.526-9.283h1.367l3.431,9.283h-1.884l-0.695-1.907H145.445z
			 M146.968,17.44h-0.023l-0.996,3.286h2.147L146.968,17.44z"/>
		<path fill="#FFFFFF" d="M155.178,15.029h2.519c2.615,0,4.366,1.955,4.366,4.533c0,2.543-1.8,4.51-4.378,4.51h-2.507V15.029z
			 M156.942,22.537h0.287c2.171,0,3.011-1.199,3.011-2.986c0-1.967-1.008-2.986-3.011-2.986h-0.287V22.537z"/>
		<path fill="#FFFFFF" d="M164.694,16.564v1.991h2.806v1.535h-2.806v2.447h2.914v1.535h-4.678v-9.043h4.678v1.535H164.694z"/>
		<path fill="#FFFFFF" d="M177.279,18.591v-3.562h1.763v9.043h-1.763V20.03h-3.262v4.042h-1.764v-9.043h1.764v3.562H177.279z"/>
		<path fill="#FFFFFF" d="M184.383,24.312c-2.759,0-4.474-2.111-4.474-4.773c0-2.687,1.775-4.749,4.474-4.749
			s4.474,2.063,4.474,4.749C188.857,22.201,187.142,24.312,184.383,24.312z M184.383,16.528c-1.667,0-2.65,1.475-2.65,2.938
			c0,1.391,0.695,3.106,2.65,3.106s2.65-1.715,2.65-3.106C187.034,18.003,186.05,16.528,184.383,16.528z"/>
		<path fill="#FFFFFF" d="M188.886,15.029h2.051l1.583,3.142l1.727-3.142h2.063l-2.854,4.893v4.15h-1.764v-4.15L188.886,15.029z"/>
	</g>
	<polygon opacity="0.5" fill="#FCD792" points="111.634,5.796 113.962,12.962 121.498,12.962 115.402,17.392 117.73,24.558 
		111.634,20.128 105.539,24.558 107.867,17.392 101.771,12.962 109.306,12.962 	"/>
	<polygon opacity="0.5" fill="#FCD792" points="209.73,5.796 212.058,12.962 219.593,12.962 213.498,17.392 215.826,24.558 
		209.73,20.128 203.634,24.558 205.962,17.392 199.867,12.962 207.402,12.962 	"/>
</g>
</svg>
