<?xml version="1.0" encoding="utf-8"?>
<!-- Generator: Adobe Illustrator 15.1.0, SVG Export Plug-In . SVG Version: 6.00 Build 0)  -->
<!DOCTYPE svg PUBLIC "-//W3C//DTD SVG 1.1//EN" "http://www.w3.org/Graphics/SVG/1.1/DTD/svg11.dtd">
<svg version="1.1" id="Layer_1" xmlns="http://www.w3.org/2000/svg" xmlns:xlink="http://www.w3.org/1999/xlink" x="0px" y="0px"
	 width="70.67px" height="48.667px" viewBox="0 0 70.67 48.667" enable-background="new 0 0 70.67 48.667" xml:space="preserve">
<g>
	<rect x="2.004" y="1.667" fill="#F36E26" width="66" height="44"/>
	<g>
		<path fill="#FFFFFF" d="M45.716,24.432c-0.006-1.682-0.728-3.184-1.495-4.629c-1.004-1.891-2.662-3.268-4.414-4.416
			c-1.279-0.84-1.61-0.338-2.185,1.15c-0.187,0.484-0.477,0.889-0.591,1.397c-0.177,0.807-0.628,2.186-0.57,2.021
			c-0.357-0.229-0.895-0.534-1.155-0.785l0.003-0.024c-0.047-0.265,0.033-0.578,0.08-0.815c-0.067-0.309,0.116-0.591,0.037-0.806
			c-0.105-0.284,0.158-0.506-0.126-0.731c0.029-0.318,0.182-0.495,0-0.806c0.212-0.268-0.096-0.609,0.029-0.848
			c0.161-0.301-0.12-0.471-0.009-0.737c0.307-0.229,0.083-0.533,0.098-0.832c0.012-0.284,0.139-0.563-0.09-0.83
			c0.042-0.256,0.41-0.396,0.459-0.677c0.141-0.781-2.7-0.771-2.56,0.014c0.05,0.275,0.416,0.419,0.457,0.675
			c-0.229,0.267-0.1,0.547-0.088,0.831c0.014,0.299-0.208,0.602,0.098,0.83c0.109,0.267-0.345,0.514-0.009,0.739
			c-0.047,0.312-0.182,0.579,0.03,0.846c-0.182,0.312-0.03,0.489,0,0.809c-0.284,0.224-0.022,0.445-0.126,0.728
			c-0.079,0.215,0.104,0.499,0.037,0.807c0.045,0.239,0.128,0.549,0.079,0.816c-0.256,0.257-0.807,0.566-1.168,0.798
			c0.057,0.165-0.393-1.214-0.571-2.021c-0.112-0.509-0.404-0.913-0.591-1.397c-0.575-1.488-0.906-1.99-2.187-1.15
			c-1.751,1.148-3.408,2.525-4.411,4.416c-0.768,1.445-1.492,2.947-1.497,4.629c-0.006,2.394-0.112,4.796,0.111,7.182
			c0.108,1.154,0.858,2.445,2.166,2.289c4.097-0.495,5.717-2.036,6.658-3.01c1.339-1.383,0.955-7.35,0.718-8.695l1.198-0.059
			l0.366-0.055l0.366,0.055l1.199,0.059c-0.236,1.346-0.433,7.6,0.717,8.695c1.094,1.039,2.359,2.305,6.659,3.01
			c1.3,0.213,2.059-1.135,2.167-2.289C45.828,29.228,45.722,26.825,45.716,24.432z"/>
		<path fill="#D75123" d="M30.96,21.622l-0.789-0.476c-0.153-0.209-0.376-0.346-0.636-0.383l-1.586-0.956
			c-0.012-0.007-0.025-0.008-0.037-0.003c-0.012,0.003-0.018,0.013-0.021,0.024l-0.189,0.82c-0.003,0.015,0.005,0.032,0.022,0.04
			l0.976,0.378c-0.17,0.189-0.278,0.445-0.278,0.729c0,0.583,0.444,1.057,0.989,1.057c0.545,0,0.987-0.474,0.987-1.057
			c0-0.026-0.013-0.051-0.015-0.078l0.468,0.182c0.003,0.004,0.008,0.004,0.013,0.004c0.006,0,0.012-0.004,0.017-0.004
			c0.009-0.008,0.018-0.013,0.021-0.024l0.074-0.212C30.981,21.648,30.976,21.632,30.96,21.622z"/>
		<path fill="#D75123" d="M37.463,21.622l0.789-0.476c0.155-0.209,0.377-0.346,0.636-0.383l1.587-0.956
			c0.011-0.007,0.024-0.008,0.035-0.003c0.013,0.003,0.019,0.013,0.022,0.024l0.188,0.82c0.003,0.015-0.003,0.032-0.022,0.04
			l-0.975,0.378C39.893,21.257,40,21.513,40,21.797c0,0.583-0.443,1.057-0.988,1.057c-0.546,0-0.987-0.474-0.987-1.057
			c0-0.026,0.012-0.051,0.014-0.078L37.572,21.9c-0.004,0.004-0.01,0.004-0.014,0.004c-0.005,0-0.011-0.004-0.016-0.004
			c-0.01-0.008-0.017-0.013-0.021-0.024l-0.075-0.212C37.442,21.648,37.448,21.632,37.463,21.622z"/>
		<path fill="#FFFFFF" d="M27.969,32.935v2.703c0,0-1.373-0.843-1.638,0.421c-0.265,1.265,3.317,0.844,3.632,0l-0.356-4.636
			L27.969,32.935z"/>
		<path fill="#FFFFFF" d="M40.286,32.935v2.703c0,0,1.374-0.843,1.638,0.421c0.267,1.265-3.315,0.844-3.632,0l0.356-4.636
			L40.286,32.935z"/>
		<path fill="#FFFFFF" d="M44.4,21.328h1.346c0,0,0.812-2.373,2.446-0.525l1.265,0.087l-2.529-3.691c0,0-0.678,1.474-1.182,0.525
			s-1.244-2.951,0.812-2.634c2.055,0.315,4.9,6.743,4.9,6.743L44.4,22.854"/>
		<path fill="#FFFFFF" d="M24.274,21.328h-1.346c0,0-0.812-2.373-2.446-0.525l-1.265,0.087l2.529-3.691c0,0,0.678,1.474,1.182,0.525
			s1.245-2.951-0.812-2.634c-2.055,0.315-4.9,6.743-4.9,6.743l7.059,1.021"/>
	</g>
</g>
</svg>
