<?xml version="1.0" encoding="utf-8"?>
<!-- Generator: Adobe Illustrator 15.1.0, SVG Export Plug-In . SVG Version: 6.00 Build 0)  -->
<!DOCTYPE svg PUBLIC "-//W3C//DTD SVG 1.1//EN" "http://www.w3.org/Graphics/SVG/1.1/DTD/svg11.dtd">
<svg version="1.1" id="Layer_1" xmlns="http://www.w3.org/2000/svg" xmlns:xlink="http://www.w3.org/1999/xlink" x="0px" y="0px"
	 width="24.914px" height="24.906px" viewBox="0 0 24.914 24.906" enable-background="new 0 0 24.914 24.906" xml:space="preserve">
<g>
	<path opacity="0.6" fill="#F5F5F5" enable-background="new    " d="M21.89,5.188h-4.396V3H7.013v2.188H2.695L2.73,5.303
		L2.699,5.307c0.023,0.211,0.59,4.466,3.04,6.303c1.843,1.381,2.64,1.623,3.222,1.799c0.051,0.017,0.1,0.03,0.147,0.046
		c0.155,0.186,0.317,0.354,0.486,0.509c0.216,0.817,0.902,1.476,1.794,1.738v1.801l-0.008,0.003c0,0,0.029,2.173-1.725,2.384H9.253
		V22.5h5.864v-2.612h-0.492c-1.754-0.211-1.727-2.384-1.727-2.384l-0.008-0.003v-1.744c1.001-0.213,1.787-0.909,2.021-1.795
		c0.158-0.144,0.31-0.302,0.455-0.473c0.082-0.028,0.164-0.055,0.256-0.082c0.582-0.176,1.381-0.418,3.223-1.799
		c2.449-1.837,3.017-6.092,3.039-6.303l-0.03-0.004L21.89,5.188z M6.395,10.733c-1.423-1.067-2.12-3.26-2.417-4.544h3.049
		c0.061,2.386,0.464,4.286,1.113,5.701C7.712,11.66,7.16,11.307,6.395,10.733z M18.191,10.733c-0.828,0.618-1.406,0.982-1.847,1.213
		c0.663-1.421,1.075-3.341,1.135-5.757h3.128C20.31,7.475,19.613,9.666,18.191,10.733z"/>
</g>
</svg>
