<?xml version="1.0" encoding="utf-8"?>
<!-- Generator: Adobe Illustrator 15.1.0, SVG Export Plug-In . SVG Version: 6.00 Build 0)  -->
<!DOCTYPE svg PUBLIC "-//W3C//DTD SVG 1.1//EN" "http://www.w3.org/Graphics/SVG/1.1/DTD/svg11.dtd">
<svg version="1.1" id="Layer_1" xmlns="http://www.w3.org/2000/svg" xmlns:xlink="http://www.w3.org/1999/xlink" x="0px" y="0px"
	 width="327px" height="73px" viewBox="0 0 327 73" enable-background="new 0 0 327 73" xml:space="preserve">
<g>
	<g>
		<path fill="#ADC259" d="M237.413,26.563c0,4.889-4,8.888-8.89,8.888H101.237c-4.889,0-8.888-3.999-8.888-8.888V9.888
			c0-4.889,3.999-8.888,8.888-8.888h127.287c4.891,0,8.891,3.999,8.891,8.888L237.413,26.563L237.413,26.563z"/>
	</g>
	<rect x="3.517" y="30.051" fill="#ADC259" width="320" height="40"/>
	<g>
		<path fill="#E6E6E6" d="M39.358,44.341c0,0-3.062,1.782-3.518,3.31c-0.453,1.522-1.448,3.822-1.448,3.822l-0.09,1.618
			l-1.628,1.489c0,0-0.144,1.968-0.521,2.76c-0.654,1.379-1.174,2.609-1.041,2.799l1.219-0.072l0.613,0.51l0.779-0.59l1.262-0.305
			c0,0,0.47,0.053,0.646,0.107c0.18,0.057,0.88,0.104,1.057,0.102c0.099,0,0.723-0.632,0.91-0.81
			c0.061-0.058,0.138-0.009,0.138-0.009l0.093-0.461c0,0,1.75-1.86,1.646-2.082c-0.1-0.217,0.48-1.764,0.415-1.938
			c-0.065-0.174-0.105-0.955-0.105-0.955l0.251-0.411l-0.193-0.521l0.477-0.948l1.03-1.066l0.479-0.213l1.06-0.941l11.214-9.141
			c0,0,0.348-1.297-0.856-2.908c-1.201-1.611-2.125-2.322-2.624-1.948C49.937,36.05,39.358,44.341,39.358,44.341z"/>
		<path fill="#A67C52" d="M42.921,49.617l11.216-9.145c0,0-0.953,0.525-2.605-1.559c-2.04-2.582-0.457-3.772-0.954-3.398
			c-0.685,0.514-11.267,8.8-11.267,8.8S39.16,47.23,42.921,49.617z"/>
		<path fill="#E6E6E6" d="M54.196,40.467c0,0,0.347-1.297-0.856-2.906c-1.201-1.609-2.124-2.5-2.621-2.126c0,0-1.01,1.01,0.76,3.455
			c0.07,0.1,0.693,0.823,0.693,0.823C53.131,40.654,53.914,40.646,54.196,40.467z"/>
		<polygon fill="#736357" points="42.278,50.018 39.813,50.288 36.932,48.741 38.377,51.445 39.842,52.705 39.859,54.841 
			36.452,54.449 35.289,52.914 34.75,56.089 36.774,57.609 35.168,58.216 31.316,59.73 31.229,60.382 32.28,60.454 33.125,61.003 
			36.703,60.286 37.829,58.623 39.677,56.504 40.487,53.479 41.021,51.37 		"/>
	</g>
	<polygon opacity="0.5" fill="#FCD792" enable-background="new    " points="108.408,4 110.736,11.166 118.271,11.166 
		112.175,15.596 114.503,22.762 108.408,18.332 102.312,22.762 104.64,15.596 98.544,11.166 106.079,11.166 	"/>
	<polygon opacity="0.5" fill="#FCD792" enable-background="new    " points="223.846,4 226.173,11.166 233.708,11.166 
		227.613,15.596 229.941,22.762 223.846,18.332 217.75,22.762 220.078,15.596 213.982,11.166 221.518,11.166 	"/>
</g>
<g enable-background="new    ">
	<path fill="#FFFFFF" d="M125.084,22.276h-2.135l-2.195-3.646h-0.024v3.646h-1.763v-9.043h2.387c1.787,0,3.022,0.791,3.022,2.723
		c0,1.151-0.636,2.303-1.847,2.507L125.084,22.276z M120.731,17.396h0.228c0.971,0,1.655-0.288,1.655-1.392
		c0-1.115-0.708-1.331-1.643-1.331h-0.24V17.396z"/>
	<path fill="#FFFFFF" d="M127.427,14.769v1.991h2.807v1.535h-2.807v2.446h2.915v1.535h-4.678v-9.043h4.678v1.535H127.427z"/>
	<path fill="#FFFFFF" d="M135.777,15.225c-0.336-0.456-0.768-0.744-1.355-0.744c-0.563,0-1.103,0.432-1.103,1.02
		c0,1.523,3.586,0.888,3.586,3.922c0,1.812-1.127,3.095-2.975,3.095c-1.247,0-2.159-0.72-2.782-1.764l1.139-1.115
		c0.24,0.695,0.875,1.319,1.631,1.319c0.72,0,1.163-0.611,1.163-1.308c0-0.936-0.863-1.199-1.571-1.475
		c-1.164-0.479-2.015-1.067-2.015-2.471c0-1.499,1.116-2.711,2.639-2.711c0.804,0,1.919,0.396,2.471,1.008L135.777,15.225z"/>
	<path fill="#FFFFFF" d="M137.784,13.233h1.763v5.062c0,1.115,0.096,2.687,1.595,2.687c1.499,0,1.595-1.571,1.595-2.687v-5.062
		h1.763v5.409c0,2.207-0.936,3.874-3.358,3.874c-2.423,0-3.358-1.667-3.358-3.874V13.233z"/>
	<path fill="#FFFFFF" d="M152.504,16.663h-0.024l-2.051,5.733h-0.612l-1.979-5.733h-0.024l-0.804,5.613h-1.775l1.523-9.283h1.247
		l2.231,5.961l2.135-5.961h1.271l1.355,9.283h-1.775L152.504,16.663z"/>
	<path fill="#FFFFFF" d="M157.546,14.769v1.991h2.807v1.535h-2.807v2.446h2.915v1.535h-4.678v-9.043h4.678v1.535H157.546z"/>
	<path fill="#FFFFFF" d="M161.639,12.993h1.271l4.761,6.321h0.023v-6.081h1.764v9.223h-1.271l-4.761-6.32h-0.024v6.141h-1.763
		V12.993z"/>
	<path fill="#FFFFFF" d="M174.215,13.233h2.519c2.614,0,4.366,1.955,4.366,4.533c0,2.543-1.799,4.51-4.378,4.51h-2.507V13.233z
		 M175.979,20.741h0.287c2.171,0,3.011-1.199,3.011-2.986c0-1.967-1.008-2.986-3.011-2.986h-0.287V20.741z"/>
	<path fill="#FFFFFF" d="M183.73,22.276h-1.764v-9.043h1.764V22.276z"/>
	<path fill="#FFFFFF" d="M186.861,20.369l-0.743,1.907h-1.858l3.525-9.283h1.367l3.43,9.283h-1.883l-0.695-1.907H186.861z
		 M188.385,15.644h-0.023l-0.996,3.287h2.146L188.385,15.644z"/>
	<path fill="#FFFFFF" d="M199.244,22.276h-2.135l-2.195-3.646h-0.023v3.646h-1.764v-9.043h2.387c1.787,0,3.022,0.791,3.022,2.723
		c0,1.151-0.636,2.303-1.847,2.507L199.244,22.276z M194.891,17.396h0.228c0.972,0,1.655-0.288,1.655-1.392
		c0-1.115-0.708-1.331-1.644-1.331h-0.239V17.396z"/>
	<path fill="#FFFFFF" d="M201.586,22.276h-1.764v-9.043h1.764V22.276z"/>
	<path fill="#FFFFFF" d="M206.912,22.517c-2.758,0-4.473-2.111-4.473-4.773c0-2.687,1.774-4.75,4.473-4.75
		c2.699,0,4.475,2.063,4.475,4.75C211.387,20.405,209.671,22.517,206.912,22.517z M206.912,14.732c-1.666,0-2.65,1.476-2.65,2.938
		c0,1.392,0.695,3.106,2.65,3.106s2.65-1.715,2.65-3.106C209.562,16.208,208.58,14.732,206.912,14.732z"/>
</g>
</svg>
