<?xml version="1.0" encoding="utf-8"?>
<!-- Generator: Adobe Illustrator 15.1.0, SVG Export Plug-In . SVG Version: 6.00 Build 0)  -->
<!DOCTYPE svg PUBLIC "-//W3C//DTD SVG 1.1//EN" "http://www.w3.org/Graphics/SVG/1.1/DTD/svg11.dtd">
<svg version="1.1" id="Layer_1" xmlns="http://www.w3.org/2000/svg" xmlns:xlink="http://www.w3.org/1999/xlink" x="0px" y="0px"
	 width="89.045px" height="58.463px" viewBox="0 0 89.045 58.463" enable-background="new 0 0 89.045 58.463" xml:space="preserve">
<g>
	<path fill="#FFFFFF" d="M5.294,7.274c0-1.378,0.385-2.424,1.156-3.141c0.772-0.715,1.805-1.075,3.1-1.075
		c1.294,0,2.328,0.36,3.099,1.075c0.771,0.717,1.158,1.763,1.158,3.141l0,0c0,1.378-0.387,2.424-1.158,3.14
		c-0.771,0.716-1.805,1.075-3.099,1.075c-1.295,0-2.328-0.359-3.1-1.075C5.68,9.698,5.294,8.652,5.294,7.274L5.294,7.274z"/>
	<g>
		<path fill="#FFFFFF" d="M4.303,35.083c0-0.013-0.064-0.63-0.064-1.24v-8.926c-1.553-2.726-1.538-5.354-1-5.968
			c-0.061-0.003-4.022,2.106-3.098,11.406c0.384,3.858,2.65,6.712,5.374,7.922C4.772,37.466,4.349,36.388,4.303,35.083z"/>
	</g>
	<g>
		<path fill="#FFFFFF" d="M11.261,28.422c-2.485,1.927-5.903,3.442-5.903,6.624c0.141,4.006,4.363,3.924,5.304,3.85
			c3.68-0.293,7.271-3.59,7.764-8.541c0.925-9.3-3.037-11.409-3.097-11.406C16.103,19.834,15.795,24.907,11.261,28.422z"/>
	</g>
	<path fill="#FFFFFF" d="M47.355,12.623c0-2.398,0.634-4.201,1.9-5.413c1.267-1.213,3.113-1.818,5.538-1.818
		c2.258,0,3.814,0.289,4.669,0.867c0.853,0.578,1.281,1.364,1.281,2.356c0,1.047-0.304,1.803-0.91,2.271
		c-0.606,0.469-1.694,0.702-3.264,0.702c-0.634,0-0.95,0.332-0.95,0.992v1.653h2.148c1.763,0,2.645,0.825,2.645,2.479
		c0,1.652-0.882,2.478-2.645,2.478H55.62v12.934c0,1.433-0.351,2.5-1.053,3.202c-0.703,0.702-1.73,1.054-3.079,1.054
		c-1.35,0-2.376-0.352-3.079-1.054c-0.702-0.702-1.054-1.769-1.054-3.202V19.191h-1.569c-1.764,0-2.645-0.826-2.645-2.478
		c0-1.655,0.881-2.479,2.645-2.479h1.569V12.623z"/>
	<path fill="#FFFFFF" d="M82.602,29.521c0,0.524,0.042,1.282,0.124,2.273c0.082,0.717,0.125,1.24,0.125,1.57
		c0,0.993-0.386,1.743-1.159,2.253c-0.771,0.509-1.707,0.764-2.809,0.764c-1.378,0-2.397-0.304-3.059-0.908
		c-0.661-0.606-1.074-1.448-1.239-2.522c-0.772,1.186-1.839,2.053-3.204,2.604c-1.364,0.55-2.83,0.827-4.401,0.827
		c-2.479,0-4.44-0.544-5.887-1.633c-1.447-1.087-2.17-2.774-2.17-5.062c0-0.936,0.179-1.782,0.536-2.541
		c0.358-0.756,0.958-1.439,1.798-2.044c0.838-0.606,1.97-1.096,3.387-1.468c1.421-0.372,3.163-0.626,5.229-0.765
		c1.653-0.108,2.809-0.315,3.472-0.619c0.661-0.303,0.99-0.798,0.99-1.488c0-1.405-1.143-2.107-3.428-2.107
		c-0.854,0-1.579,0.132-2.17,0.393c-0.593,0.262-1.275,0.668-2.045,1.22c-0.634,0.439-1.177,0.771-1.632,0.991
		c-0.455,0.221-0.985,0.331-1.592,0.331c-1.791,0-2.685-0.882-2.685-2.644c0-1.57,0.977-2.837,2.935-3.801
		c1.954-0.964,4.434-1.447,7.436-1.447c1.294,0,2.589,0.09,3.884,0.269s2.521,0.502,3.678,0.971c1.157,0.469,2.094,1.123,2.81,1.964
		c0.716,0.839,1.074,1.893,1.074,3.16V29.521z M74.337,26.133c-0.329,0.358-0.763,0.614-1.3,0.764
		c-0.537,0.152-1.234,0.297-2.088,0.435c-1.047,0.167-1.75,0.317-2.107,0.455c-0.771,0.304-1.157,0.896-1.157,1.777
		c0,0.605,0.255,1.109,0.765,1.508c0.51,0.399,1.123,0.6,1.839,0.6c1.182,0,2.154-0.31,2.912-0.931
		c0.756-0.619,1.136-1.342,1.136-2.167V26.133z"/>
	<g>
		<path fill="#FFFFFF" d="M42.688,29.521c0,0.524,0.041,1.282,0.124,2.273c0.082,0.717,0.124,1.24,0.124,1.57
			c0,0.993-0.386,1.743-1.156,2.253c-0.772,0.509-1.709,0.764-2.811,0.764c-1.376,0-2.396-0.304-3.057-0.908
			c-0.663-0.606-1.075-1.448-1.24-2.522c-0.772,1.186-1.838,2.053-3.203,2.604s-2.831,0.827-4.4,0.827
			c-2.48,0-4.442-0.544-5.888-1.633c-1.448-1.087-2.169-2.774-2.169-5.062c0-0.936,0.178-1.782,0.537-2.541
			c0.359-0.756,0.956-1.439,1.797-2.044c0.84-0.606,1.969-1.096,3.389-1.468c1.417-0.372,3.16-0.626,5.228-0.765
			c1.651-0.108,2.808-0.315,3.47-0.619c0.661-0.303,0.992-0.798,0.992-1.488c0-1.405-1.144-2.107-3.429-2.107
			c-0.855,0-1.578,0.132-2.171,0.393c-0.592,0.262-1.273,0.668-2.043,1.22c-0.635,0.439-1.178,0.771-1.632,0.991
			c-0.456,0.221-0.987,0.331-1.592,0.331c-1.792,0-2.686-0.882-2.686-2.644c0-1.57,0.977-2.837,2.933-3.801
			c1.955-0.964,4.435-1.447,7.438-1.447c1.294,0,2.589,0.09,3.884,0.269c1.294,0.179,2.52,0.502,3.677,0.971
			c1.156,0.469,2.093,1.123,2.81,1.964c0.716,0.839,1.074,1.893,1.074,3.16V29.521z M34.424,26.133
			c-0.331,0.358-0.765,0.614-1.302,0.764c-0.537,0.152-1.234,0.297-2.088,0.435c-1.046,0.167-1.749,0.317-2.106,0.455
			c-0.771,0.304-1.158,0.896-1.158,1.777c0,0.605,0.255,1.109,0.765,1.508c0.508,0.399,1.121,0.6,1.839,0.6
			c1.183,0,2.154-0.31,2.912-0.931c0.757-0.619,1.137-1.342,1.137-2.167V26.133z"/>
	</g>
	<g>
		<path fill="#FFFFFF" d="M9.032,28.72c0.56-0.385,1.09-0.749,1.582-1.131c1.673-1.297,2.635-2.752,3.192-3.964l-0.001-5.713
			c0-1.378-0.387-2.424-1.158-3.142c-0.771-0.714-1.805-1.074-3.099-1.073c-1.295,0-2.327,0.36-3.098,1.075
			c-0.771,0.718-1.157,1.764-1.156,3.142l0.003,14.067C6.231,30.647,7.685,29.646,9.032,28.72z"/>
	</g>
	<g>
		<path fill="#FFFFFF" d="M6.576,46.379v-5.062h0.835v5.062H6.576z"/>
		<path fill="#FFFFFF" d="M10.943,46.379h-0.797v-1.874c0-0.375-0.015-0.625-0.045-0.75c-0.029-0.125-0.086-0.22-0.167-0.287
			c-0.082-0.067-0.174-0.101-0.277-0.101c-0.134,0-0.255,0.043-0.362,0.129c-0.109,0.086-0.185,0.206-0.229,0.358
			C9.021,44.008,9,44.295,9,44.717v1.663H8.202v-3.667H8.94v0.536c0.132-0.208,0.28-0.363,0.444-0.466s0.346-0.155,0.547-0.155
			c0.233,0,0.429,0.061,0.589,0.181c0.16,0.121,0.271,0.276,0.331,0.467c0.062,0.19,0.092,0.465,0.092,0.825V46.379z"/>
		<path fill="#FFFFFF" d="M11.471,45.336l0.798-0.148c0.069,0.384,0.283,0.577,0.642,0.577c0.191,0,0.334-0.037,0.428-0.11
			c0.095-0.074,0.142-0.17,0.142-0.287c0-0.081-0.021-0.145-0.062-0.191c-0.044-0.045-0.13-0.086-0.26-0.121
			c-0.653-0.173-1.068-0.339-1.246-0.496c-0.221-0.196-0.331-0.465-0.331-0.807s0.108-0.615,0.324-0.82
			c0.217-0.205,0.531-0.308,0.943-0.308c0.393,0,0.692,0.076,0.897,0.229c0.205,0.153,0.349,0.4,0.432,0.741l-0.749,0.169
			c-0.067-0.295-0.256-0.442-0.567-0.442c-0.195,0-0.334,0.028-0.418,0.085c-0.083,0.057-0.124,0.13-0.124,0.22
			c0,0.081,0.038,0.147,0.114,0.201c0.076,0.055,0.312,0.139,0.708,0.251c0.444,0.125,0.746,0.277,0.905,0.455
			c0.157,0.177,0.235,0.414,0.235,0.708c0,0.354-0.121,0.647-0.364,0.877c-0.243,0.23-0.579,0.346-1.007,0.346
			c-0.389,0-0.707-0.096-0.953-0.288C11.712,45.985,11.55,45.705,11.471,45.336z"/>
		<path fill="#FFFFFF" d="M16.351,42.712v0.773h-0.542v1.48c0,0.321,0.008,0.506,0.024,0.557c0.032,0.092,0.098,0.138,0.197,0.138
			c0.073,0,0.18-0.031,0.317-0.093l0.069,0.752c-0.184,0.097-0.392,0.145-0.625,0.145c-0.203,0-0.365-0.048-0.487-0.145
			c-0.122-0.097-0.204-0.236-0.246-0.418c-0.032-0.134-0.048-0.406-0.048-0.816v-1.601h-0.367v-0.773h0.367v-0.729l0.797-0.566
			v1.294H16.351z"/>
		<path fill="#FFFFFF" d="M16.906,42.215v-0.897h0.798v0.897H16.906z M16.906,46.379v-3.667h0.798v3.667H16.906z"/>
		<path fill="#FFFFFF" d="M19.894,42.712v0.773h-0.542v1.48c0,0.321,0.008,0.506,0.024,0.557c0.032,0.092,0.098,0.138,0.197,0.138
			c0.074,0,0.18-0.031,0.318-0.093l0.069,0.752c-0.184,0.097-0.392,0.145-0.625,0.145c-0.203,0-0.365-0.048-0.487-0.145
			c-0.122-0.097-0.204-0.236-0.245-0.418c-0.032-0.134-0.048-0.406-0.048-0.816v-1.601h-0.367v-0.773h0.367v-0.729l0.797-0.566
			v1.294H19.894z"/>
		<path fill="#FFFFFF" d="M22.421,46.379v-0.549c-0.11,0.199-0.255,0.354-0.434,0.467c-0.18,0.112-0.367,0.168-0.562,0.168
			c-0.198,0-0.375-0.052-0.531-0.155c-0.156-0.104-0.272-0.251-0.35-0.442s-0.115-0.469-0.115-0.833v-2.323h0.797v1.685
			c0,0.481,0.012,0.787,0.036,0.917c0.024,0.13,0.078,0.231,0.16,0.302c0.083,0.072,0.183,0.107,0.299,0.107
			c0.133,0,0.256-0.047,0.368-0.14c0.113-0.094,0.187-0.213,0.223-0.359c0.036-0.146,0.053-0.468,0.053-0.966v-1.547h0.798v3.667
			H22.421z"/>
		<path fill="#FFFFFF" d="M25.366,42.712v0.773h-0.542v1.48c0,0.321,0.008,0.506,0.024,0.557c0.033,0.092,0.098,0.138,0.197,0.138
			c0.073,0,0.18-0.031,0.317-0.093l0.069,0.752c-0.184,0.097-0.393,0.145-0.625,0.145c-0.202,0-0.365-0.048-0.487-0.145
			c-0.122-0.097-0.204-0.236-0.245-0.418c-0.032-0.134-0.048-0.406-0.048-0.816v-1.601h-0.366v-0.773h0.366v-0.729l0.797-0.566
			v1.294H25.366z"/>
		<path fill="#FFFFFF" d="M25.735,44.494c0-0.359,0.071-0.687,0.214-0.982c0.143-0.295,0.33-0.517,0.56-0.665
			c0.23-0.148,0.489-0.221,0.777-0.221c0.483,0,0.863,0.189,1.139,0.569c0.277,0.379,0.415,0.823,0.415,1.33
			c0,0.378-0.072,0.719-0.216,1.024c-0.144,0.305-0.333,0.533-0.566,0.687c-0.233,0.153-0.49,0.23-0.769,0.23
			c-0.446,0-0.817-0.17-1.111-0.512C25.883,45.612,25.735,45.125,25.735,44.494z M26.55,44.545c0,0.372,0.073,0.653,0.218,0.843
			c0.146,0.191,0.321,0.286,0.526,0.286c0.201,0,0.373-0.096,0.516-0.287c0.143-0.192,0.215-0.475,0.215-0.849
			c0-0.365-0.073-0.643-0.219-0.834c-0.145-0.192-0.319-0.288-0.522-0.288c-0.201,0-0.374,0.096-0.518,0.288
			S26.55,44.176,26.55,44.545z"/>
		<path fill="#FFFFFF" d="M30.798,45.336l0.798-0.148c0.069,0.384,0.283,0.577,0.642,0.577c0.191,0,0.334-0.037,0.429-0.11
			c0.094-0.074,0.141-0.17,0.141-0.287c0-0.081-0.021-0.145-0.062-0.191c-0.043-0.045-0.13-0.086-0.26-0.121
			c-0.652-0.173-1.068-0.339-1.245-0.496c-0.221-0.196-0.332-0.465-0.332-0.807s0.108-0.615,0.325-0.82
			c0.217-0.205,0.53-0.308,0.943-0.308c0.393,0,0.692,0.076,0.897,0.229c0.205,0.153,0.349,0.4,0.432,0.741l-0.75,0.169
			c-0.067-0.295-0.256-0.442-0.566-0.442c-0.196,0-0.335,0.028-0.417,0.085c-0.083,0.057-0.125,0.13-0.125,0.22
			c0,0.081,0.038,0.147,0.114,0.201c0.077,0.055,0.312,0.139,0.708,0.251c0.445,0.125,0.746,0.277,0.905,0.455
			c0.157,0.177,0.235,0.414,0.235,0.708c0,0.354-0.122,0.647-0.365,0.877c-0.243,0.23-0.578,0.346-1.007,0.346
			c-0.389,0-0.707-0.096-0.953-0.288C31.038,45.985,30.876,45.705,30.798,45.336z"/>
		<path fill="#FFFFFF" d="M34.117,44.494c0-0.359,0.07-0.687,0.213-0.982c0.143-0.295,0.33-0.517,0.56-0.665
			s0.489-0.221,0.777-0.221c0.483,0,0.863,0.189,1.14,0.569c0.276,0.379,0.414,0.823,0.414,1.33c0,0.378-0.072,0.719-0.215,1.024
			c-0.145,0.305-0.333,0.533-0.567,0.687c-0.233,0.153-0.49,0.23-0.768,0.23c-0.447,0-0.817-0.17-1.112-0.512
			C34.263,45.612,34.117,45.125,34.117,44.494z M34.931,44.545c0,0.372,0.072,0.653,0.218,0.843
			c0.146,0.191,0.321,0.286,0.526,0.286c0.201,0,0.373-0.096,0.516-0.287c0.143-0.192,0.215-0.475,0.215-0.849
			c0-0.365-0.073-0.643-0.218-0.834c-0.146-0.192-0.319-0.288-0.523-0.288c-0.2,0-0.373,0.096-0.517,0.288
			C35.003,43.896,34.931,44.176,34.931,44.545z"/>
		<path fill="#FFFFFF" d="M37.808,46.379v-5.062h0.797v1.819c0.123-0.17,0.256-0.298,0.402-0.383
			c0.146-0.085,0.303-0.127,0.471-0.127c0.354,0,0.653,0.16,0.897,0.48c0.245,0.321,0.367,0.793,0.367,1.418
			c0,0.623-0.125,1.102-0.376,1.438c-0.25,0.335-0.544,0.503-0.883,0.503c-0.172,0-0.342-0.053-0.51-0.161
			c-0.167-0.106-0.311-0.262-0.427-0.464v0.539H37.808z M38.598,44.466c0,0.316,0.03,0.557,0.089,0.724
			c0.06,0.166,0.146,0.292,0.256,0.379c0.111,0.087,0.227,0.13,0.349,0.13c0.175,0,0.324-0.092,0.449-0.275
			c0.124-0.184,0.186-0.474,0.186-0.871c0-0.418-0.062-0.72-0.188-0.906c-0.125-0.186-0.285-0.279-0.478-0.279
			c-0.185,0-0.341,0.09-0.47,0.27C38.662,43.818,38.598,44.094,38.598,44.466z"/>
		<path fill="#FFFFFF" d="M42.151,46.379h-0.797v-3.667h0.739v0.521c0.127-0.244,0.24-0.406,0.341-0.487
			c0.1-0.081,0.215-0.121,0.347-0.121c0.182,0,0.355,0.061,0.521,0.183l-0.249,0.846c-0.131-0.106-0.256-0.159-0.373-0.159
			c-0.111,0-0.208,0.041-0.292,0.123s-0.144,0.23-0.181,0.444s-0.056,0.608-0.056,1.182V46.379z"/>
		<path fill="#FFFFFF" d="M45.39,45.216l0.791,0.162c-0.105,0.368-0.271,0.642-0.494,0.82c-0.224,0.178-0.496,0.267-0.816,0.267
			c-0.445,0-0.788-0.148-1.03-0.446c-0.286-0.346-0.429-0.83-0.429-1.453c0-0.614,0.144-1.105,0.431-1.474
			c0.244-0.312,0.559-0.467,0.946-0.467c0.43,0,0.768,0.159,1.012,0.477c0.281,0.364,0.421,0.902,0.421,1.612l-0.003,0.111h-1.993
			c0.004,0.291,0.07,0.516,0.196,0.676c0.126,0.159,0.278,0.239,0.456,0.239C45.134,45.741,45.304,45.565,45.39,45.216z
			 M45.432,44.231c-0.007-0.287-0.068-0.502-0.183-0.646c-0.115-0.145-0.253-0.217-0.411-0.217c-0.169,0-0.311,0.075-0.425,0.225
			c-0.118,0.153-0.175,0.366-0.173,0.638H45.432z"/>
		<path fill="#FFFFFF" d="M52.02,46.379h-0.908l-0.364-1.146h-1.662l-0.343,1.146h-0.891l1.616-5.062h0.888L52.02,46.379z
			 M50.478,44.376l-0.573-1.878l-0.562,1.878H50.478z"/>
		<path fill="#FFFFFF" d="M52.455,46.379v-5.062h0.797v5.062H52.455z"/>
		<path fill="#FFFFFF" d="M56.691,43.793l-0.784,0.172c-0.058-0.384-0.239-0.577-0.545-0.577c-0.197,0-0.355,0.083-0.476,0.25
			c-0.121,0.167-0.181,0.447-0.181,0.841c0,0.437,0.06,0.745,0.18,0.925s0.281,0.27,0.481,0.27c0.15,0,0.273-0.051,0.371-0.153
			c0.097-0.103,0.167-0.284,0.208-0.544l0.784,0.162c-0.161,0.884-0.625,1.326-1.392,1.326c-0.49,0-0.854-0.187-1.091-0.56
			c-0.237-0.374-0.355-0.824-0.355-1.349c0-0.63,0.134-1.109,0.403-1.438s0.621-0.493,1.056-0.493c0.353,0,0.64,0.093,0.863,0.279
			C56.435,43.092,56.594,43.388,56.691,43.793z"/>
		<path fill="#FFFFFF" d="M57.106,44.494c0-0.359,0.071-0.687,0.213-0.982c0.144-0.295,0.33-0.517,0.561-0.665
			c0.23-0.148,0.489-0.221,0.776-0.221c0.483,0,0.863,0.189,1.14,0.569s0.414,0.823,0.414,1.33c0,0.378-0.072,0.719-0.215,1.024
			c-0.144,0.305-0.333,0.533-0.567,0.687c-0.233,0.153-0.49,0.23-0.768,0.23c-0.447,0-0.817-0.17-1.112-0.512
			C57.253,45.612,57.106,45.125,57.106,44.494z M57.921,44.545c0,0.372,0.073,0.653,0.218,0.843
			c0.146,0.191,0.321,0.286,0.526,0.286c0.201,0,0.372-0.096,0.516-0.287c0.143-0.192,0.215-0.475,0.215-0.849
			c0-0.365-0.073-0.643-0.219-0.834c-0.145-0.192-0.319-0.288-0.522-0.288c-0.201,0-0.374,0.096-0.518,0.288
			C57.993,43.896,57.921,44.176,57.921,44.545z"/>
		<path fill="#FFFFFF" d="M61.629,41.317v1.857c0.126-0.184,0.266-0.322,0.419-0.413c0.153-0.091,0.319-0.136,0.499-0.136
			c0.24,0,0.44,0.063,0.602,0.19c0.161,0.126,0.276,0.306,0.345,0.539c0.05,0.17,0.076,0.461,0.076,0.871v2.153h-0.798V44.44
			c0-0.45-0.029-0.731-0.086-0.843c-0.08-0.152-0.216-0.229-0.409-0.229c-0.204,0-0.363,0.083-0.477,0.247
			c-0.114,0.165-0.17,0.474-0.17,0.925v1.839h-0.798v-5.062H61.629z"/>
		<path fill="#FFFFFF" d="M64.191,44.494c0-0.359,0.071-0.687,0.214-0.982c0.143-0.295,0.329-0.517,0.56-0.665
			c0.23-0.148,0.489-0.221,0.777-0.221c0.484,0,0.863,0.189,1.14,0.569s0.415,0.823,0.415,1.33c0,0.378-0.072,0.719-0.216,1.024
			c-0.144,0.305-0.333,0.533-0.566,0.687s-0.49,0.23-0.769,0.23c-0.446,0-0.816-0.17-1.111-0.512
			C64.338,45.612,64.191,45.125,64.191,44.494z M65.006,44.545c0,0.372,0.072,0.653,0.218,0.843
			c0.146,0.191,0.321,0.286,0.526,0.286c0.201,0,0.373-0.096,0.517-0.287c0.143-0.192,0.214-0.475,0.214-0.849
			c0-0.365-0.073-0.643-0.218-0.834s-0.32-0.288-0.522-0.288c-0.201,0-0.374,0.096-0.518,0.288S65.006,44.176,65.006,44.545z"/>
		<path fill="#FFFFFF" d="M67.92,46.379v-5.062h0.798v5.062H67.92z"/>
		<path fill="#FFFFFF" d="M69.533,42.215v-0.897h0.797v0.897H69.533z M69.533,46.379v-3.667h0.797v3.667H69.533z"/>
		<path fill="#FFFFFF" d="M70.866,45.336l0.797-0.148c0.069,0.384,0.283,0.577,0.642,0.577c0.191,0,0.333-0.037,0.428-0.11
			c0.095-0.074,0.142-0.17,0.142-0.287c0-0.081-0.021-0.145-0.062-0.191c-0.044-0.045-0.131-0.086-0.26-0.121
			c-0.653-0.173-1.068-0.339-1.245-0.496c-0.222-0.196-0.332-0.465-0.332-0.807s0.108-0.615,0.325-0.82
			c0.216-0.205,0.53-0.308,0.943-0.308c0.393,0,0.692,0.076,0.897,0.229c0.205,0.153,0.349,0.4,0.431,0.741l-0.749,0.169
			c-0.067-0.295-0.256-0.442-0.566-0.442c-0.196,0-0.335,0.028-0.418,0.085c-0.083,0.057-0.125,0.13-0.125,0.22
			c0,0.081,0.038,0.147,0.114,0.201c0.076,0.055,0.312,0.139,0.707,0.251c0.444,0.125,0.746,0.277,0.905,0.455
			c0.157,0.177,0.235,0.414,0.235,0.708c0,0.354-0.122,0.647-0.364,0.877c-0.243,0.23-0.579,0.346-1.007,0.346
			c-0.389,0-0.707-0.096-0.953-0.288C71.106,45.985,70.944,45.705,70.866,45.336z"/>
		<path fill="#FFFFFF" d="M74.309,42.712h0.732v0.501c0.131-0.196,0.275-0.342,0.432-0.44c0.157-0.098,0.326-0.146,0.508-0.146
			c0.193,0,0.361,0.048,0.502,0.145c0.142,0.097,0.258,0.243,0.347,0.438c0.133-0.196,0.277-0.342,0.43-0.438
			c0.153-0.097,0.315-0.145,0.488-0.145c0.205,0,0.382,0.049,0.53,0.146c0.148,0.098,0.261,0.238,0.338,0.42
			c0.077,0.183,0.115,0.462,0.115,0.84v2.347h-0.798v-2.099c0-0.366-0.032-0.61-0.097-0.731c-0.064-0.121-0.172-0.182-0.324-0.182
			c-0.178,0-0.32,0.084-0.428,0.254c-0.108,0.169-0.163,0.5-0.163,0.994v1.763h-0.798v-2.012c0-0.399-0.021-0.656-0.065-0.771
			c-0.058-0.152-0.174-0.229-0.35-0.229c-0.117,0-0.225,0.039-0.324,0.118c-0.1,0.078-0.171,0.193-0.215,0.344
			c-0.043,0.151-0.065,0.406-0.065,0.766v1.784h-0.797V42.712z"/>
		<path fill="#FFFFFF" d="M79.34,44.494c0-0.359,0.071-0.687,0.213-0.982c0.143-0.295,0.33-0.517,0.56-0.665
			s0.489-0.221,0.777-0.221c0.483,0,0.863,0.189,1.14,0.569s0.414,0.823,0.414,1.33c0,0.378-0.072,0.719-0.215,1.024
			c-0.144,0.305-0.333,0.533-0.566,0.687c-0.234,0.153-0.49,0.23-0.769,0.23c-0.446,0-0.816-0.17-1.111-0.512
			C79.487,45.612,79.34,45.125,79.34,44.494z M80.154,44.545c0,0.372,0.072,0.653,0.218,0.843c0.146,0.191,0.321,0.286,0.526,0.286
			c0.201,0,0.373-0.096,0.517-0.287c0.143-0.192,0.214-0.475,0.214-0.849c0-0.365-0.073-0.643-0.218-0.834
			c-0.146-0.192-0.319-0.288-0.522-0.288c-0.201,0-0.374,0.096-0.518,0.288S80.154,44.176,80.154,44.545z"/>
		<path fill="#FFFFFF" d="M18.229,50.2h0.85l0.716,2.605l0.703-2.605h0.826l-1.061,3.529l-0.205,0.687
			c-0.089,0.258-0.179,0.447-0.268,0.567c-0.088,0.119-0.202,0.212-0.339,0.276c-0.137,0.064-0.306,0.097-0.506,0.097
			c-0.155,0-0.306-0.02-0.453-0.059l-0.069-0.76c0.125,0.03,0.236,0.045,0.335,0.045c0.152,0,0.276-0.05,0.374-0.151
			c0.098-0.101,0.178-0.285,0.241-0.551L18.229,50.2z"/>
		<path fill="#FFFFFF" d="M23.457,53.867v-5.062h2.846v0.856h-2.01v1.198h1.74v0.856h-1.74v2.151H23.457z"/>
		<path fill="#FFFFFF" d="M27.583,51.315l-0.722-0.159c0.087-0.371,0.232-0.637,0.433-0.799c0.202-0.163,0.491-0.244,0.869-0.244
			c0.336,0,0.593,0.047,0.77,0.142c0.177,0.094,0.304,0.223,0.38,0.385c0.076,0.163,0.114,0.458,0.114,0.886l-0.007,1.134
			c0,0.318,0.013,0.555,0.038,0.71c0.025,0.155,0.073,0.321,0.142,0.496h-0.787l-0.103-0.401c-0.136,0.161-0.281,0.283-0.437,0.364
			c-0.155,0.082-0.32,0.123-0.496,0.123c-0.292,0-0.531-0.099-0.719-0.295c-0.186-0.197-0.279-0.459-0.279-0.787
			c0-0.208,0.038-0.388,0.114-0.543c0.076-0.154,0.183-0.277,0.321-0.37c0.138-0.092,0.359-0.174,0.663-0.246
			c0.368-0.085,0.625-0.165,0.77-0.238c0-0.204-0.014-0.337-0.043-0.401c-0.029-0.063-0.082-0.116-0.159-0.156
			c-0.077-0.04-0.186-0.061-0.326-0.061c-0.142,0-0.255,0.032-0.336,0.097C27.7,51.017,27.634,51.138,27.583,51.315z M28.647,52.106
			c-0.102,0.042-0.259,0.09-0.473,0.146c-0.246,0.064-0.407,0.136-0.483,0.214s-0.113,0.18-0.113,0.305
			c0,0.141,0.042,0.259,0.125,0.354c0.084,0.096,0.189,0.144,0.316,0.144c0.112,0,0.224-0.039,0.334-0.116
			c0.11-0.077,0.187-0.169,0.229-0.275c0.042-0.106,0.064-0.299,0.064-0.578V52.106z"/>
		<path fill="#FFFFFF" d="M30.978,53.867H30.18V50.2h0.739v0.521c0.127-0.244,0.24-0.406,0.34-0.487s0.216-0.121,0.347-0.121
			c0.182,0,0.355,0.061,0.521,0.183l-0.249,0.846c-0.131-0.106-0.256-0.159-0.373-0.159c-0.11,0-0.208,0.041-0.292,0.123
			c-0.084,0.082-0.144,0.229-0.181,0.444c-0.037,0.215-0.055,0.609-0.055,1.183V53.867z"/>
		<path fill="#FFFFFF" d="M32.407,50.2h0.732v0.501c0.131-0.196,0.275-0.343,0.432-0.44s0.326-0.147,0.508-0.147
			c0.193,0,0.36,0.048,0.502,0.145c0.142,0.097,0.258,0.243,0.347,0.438c0.134-0.195,0.277-0.341,0.431-0.438
			c0.153-0.097,0.315-0.145,0.488-0.145c0.205,0,0.381,0.049,0.53,0.147c0.149,0.098,0.261,0.238,0.339,0.42
			c0.077,0.182,0.116,0.462,0.116,0.84v2.347h-0.798v-2.099c0-0.366-0.032-0.61-0.097-0.731c-0.064-0.122-0.172-0.182-0.325-0.182
			c-0.177,0-0.32,0.084-0.428,0.254c-0.109,0.169-0.163,0.501-0.163,0.994v1.764h-0.798v-2.012c0-0.399-0.022-0.656-0.065-0.771
			c-0.058-0.152-0.174-0.228-0.349-0.228c-0.117,0-0.225,0.039-0.324,0.118c-0.099,0.078-0.171,0.193-0.215,0.344
			c-0.043,0.151-0.065,0.406-0.065,0.766v1.784h-0.797V50.2z"/>
		<path fill="#FFFFFF" d="M38.218,51.315l-0.722-0.159c0.088-0.371,0.232-0.637,0.434-0.799c0.202-0.163,0.491-0.244,0.869-0.244
			c0.336,0,0.593,0.047,0.77,0.142c0.177,0.094,0.304,0.223,0.38,0.385c0.076,0.163,0.114,0.458,0.114,0.886l-0.008,1.134
			c0,0.318,0.013,0.555,0.039,0.71c0.025,0.155,0.072,0.321,0.141,0.496h-0.788l-0.103-0.401c-0.137,0.161-0.282,0.283-0.438,0.364
			c-0.155,0.082-0.32,0.123-0.496,0.123c-0.292,0-0.531-0.099-0.718-0.295c-0.186-0.197-0.279-0.459-0.279-0.787
			c0-0.208,0.039-0.388,0.114-0.543c0.076-0.154,0.183-0.277,0.321-0.37s0.359-0.174,0.663-0.246
			c0.368-0.085,0.625-0.165,0.77-0.238c0-0.204-0.015-0.337-0.043-0.401c-0.029-0.063-0.082-0.116-0.159-0.156
			c-0.077-0.04-0.186-0.061-0.326-0.061c-0.143,0-0.255,0.032-0.337,0.097S38.269,51.138,38.218,51.315z M39.282,52.106
			c-0.101,0.042-0.259,0.09-0.473,0.146c-0.246,0.064-0.407,0.136-0.483,0.214c-0.076,0.079-0.114,0.18-0.114,0.305
			c0,0.141,0.042,0.259,0.126,0.354s0.189,0.144,0.316,0.144c0.113,0,0.225-0.039,0.334-0.116c0.111-0.077,0.188-0.169,0.229-0.275
			c0.043-0.106,0.064-0.299,0.064-0.578V52.106z"/>
		<path fill="#FFFFFF" d="M43.473,51.281l-0.783,0.172c-0.058-0.384-0.24-0.577-0.545-0.577c-0.197,0-0.355,0.083-0.476,0.25
			c-0.121,0.166-0.181,0.446-0.181,0.841c0,0.437,0.06,0.745,0.18,0.925c0.12,0.181,0.281,0.271,0.481,0.271
			c0.15,0,0.273-0.051,0.371-0.154s0.167-0.284,0.208-0.544l0.784,0.162c-0.162,0.884-0.625,1.326-1.392,1.326
			c-0.49,0-0.854-0.187-1.091-0.56c-0.237-0.374-0.355-0.824-0.355-1.35c0-0.629,0.134-1.108,0.403-1.437
			c0.269-0.329,0.62-0.493,1.056-0.493c0.353,0,0.641,0.093,0.863,0.28C43.217,50.58,43.376,50.875,43.473,51.281z"/>
		<path fill="#FFFFFF" d="M43.889,51.981c0-0.36,0.071-0.688,0.213-0.982c0.144-0.295,0.33-0.517,0.56-0.664
			c0.23-0.148,0.489-0.222,0.776-0.222c0.483,0,0.863,0.19,1.14,0.569c0.276,0.379,0.414,0.822,0.414,1.33
			c0,0.378-0.072,0.719-0.215,1.024c-0.144,0.304-0.333,0.533-0.566,0.687c-0.233,0.153-0.49,0.23-0.769,0.23
			c-0.446,0-0.816-0.17-1.111-0.512C44.036,53.1,43.889,52.613,43.889,51.981z M44.704,52.033c0,0.372,0.072,0.653,0.217,0.843
			c0.146,0.19,0.321,0.286,0.526,0.286c0.201,0,0.373-0.096,0.516-0.288c0.144-0.192,0.215-0.475,0.215-0.849
			c0-0.365-0.073-0.643-0.218-0.834c-0.146-0.192-0.319-0.288-0.522-0.288c-0.2,0-0.374,0.096-0.517,0.288
			C44.775,51.383,44.704,51.664,44.704,52.033z"/>
		<path fill="#FFFFFF" d="M50.373,53.867h-0.739v-0.539c-0.123,0.208-0.266,0.363-0.432,0.468c-0.165,0.104-0.335,0.157-0.511,0.157
			c-0.335,0-0.629-0.168-0.879-0.503c-0.25-0.335-0.375-0.815-0.375-1.437c0-0.627,0.122-1.101,0.366-1.42
			c0.244-0.32,0.543-0.479,0.899-0.479c0.167,0,0.325,0.043,0.471,0.128c0.146,0.085,0.28,0.213,0.402,0.383v-1.82h0.798V53.867z
			 M48.252,51.954c0,0.333,0.028,0.58,0.084,0.743c0.056,0.163,0.136,0.285,0.241,0.368c0.104,0.082,0.222,0.123,0.353,0.123
			c0.174,0,0.326-0.095,0.455-0.284c0.129-0.189,0.193-0.475,0.193-0.855c0-0.423-0.062-0.727-0.188-0.913
			c-0.125-0.186-0.285-0.279-0.477-0.279c-0.184,0-0.34,0.091-0.469,0.273S48.252,51.586,48.252,51.954z"/>
		<path fill="#FFFFFF" d="M52.908,52.703l0.791,0.162c-0.106,0.369-0.271,0.642-0.495,0.82c-0.223,0.178-0.496,0.268-0.815,0.268
			c-0.445,0-0.788-0.149-1.031-0.446c-0.286-0.346-0.428-0.83-0.428-1.453c0-0.614,0.144-1.105,0.432-1.474
			c0.244-0.312,0.559-0.467,0.946-0.467c0.431,0,0.768,0.159,1.012,0.478c0.281,0.364,0.421,0.901,0.421,1.611l-0.003,0.111h-1.992
			c0.004,0.292,0.07,0.517,0.195,0.676c0.126,0.16,0.278,0.239,0.456,0.239C52.651,53.228,52.822,53.053,52.908,52.703z
			 M52.949,51.719c-0.007-0.287-0.068-0.502-0.183-0.646s-0.252-0.217-0.411-0.217c-0.168,0-0.31,0.075-0.425,0.226
			c-0.118,0.152-0.175,0.365-0.172,0.638H52.949z"/>
		<path fill="#FFFFFF" d="M54.361,50.2H55.1v0.539c0.101-0.193,0.235-0.346,0.4-0.457c0.167-0.112,0.345-0.168,0.537-0.168
			c0.343,0,0.639,0.164,0.887,0.491c0.248,0.328,0.372,0.792,0.372,1.394c0,0.632-0.125,1.116-0.373,1.451s-0.544,0.503-0.887,0.503
			c-0.159,0-0.307-0.039-0.444-0.115c-0.137-0.078-0.281-0.218-0.433-0.42v1.844h-0.797V50.2z M55.147,51.971
			c0,0.416,0.068,0.722,0.202,0.918c0.134,0.196,0.296,0.294,0.488,0.294c0.182,0,0.333-0.091,0.458-0.271
			c0.124-0.182,0.186-0.478,0.186-0.889c0-0.39-0.063-0.678-0.191-0.864c-0.128-0.186-0.284-0.279-0.467-0.279
			c-0.193,0-0.354,0.091-0.482,0.272C55.212,51.333,55.147,51.606,55.147,51.971z"/>
		<path fill="#FFFFFF" d="M59.676,52.703l0.791,0.162c-0.106,0.369-0.271,0.642-0.495,0.82s-0.496,0.268-0.816,0.268
			c-0.445,0-0.789-0.149-1.031-0.446c-0.285-0.346-0.428-0.83-0.428-1.453c0-0.614,0.144-1.105,0.432-1.474
			c0.244-0.312,0.559-0.467,0.946-0.467c0.43,0,0.767,0.159,1.012,0.478c0.28,0.364,0.421,0.901,0.421,1.611l-0.003,0.111h-1.992
			c0.004,0.292,0.07,0.517,0.196,0.676c0.125,0.16,0.278,0.239,0.455,0.239C59.419,53.228,59.59,53.053,59.676,52.703z
			 M59.717,51.719c-0.007-0.287-0.068-0.502-0.183-0.646s-0.252-0.217-0.411-0.217c-0.168,0-0.31,0.075-0.425,0.226
			c-0.117,0.152-0.175,0.365-0.173,0.638H59.717z"/>
		<path fill="#FFFFFF" d="M63.887,53.867H63.09v-1.874c0-0.376-0.015-0.625-0.045-0.75s-0.086-0.22-0.167-0.287
			c-0.082-0.067-0.174-0.1-0.277-0.1c-0.134,0-0.255,0.043-0.363,0.129c-0.108,0.086-0.185,0.206-0.229,0.358
			c-0.043,0.152-0.065,0.439-0.065,0.861v1.663h-0.797V50.2h0.739v0.535c0.131-0.207,0.279-0.362,0.444-0.466
			c0.164-0.104,0.347-0.156,0.547-0.156c0.232,0,0.428,0.061,0.589,0.182c0.16,0.121,0.27,0.276,0.331,0.467
			c0.061,0.19,0.091,0.465,0.091,0.824V53.867z"/>
		<path fill="#FFFFFF" d="M67.452,53.867h-0.739v-0.539c-0.123,0.208-0.266,0.363-0.432,0.468c-0.166,0.104-0.336,0.157-0.511,0.157
			c-0.335,0-0.629-0.168-0.878-0.503c-0.25-0.335-0.375-0.815-0.375-1.437c0-0.627,0.122-1.101,0.366-1.42
			c0.244-0.32,0.543-0.479,0.899-0.479c0.167,0,0.325,0.043,0.471,0.128c0.146,0.085,0.28,0.213,0.402,0.383v-1.82h0.798V53.867z
			 M65.332,51.954c0,0.333,0.028,0.58,0.084,0.743c0.056,0.163,0.136,0.285,0.241,0.368c0.104,0.082,0.222,0.123,0.353,0.123
			c0.175,0,0.326-0.095,0.455-0.284c0.129-0.189,0.193-0.475,0.193-0.855c0-0.423-0.062-0.727-0.188-0.913s-0.285-0.279-0.477-0.279
			c-0.184,0-0.34,0.091-0.468,0.273C65.396,51.312,65.332,51.586,65.332,51.954z"/>
		<path fill="#FFFFFF" d="M69.986,52.703l0.791,0.162c-0.106,0.369-0.271,0.642-0.495,0.82c-0.223,0.178-0.495,0.268-0.815,0.268
			c-0.445,0-0.789-0.149-1.031-0.446c-0.286-0.346-0.429-0.83-0.429-1.453c0-0.614,0.144-1.105,0.432-1.474
			c0.244-0.312,0.559-0.467,0.945-0.467c0.431,0,0.768,0.159,1.012,0.478c0.281,0.364,0.421,0.901,0.421,1.611l-0.003,0.111h-1.992
			c0.004,0.292,0.07,0.517,0.196,0.676c0.125,0.16,0.278,0.239,0.456,0.239C69.729,53.228,69.9,53.053,69.986,52.703z
			 M70.027,51.719c-0.007-0.287-0.068-0.502-0.183-0.646c-0.115-0.145-0.252-0.217-0.411-0.217c-0.168,0-0.31,0.075-0.425,0.226
			c-0.117,0.152-0.175,0.365-0.172,0.638H70.027z"/>
		<path fill="#FFFFFF" d="M74.199,53.867H73.4v-1.874c0-0.376-0.015-0.625-0.044-0.75s-0.086-0.22-0.167-0.287
			c-0.082-0.067-0.174-0.1-0.278-0.1c-0.134,0-0.254,0.043-0.362,0.129c-0.109,0.086-0.185,0.206-0.229,0.358
			c-0.043,0.152-0.065,0.439-0.065,0.861v1.663h-0.797V50.2h0.738v0.535c0.132-0.207,0.28-0.362,0.444-0.466
			c0.165-0.104,0.347-0.156,0.548-0.156c0.232,0,0.428,0.061,0.588,0.182c0.16,0.121,0.271,0.276,0.332,0.467
			c0.061,0.19,0.092,0.465,0.092,0.824V53.867z"/>
		<path fill="#FFFFFF" d="M77.63,51.281l-0.784,0.172c-0.058-0.384-0.239-0.577-0.544-0.577c-0.197,0-0.356,0.083-0.476,0.25
			c-0.121,0.166-0.181,0.446-0.181,0.841c0,0.437,0.06,0.745,0.18,0.925c0.121,0.181,0.281,0.271,0.481,0.271
			c0.15,0,0.273-0.051,0.37-0.154c0.098-0.103,0.167-0.284,0.208-0.544l0.784,0.162c-0.161,0.884-0.624,1.326-1.391,1.326
			c-0.49,0-0.854-0.187-1.092-0.56c-0.237-0.374-0.355-0.824-0.355-1.35c0-0.629,0.134-1.108,0.402-1.437s0.621-0.493,1.056-0.493
			c0.353,0,0.641,0.093,0.863,0.28S77.534,50.875,77.63,51.281z"/>
		<path fill="#FFFFFF" d="M78.231,49.703v-0.898h0.798v0.898H78.231z M78.231,53.867V50.2h0.798v3.667H78.231z"/>
		<path fill="#FFFFFF" d="M80.438,51.315l-0.722-0.159c0.087-0.371,0.232-0.637,0.434-0.799s0.491-0.244,0.868-0.244
			c0.337,0,0.593,0.047,0.771,0.142c0.177,0.094,0.303,0.223,0.38,0.385c0.076,0.163,0.114,0.458,0.114,0.886l-0.007,1.134
			c0,0.318,0.013,0.555,0.039,0.71c0.025,0.155,0.072,0.321,0.142,0.496h-0.788l-0.104-0.401c-0.136,0.161-0.282,0.283-0.437,0.364
			c-0.155,0.082-0.32,0.123-0.496,0.123c-0.292,0-0.531-0.099-0.718-0.295c-0.187-0.197-0.28-0.459-0.28-0.787
			c0-0.208,0.038-0.388,0.113-0.543c0.077-0.154,0.184-0.277,0.321-0.37c0.138-0.092,0.359-0.174,0.664-0.246
			c0.369-0.085,0.625-0.165,0.77-0.238c0-0.204-0.015-0.337-0.043-0.401c-0.029-0.063-0.082-0.116-0.159-0.156
			c-0.078-0.04-0.186-0.061-0.326-0.061c-0.143,0-0.255,0.032-0.337,0.097C80.555,51.017,80.489,51.138,80.438,51.315z
			 M81.501,52.106c-0.101,0.042-0.259,0.09-0.473,0.146c-0.246,0.064-0.407,0.136-0.483,0.214c-0.076,0.079-0.114,0.18-0.114,0.305
			c0,0.141,0.042,0.259,0.126,0.354s0.189,0.144,0.316,0.144c0.112,0,0.224-0.039,0.334-0.116c0.11-0.077,0.187-0.169,0.23-0.275
			c0.042-0.106,0.063-0.299,0.063-0.578V52.106z"/>
	</g>
</g>
</svg>
