<?xml version="1.0" encoding="utf-8"?>
<!-- Generator: Adobe Illustrator 15.1.0, SVG Export Plug-In . SVG Version: 6.00 Build 0)  -->
<!DOCTYPE svg PUBLIC "-//W3C//DTD SVG 1.1//EN" "http://www.w3.org/Graphics/SVG/1.1/DTD/svg11.dtd">
<svg version="1.1" id="Layer_1" xmlns="http://www.w3.org/2000/svg" xmlns:xlink="http://www.w3.org/1999/xlink" x="0px" y="0px"
	 width="216.665px" height="203.005px" viewBox="0 0 216.665 203.005" enable-background="new 0 0 216.665 203.005"
	 xml:space="preserve">
<g>
	<g>
		<g>
			<g>
				<polygon fill="#DA1C23" points="38.268,24.188 42.263,22.601 40.269,27.335 36.273,28.921 				"/>
			</g>
		</g>
		<g>
			<g>
				<polygon fill="#EE2A7B" points="138.202,65.339 142.196,63.752 140.201,68.486 136.207,70.072 				"/>
			</g>
		</g>
		<g>
			<g>
				<polygon fill="#006838" points="62.083,46.289 65.509,42.339 66.007,48.57 62.579,52.521 				"/>
			</g>
		</g>
		<g>
			<g>
				<polygon fill="#F26522" points="180.905,147.122 180.044,140.296 186.587,145.283 187.448,152.111 				"/>
			</g>
		</g>
		<g>
			<g>
				<polygon fill="#DA1C23" points="114.447,89.741 119.005,87.165 117.382,93.209 112.823,95.785 				"/>
			</g>
		</g>
		<g>
			<g>
				<polygon fill="#DA1C23" points="61.315,161.64 59.043,162.353 60.34,159.817 62.612,159.104 				"/>
			</g>
		</g>
		<g>
			<g>
				<polygon fill="#7F3F98" points="87.45,37.512 81.786,36.813 87.128,32.571 92.793,33.27 				"/>
			</g>
		</g>
		<g>
			<g>
				<polygon fill="#DA1C23" points="83.63,140.071 82.66,145.065 79.215,140.056 80.183,135.062 				"/>
			</g>
		</g>
		<g>
			<g>
				<polygon fill="#F26522" points="138.134,177.507 138.192,171.319 143.418,176.555 143.36,182.741 				"/>
			</g>
		</g>
		<g>
			<g>
				<polygon fill="#006838" points="88.854,85.854 82.383,85.953 87.722,80.353 94.194,80.252 				"/>
			</g>
		</g>
		<g>
			<g>
				<polygon fill="#DA1C23" points="176.594,109.604 174.327,109.41 176.392,107.642 178.658,107.837 				"/>
			</g>
		</g>
		<g>
			<g>
				<polygon fill="#DA1C23" points="176.178,38.13 172.583,38.264 175.482,35.089 179.076,34.956 				"/>
			</g>
		</g>
		<g>
			<g>
				<polygon fill="#DA1C23" points="132.571,121.843 132.731,117.478 136.315,121.271 136.155,125.634 				"/>
			</g>
		</g>
		<g>
			<g>
				<polygon fill="#7F3F98" points="69.667,100.95 73.093,97 73.591,103.23 70.165,107.181 				"/>
			</g>
		</g>
		<g>
			<g>
				<polygon fill="#1B75BB" points="150.872,3.519 146.878,1.933 148.874,6.667 152.868,8.253 				"/>
			</g>
		</g>
		<g>
			<g>
				<polygon fill="#D7DF23" points="168.35,24.827 164.923,20.877 164.427,27.108 167.852,31.058 				"/>
			</g>
		</g>
		<g>
			<g>
				<polygon fill="#1B75BB" points="111.415,33.503 117.913,33.229 112.234,27.919 105.735,28.193 				"/>
			</g>
		</g>
		<g>
			<g>
				<polygon fill="#1B75BB" points="102.353,113.952 101.784,108.272 97.421,113.517 97.988,119.196 				"/>
			</g>
		</g>
		<g>
			<g>
				<polygon fill="#1B75BB" points="73.527,125.196 78.542,124.341 73.61,120.782 68.597,121.636 				"/>
			</g>
		</g>
		<g>
			<g>
				<polygon fill="#F26522" points="61.941,145.322 64.688,141.542 59.164,142.368 56.419,146.15 				"/>
			</g>
		</g>
		<g>
			<g>
				<polygon fill="#1B75BB" points="36.329,139.591 39.956,137.371 35.025,136.141 31.398,138.361 				"/>
			</g>
		</g>
		<g>
			<g>
				<polygon fill="#1B75BB" points="65.805,180.748 63.95,176.016 61.472,181.563 63.327,186.296 				"/>
			</g>
		</g>
		<g>
			<g>
				<polygon fill="#F26522" points="112.115,182.403 113.772,176.146 107.049,179.977 105.392,186.233 				"/>
			</g>
		</g>
		<g>
			<g>
				<polygon fill="#1B75BB" points="146.722,83.169 148.86,84.647 148.331,81.584 146.191,80.104 				"/>
			</g>
		</g>
		<g>
			<g>
				<polygon fill="#1B75BB" points="118.51,136.735 120.317,133.991 116.464,134.751 114.659,137.495 				"/>
			</g>
		</g>
		<g>
			<g>
				<polygon fill="#1B75BB" points="96.472,63.787 99.004,64.025 97.085,61.667 94.555,61.428 				"/>
			</g>
		</g>
		<g>
			<g>
				<polygon fill="#1B75BB" points="102.589,174.515 101.312,172.315 100.508,175.248 101.786,177.446 				"/>
			</g>
		</g>
		<g>
			<g>
				<polygon fill="#1B75BB" points="107.065,148.841 103.036,152.174 109.255,152.814 113.281,149.479 				"/>
			</g>
		</g>
		<g>
			<g>
				<polygon fill="#00AEEF" points="46.05,110.714 41.707,106.949 48.556,106.405 52.896,110.169 				"/>
			</g>
		</g>
		<g>
			<g>
				<polygon fill="#F7941E" points="85.673,152.829 82.183,151.764 86.017,149.684 89.505,150.751 				"/>
			</g>
		</g>
		<g>
			<g>
				<polygon fill="#ED1C24" points="164.854,110.316 158.668,110.399 163.782,105.056 169.968,104.972 				"/>
			</g>
		</g>
		<g>
			<g>
				<polygon fill="#00AEEF" points="149.534,112.405 151.772,117.758 145.335,115.18 143.099,109.826 				"/>
			</g>
		</g>
		<g>
			<g>
				<polygon fill="#F9ED32" points="209.811,29.188 213.405,29.055 210.507,32.23 206.911,32.362 				"/>
			</g>
		</g>
		<g>
			<g>
				<polygon fill="#FFDE17" points="11.058,178.504 7.632,182.454 7.134,176.224 10.56,172.273 				"/>
			</g>
		</g>
		<g>
			<g>
				<polygon fill="#FFDE17" points="47.513,57.374 53.179,58.073 47.837,62.314 42.171,61.618 				"/>
			</g>
		</g>
		<g>
			<g>
				<polygon fill="#1B75BB" points="32.874,62.573 31.159,65.439 35.04,64.501 36.755,61.635 				"/>
			</g>
		</g>
		<g>
			<g>
				<polygon fill="#1B75BB" points="62.825,79.482 65.661,74.483 59.025,76.255 56.188,81.253 				"/>
			</g>
		</g>
		<g>
			<g>
				<polygon fill="#1B75BB" points="184.182,121.482 184.673,124.786 187.077,121.601 186.585,118.296 				"/>
			</g>
		</g>
		<g>
			<g>
				<polygon fill="#00A14B" points="196.601,195.237 190.918,196.085 196.402,200.219 202.087,199.372 				"/>
			</g>
		</g>
		<g>
			<g>
				<polygon fill="#DA1C23" points="193.616,180.55 193.667,184.146 190.56,181.176 190.51,177.579 				"/>
			</g>
		</g>
		<g>
			<g>
				<polygon fill="#1B75BB" points="128.206,190.059 124.179,193.394 130.396,194.033 134.424,190.698 				"/>
			</g>
		</g>
		<g>
			<g>
				<polygon fill="#27AAE1" points="97.096,189.712 99.88,191.456 99.031,187.621 96.247,185.88 				"/>
			</g>
		</g>
	</g>
	<g>
		<g>
			<path fill="#FCCFA9" d="M49.322,111.351c0,0-14.312,7.942-13.802,15.935c0.51,7.991,7.344,17.36,7.344,17.36
				s-5.183-2.082-4.592,0.936c0.59,3.02,6.251,8.399,6.877,5.634c0.627-2.765-1.029-10.186-1.029-10.186s-6.521-9.966-4.008-14.57
				c2.516-4.604,9.943-8.85,9.943-8.85L49.322,111.351z"/>
			<g>
				<g>
					<path fill="#3F3B3C" d="M45.396,114.792c-0.011-0.013,2.256-1.808,3.38-2.769c0.552-0.488,0.8-0.805,0.23-0.688
						c-0.562,0.132-1.955,0.679-4.489,2.246c-2.438,1.809-4.769,3.809-6.701,6.227c-0.957,1.211-1.81,2.542-2.368,4.039
						c-0.277,0.747-0.471,1.538-0.538,2.351c-0.072,0.829,0.024,1.622,0.127,2.377c0.457,3.067,1.566,5.937,2.873,8.665
						c0.66,1.364,1.385,2.693,2.158,3.991c0.387,0.649,0.787,1.29,1.199,1.923l0.249,0.363l0.122,0.17l0.063,0.087l0.033,0.043
						c-0.001,0.005-0.026-0.008-0.039-0.011c-0.181-0.063-0.374-0.119-0.58-0.161l-0.275-0.051l-0.435-0.062
						c-0.294-0.031-0.595-0.046-0.91-0.022c-0.312,0.027-0.648,0.086-0.979,0.273c-0.334,0.185-0.606,0.562-0.677,0.929
						c-0.132,0.738,0.089,1.322,0.305,1.865c0.471,1.079,1.144,1.999,1.88,2.855c0.747,0.848,1.565,1.634,2.537,2.266
						c0.495,0.298,1.009,0.613,1.719,0.642c0.352,0.019,0.805-0.177,1-0.522c0.208-0.334,0.234-0.651,0.279-0.93
						c0.137-1.155,0.045-2.267-0.06-3.375c-0.241-2.232-0.627-4.335-1.127-6.591c-1.349-2.103-2.455-4.186-3.37-6.432
						c-0.446-1.116-0.826-2.261-1.066-3.433c-0.232-1.167-0.343-2.385-0.065-3.532c0.279-1.136,1.054-2.121,1.793-3.051
						c0.771-0.924,1.636-1.77,2.542-2.568c1.833-1.595,3.771-2.987,5.897-4.27l-0.782-6.286l0.679,6.235
						c-2.042,1.191-4.084,2.601-5.93,4.164c-0.924,0.789-1.811,1.629-2.608,2.555c-0.398,0.462-0.772,0.949-1.108,1.462
						c-0.336,0.506-0.645,1.07-0.793,1.68c-0.313,1.218-0.213,2.48,0.007,3.682c0.229,1.208,0.598,2.378,1.033,3.519
						c0.872,2.261,2.027,4.491,3.263,6.487c0.42,2.048,0.802,4.29,0.995,6.44c0.088,1.081,0.153,2.184,0.013,3.217
						c-0.079,0.569-0.212,0.853-0.589,0.831c-0.403-0.012-0.893-0.267-1.318-0.547c-0.868-0.583-1.646-1.346-2.338-2.16
						c-0.685-0.818-1.309-1.712-1.703-2.662c-0.193-0.464-0.32-0.988-0.238-1.343c0.044-0.171,0.124-0.273,0.27-0.362
						c0.151-0.084,0.371-0.131,0.604-0.146c0.234-0.015,0.485,0,0.738,0.031l0.381,0.061l0.208,0.042l0.328,0.077
						c0.835,0.197,1.906,0.656,2.938,1.052c-0.024-0.049-0.031-0.081-0.06-0.128l-0.138-0.194l-0.281-0.395l-0.563-0.795
						c-0.363-0.512-0.726-1.07-1.018-1.528c-0.396-0.627-0.778-1.264-1.148-1.907c-0.74-1.287-1.43-2.601-2.054-3.942
						c-1.236-2.68-2.26-5.488-2.642-8.366c-0.573-2.851,0.795-5.519,2.628-7.75C40.722,118.417,43.004,116.508,45.396,114.792z"/>
				</g>
			</g>
		</g>
		<g>
			<g>
				<g>
					<g>
						<g>
							<g>
								<path fill="#FCCFA9" d="M99.157,162.366l2.885,10.966l-4.477,0.979l-4.428-10.217
									C93.138,164.095,95.918,158.847,99.157,162.366z"/>
								<g>
									<path fill="#3F3B3C" d="M99.424,163.106c0,0,0.862,2.452,0.96,2.825l0.747,2.464l0.695,2.289l0.378,1.249l0.526,1.82
										c-3.184,0.762-3.26,0.831-5.565,1.342c-0.256-0.585-0.501-1.157-0.504-1.19l-3.158-8.098l-0.633-1.636
										c-0.068-0.089,0.008-0.169,0.054-0.249l0.147-0.237l0.249-0.354c0.164-0.22,0.336-0.431,0.516-0.63
										c0.709-0.792,1.575-1.425,2.461-1.576c0.895-0.159,1.614,0.218,2.022,0.541c0.422,0.332,0.628,0.611,0.674,0.688
										c0.002,0.002,0.052,0.314-0.151,0.145c-0.026-0.017-0.228-0.24-0.615-0.51c-0.382-0.262-0.99-0.56-1.708-0.422
										c-0.718,0.126-1.481,0.703-2.109,1.479c-0.158,0.194-0.31,0.4-0.454,0.615l-0.209,0.329c-0.04,0.068-0.05,0.09-0.071,0.138
										l0.252,0.542l0.351,0.77l3.679,8.064l0.005,0.032l0.039,0.001l0.544-0.109l1.124-0.226
										c0.674-0.134,1.779-0.362,1.643-0.319l-2.351-9.656C98.96,163.229,98.598,161.5,99.424,163.106z"/>
								</g>
							</g>
							<path opacity="0.3" fill="#03522A" d="M209.704,191.834c-21.855,0.315-50.613-5.832-79.71-5.832
								c-29.856,0-57.405-0.196-79.558-0.527l-2.143-4.169c22.508-0.349,50.874-0.559,81.7-0.559
								c30.197,0,58.033,0.202,80.314,0.538L209.704,191.834z"/>
							<path fill="#231F20" d="M101.644,169.091c0,0-3.775,0.295-6.797,2.963l3.176,6.469c0,0,0.045,1.461,0.109,1.943
								c0.063,0.486,0.664,1.703,0.664,1.703s2.756,1.323,3.525,0.777c0.771-0.545,0.946-0.016,1.524,0.383
								c0.579,0.396,6.733,2.215,10.304-0.407c0,0,0.627-8.459-10.24-7.856l-0.896-5.662
								C103.013,169.403,102.265,169.001,101.644,169.091z"/>
							<g>
								<g>
									<path fill="#FFD351" d="M102.792,170.694c0.037,0.156-0.049,0.295-0.193,0.31l-1.742,0.231
										c-0.148,0.023-0.292-0.102-0.32-0.281l0,0c-0.027-0.181,0.07-0.341,0.216-0.359l1.712-0.167
										C102.608,170.417,102.753,170.535,102.792,170.694L102.792,170.694z"/>
									<path fill="#FFD351" d="M102.975,171.437c0.04,0.151-0.049,0.295-0.195,0.319l-1.778,0.313
										c-0.153,0.03-0.3-0.088-0.328-0.265l0,0c-0.029-0.176,0.069-0.341,0.22-0.366l1.75-0.251
										C102.787,171.17,102.936,171.282,102.975,171.437L102.975,171.437z"/>
									<path fill="#FFD351" d="M103.184,172.239c0.042,0.152-0.049,0.299-0.2,0.328l-1.818,0.406
										c-0.155,0.038-0.306-0.071-0.337-0.247l0,0c-0.03-0.173,0.07-0.342,0.224-0.375l1.79-0.342
										C102.99,171.985,103.143,172.088,103.184,172.239L103.184,172.239z"/>
									<path fill="#FFD351" d="M103.24,172.938c0.042,0.152-0.038,0.297-0.175,0.331l-1.656,0.432
										c-0.142,0.04-0.279-0.065-0.312-0.235l0,0c-0.032-0.17,0.051-0.338,0.192-0.374l1.63-0.375
										C103.057,172.688,103.2,172.789,103.24,172.938L103.24,172.938z"/>
								</g>
							</g>
							<path fill="#D85124" d="M98.595,156.933c0,0,2.741,4.514,2.868,6.945c0,0-9.077,2.742-10.247,4.129
								c0,0-5.151-9.279-6.104-10.051C84.159,157.188,95.726,149.989,98.595,156.933z"/>
							<g>
								<g>
									<path fill="#3F3B3C" d="M87.611,161.473c0,0,1.079,1.486,1.212,1.723l0.984,1.548l0.914,1.435l0.496,0.782
										c0.109,0.177,0.096,0.138,0.131,0.184c0.024,0.024,0.044,0.057,0.066,0.063l0.109-0.108
										c-0.02,0.006,0.141-0.097,0.21-0.143l0.266-0.17c0.351-0.22,0.683-0.413,0.98-0.576c0.594-0.327,1.046-0.536,1.219-0.595
										c-0.005-0.01,2.887-1.146,5.949-1.761l0.528-0.105l0.354-0.054c0.095,0.007,0.061-0.056,0.047-0.11l-0.042-0.167
										l-0.119-0.429l-0.564-1.954c-0.331-1.163-0.551-1.989-0.551-2.123c0,0,0.104-0.244,0.198-0.071l0.768,1.938l0.749,1.915
										l0.266,0.694l0.17,0.452l0.086,0.23l0.044,0.116c0.031,0.047-0.058,0.031-0.081,0.049l-0.949,0.253l-0.661,0.189
										c-3.03,0.871-5.819,2.234-5.808,2.245c-0.524,0.226-1.043,0.465-1.549,0.724l-0.749,0.401
										c-0.076,0.042-0.365,0.212-0.579,0.354l-0.678,0.472l-1.199-2.212l-0.879-1.652l-1.757-3.303
										C87.193,161.709,86.661,160.583,87.611,161.473z"/>
								</g>
							</g>
						</g>
						<g>
							<g>
								<path fill="#FCCFA9" d="M61.608,161.649l-1.75,11.203l4.415,0.514l3.312-10.614
									C67.585,162.752,64.405,157.818,61.608,161.649z"/>
								<g>
									<path fill="#3F3B3C" d="M61.556,162.427c0,0-0.192,2.568-0.251,2.946l-0.811,6.996c0.415-0.013,3.711,0.322,3.306,0.268
										c0.002-0.01,0.004-0.017,0.008-0.023c0.004-0.009,0,0.008,0.01-0.021l0.042-0.113l2.867-8.124l0.524-1.463
										c0.058-0.082,0.011-0.152-0.04-0.222c-0.035-0.058-0.123-0.183-0.196-0.283c-0.152-0.208-0.313-0.407-0.479-0.595
										c-0.662-0.75-1.453-1.348-2.268-1.496c-0.823-0.16-1.531,0.206-1.945,0.528c-0.428,0.33-0.654,0.604-0.727,0.66
										c0.001-0.002-0.314,0.121-0.165-0.125c0.022-0.028,0.194-0.304,0.594-0.691c0.384-0.367,1.118-0.912,2.142-0.854
										c1.011,0.057,1.975,0.677,2.762,1.445c0.199,0.194,0.391,0.401,0.575,0.618l0.289,0.359l0.196,0.276l0.095,0.141
										c0.018,0.05-0.022,0.107-0.03,0.161l-0.511,1.767l-2.534,8.679l-0.266,0.825l-5.557-0.723l1.903-11.01
										C61.089,162.354,61.446,160.642,61.556,162.427z"/>
								</g>
							</g>
							<path fill="#231F20" d="M59.843,168.593c0,0,3.673-0.093,6.844,2.251l-2.456,6.758c0,0,0.093,1.457,0.077,1.945
								c-0.016,0.487-0.48,1.761-0.48,1.761s-2.537,1.6-3.332,1.135c-0.797-0.462-1.004-0.854-1.524-0.398
								c-0.521,0.455-6.884,2.611-10.581,0.37c0,0-0.814-8.107,9.828-7.646l0.332-5.723
								C58.55,169.046,59.235,168.569,59.843,168.593z"/>
							<g>
								<g>
									<path fill="#FFD351" d="M58.274,170.097c-0.014,0.175,0.094,0.345,0.238,0.375l1.73,0.346
										c0.147,0.027,0.268-0.073,0.271-0.224l0,0c0-0.153-0.116-0.3-0.261-0.334l-1.698-0.416
										C58.412,169.809,58.286,169.92,58.274,170.097L58.274,170.097z"/>
									<path fill="#FFD351" d="M58.213,170.941c-0.014,0.178,0.096,0.342,0.243,0.366l1.77,0.255
										c0.151,0.02,0.275-0.09,0.276-0.242l0,0c0.003-0.154-0.116-0.296-0.263-0.322l-1.739-0.324
										C58.354,170.644,58.226,170.764,58.213,170.941L58.213,170.941z"/>
									<path fill="#FFD351" d="M58.143,171.881c-0.014,0.181,0.098,0.34,0.249,0.355l1.813,0.151
										c0.155,0.012,0.282-0.105,0.285-0.26l0,0c0.003-0.154-0.117-0.293-0.27-0.31l-1.782-0.222
										C58.288,171.574,58.155,171.701,58.143,171.881L58.143,171.881z"/>
									<path fill="#FFD351" d="M58.207,172.696c-0.014,0.181,0.087,0.332,0.226,0.339l1.653,0.058
										c0.141,0.003,0.254-0.12,0.259-0.278l0,0c0.003-0.156-0.102-0.292-0.24-0.299l-1.626-0.122
										C58.342,172.382,58.22,172.518,58.207,172.696L58.207,172.696z"/>
								</g>
							</g>
							<path fill="#D85124" d="M61.64,156.19c0,0-2.222,4.771-2.113,7.201c0,0,9.023,1.797,10.285,3.055c0,0,3.064-7.785,3.912-8.65
								C74.571,156.933,63.755,148.99,61.64,156.19z"/>
							<g>
								<g>
									<path fill="#3F3B3C" d="M72.805,159.628c0,0-0.518,1.735-0.624,1.981l-0.636,1.733l-0.587,1.603l-0.32,0.869l-0.568,1.433
										c-0.334-0.184-0.674-0.384-1.008-0.541c-0.202-0.099-0.253-0.116-0.348-0.158l-0.263-0.108l-0.965-0.369
										c-0.581-0.211-1.014-0.353-1.167-0.426c0.009-0.008-2.718-1.107-5.688-1.74c-0.295-0.072-0.92-0.187-1.399-0.277
										c0.029-0.423,0.277-1.064,0.344-1.333l0.597-1.914c0.36-1.137,0.627-1.936,0.7-2.046c0,0,0.217-0.144,0.201,0.049
										l-0.421,2.012l-0.424,1.982c-0.103,0.465-0.096,0.479-0.119,0.619c0.166,0.024,0.129-0.002,0.642,0.073
										c3.152,0.396,6.194,1.372,6.188,1.386c0.537,0.204,1.068,0.424,1.593,0.665c0.262,0.121,0.523,0.246,0.782,0.378
										l0.097,0.05l0.019,0.012l0.027,0.02l0.063,0.046c0.015-0.009,0.026-0.038,0.042-0.059c0.023-0.044,0.003,0.013,0.09-0.182
										l0.388-0.849l0.777-1.698l1.553-3.396C72.37,159.442,72.934,158.351,72.805,159.628z"/>
								</g>
							</g>
						</g>
						<g>
							<path fill="#D85124" d="M61.946,87.242c-0.606,0.505-1.136,1.038-1.557,1.538c-2.83,3.376-4.533,7.818-6.39,11.777
								c-2.142,4.569-3.906,9.338-5.589,14.09c-3.635,10.27-7.568,23.68-5.387,34.584c0.563,2.819,1.554,5.521,3.021,7.998
								c0.878,1.484,3.573,7.145,5.163,6.361c8.088-3.988,16.941-4.182,24.113-5.096c8.678-1.105,17.83-1.041,26.228,1.56
								c6.138,1.897,17.095,10.942,18.696,2.723c0.671-3.439,0.967-12.801,0.604-16.282c-2.195-21.139-7.146-35.603-15.753-49.665
								c-2.402-3.927-5.262-8.208-9.48-10.382c-10.124-5.216-14.12,5.812-17.435,13.153c-2.753,6.102-4.083,12.374-4.69,19.024
								c-0.348,3.814-0.312,7.604-0.105,11.422c1.125-7.138,1.691-14.533,1.71-21.749c0.009-4.664-0.05-9.365-0.89-13.967
								c-0.553-3.034-1.47-7.058-4.264-8.858C67.435,83.86,64.182,85.376,61.946,87.242z"/>
							<g>
								<g>
									<path fill="#FFFFFF" d="M62.75,116.833c-2.699,0-5.502-2.01-7.141-5.121c-2.167-4.107-1.483-8.74,1.525-10.328
										c0.684-0.36,1.439-0.543,2.245-0.543c2.699,0,5.502,2.009,7.143,5.118c2.167,4.109,1.481,8.743-1.528,10.332
										C64.31,116.651,63.556,116.833,62.75,116.833C62.75,116.833,62.75,116.833,62.75,116.833z"/>
									<path fill="#231F20" d="M59.379,101.546c2.347,0,4.973,1.811,6.519,4.742c1.988,3.771,1.437,7.97-1.233,9.379
										c-0.594,0.313-1.243,0.461-1.915,0.461c-2.347,0-4.972-1.812-6.517-4.745c-1.989-3.77-1.438-7.968,1.23-9.376
										C58.059,101.694,58.708,101.546,59.379,101.546 M59.379,100.136c-0.921,0-1.787,0.21-2.573,0.625
										c-3.41,1.799-4.209,6.754-1.82,11.281c1.759,3.338,4.807,5.496,7.764,5.496c0.92,0,1.786-0.21,2.572-0.624
										c3.41-1.8,4.211-6.756,1.823-11.284C65.385,102.293,62.336,100.136,59.379,100.136L59.379,100.136z"/>
								</g>
								<path fill="#231F20" d="M66.087,109.981c0,0-3.826-4.185-5.955,0.622l-1.688-0.79c0,0,1.311-2.217,2.162-2.455
									c0,0-2.373,0.118-3.111,1.154l-1.111-1.446C56.384,107.066,62.319,101.255,66.087,109.981z"/>
							</g>
							<g>
								<g>
									<path fill="#FFFFFF" d="M89.341,117.621c-0.806,0-1.561-0.183-2.245-0.543c-3.007-1.587-3.691-6.221-1.524-10.33
										c1.639-3.109,4.442-5.117,7.141-5.117c0.805,0,1.56,0.183,2.244,0.543c3.009,1.587,3.693,6.22,1.526,10.329
										C94.845,115.611,92.042,117.621,89.341,117.621z"/>
									<path fill="#231F20" d="M92.712,102.335c0.672,0,1.321,0.148,1.916,0.462c2.668,1.407,3.221,5.604,1.231,9.376
										c-1.545,2.933-4.171,4.743-6.519,4.743c-0.672,0-1.321-0.148-1.916-0.461c-2.666-1.407-3.219-5.605-1.229-9.378
										C87.74,104.146,90.365,102.335,92.712,102.335 M92.712,100.925L92.712,100.925c-2.957,0-6.004,2.156-7.764,5.493
										c-2.388,4.528-1.589,9.484,1.818,11.282c0.787,0.415,1.653,0.625,2.574,0.625c2.959,0,6.007-2.157,7.766-5.495
										c2.388-4.527,1.588-9.482-1.821-11.28C94.499,101.135,93.633,100.925,92.712,100.925L92.712,100.925z"/>
								</g>
								<path fill="#231F20" d="M85.772,109.911c0,0,4.463-3.502,5.777,1.593L93.347,111c0,0-0.934-2.402-1.734-2.778
									c0,0,2.323,0.506,2.883,1.649l1.333-1.243C95.828,108.628,90.917,101.919,85.772,109.911z"/>
							</g>
							<path fill="#231F20" d="M96.788,87.215c0,0-8.017,1.46-7.535,4.307c0,0,5.562-2.528,7.535,0c0,0-8.244,3.354-6.466,9.083
								c0,0,9.347-4.421,14.259,3.981c0,0-9.902,10.429,1.143,15.544c0,0,6.258,5.285,7.719,3.377c0,0,2.648-1.971,1.701-4.937
								C115.144,118.57,111.28,100.8,96.788,87.215z"/>
							<path fill="#FCCFA9" d="M120.651,153.196c0,0-23.967-22.202-44.41-14.213c0,0-3.065-2.59-1.879-9.165
								c0,0,7.753-15.977,45.467,11.44C120.171,148.636,121.614,146.684,120.651,153.196z"/>
							<path fill="#FCCFA9" d="M73.187,129.884c0,0-10.573-10.873-28.9,0.876c-0.51,0.324-0.862,2.589-0.938,3.144
								c-0.271,1.989-0.235,6.881,0.232,8.84c9.867-9.164,15.286-6.801,22.322-5.17c1.686,0.391,2.561,1.289,4.17,1.867
								c0.68,0.242,4.759-0.666,4.394-2.654L73.187,129.884z"/>
							<path fill="#231F20" d="M46.955,118.09l1.94,1.679c0,0-2.797,0.58-3.184,1.988L46.955,118.09z"/>
							<path fill="#231F20" d="M45.364,123.882l1.939,1.68c0,0-2.797,0.578-3.184,1.987L45.364,123.882z"/>
							<path fill="#231F20" d="M64.298,85.433c0,0-3.07,2.949-1.559,4.518c0,0-0.631,0.377-1.512-1.568c0,0-2.455,1.624-1.695,5.469
								l-0.341-1.355c0,0-1.665,2.17-3.431,5.182c0,0-3.432,12.186-6.438,13.674C49.322,111.351,55.323,90.271,64.298,85.433z"/>
							<g>
								<g>
									<g>
										<path fill="#3F3B3C" d="M73.878,105.519c0.003,0,0.149,1.29,0.438,1.964c0.275,0.669,0.813,0.754,1.508-1.86
											c0.102-3.779-0.052-7.578-0.802-11.323c-0.388-1.865-0.927-3.728-1.846-5.456c-0.462-0.859-1.025-1.683-1.737-2.388
											c-0.699-0.696-1.6-1.288-2.508-1.589l-0.035-0.012l-0.031-0.019c-1.848-0.978-3.898-0.393-5.411,0.53
											c-1.554,0.948-2.795,2.255-3.892,3.632c-2.171,2.787-3.792,5.917-5.229,9.097c1.576-3.111,3.339-6.161,5.592-8.797
											c1.131-1.3,2.401-2.509,3.879-3.319c0.737-0.399,1.528-0.689,2.33-0.772c0.788-0.086,1.628,0.051,2.237,0.43l0.09,0.053
											l0.094,0.047c1.664,0.643,2.788,2.055,3.554,3.652c0.765,1.604,1.201,3.381,1.489,5.173
											C74.154,98.158,74.143,101.863,73.878,105.519z"/>
									</g>
								</g>
							</g>
							<g>
								<path fill="#FCCFA9" d="M78.46,99.644c-3.553-1.26-7.018-1.543-8.782-2.273c0,0-2.794-6.04,1.874-5.915
									c0.22,0.051,0.366,0.066,0.366,0.066c2.126,0.479,3.021-1.571,3.021-1.571c-0.229-1.726,2.291-14.756,2.291-14.756
									c2.196-1.721,7.065,0.891,7.065,0.891c-2.592-0.082-4.531,11.635-4.217,13.865c0.316,2.23,1.551,1.571,1.551,1.571"/>
								<g>
									<g>
										<path fill="#FFFFFF" d="M80.037,92.345c-0.005-0.007-0.62,0.347-0.708,0.398c-0.046,0.02-0.746,0.402-1.352,0.929
											c-0.623,0.514-1.083,1.18-1.182,1.296c0.006-0.009-0.751,0.852-0.952,2.02c-0.238,1.153,0.065,2.389,0.05,2.487
											c0,0-0.063,0.1-0.099,0.03c-0.011-0.026-0.49-1.246-0.372-2.56c0.077-1.329,0.883-2.448,0.879-2.429
											c0.95-1.193,2.277-1.947,3.657-2.396C79.963,92.118,80.444,92.013,80.037,92.345z"/>
									</g>
								</g>
								<g>
									<g>
										<g>
											<path fill="#FFFFFF" d="M78.754,88.051l0.403,0.069c0.232,0.021,0.599,0.103,0.847-0.424
												c-0.236-0.611-0.719-0.972-1.158-1.175c-0.449-0.211-0.905-0.307-1.354-0.35c-0.451-0.036-0.899-0.021-1.335,0.087
												c-0.216,0.056-0.433,0.132-0.618,0.271c-0.196,0.137-0.293,0.384-0.207,0.595c-0.034-0.21,0.114-0.395,0.291-0.456
												c0.177-0.072,0.378-0.09,0.575-0.088c0.396,0.005,0.792,0.097,1.16,0.226C78.078,87.045,78.781,87.613,78.754,88.051z"/>
										</g>
									</g>
								</g>
								<g>
									<g>
										<g>
											<path fill="#FFFFFF" d="M79.842,82.577l0.403,0.068c0.232,0.021,0.599,0.103,0.847-0.424
												c-0.236-0.612-0.72-0.972-1.159-1.174c-0.45-0.211-0.905-0.306-1.355-0.349c-0.45-0.035-0.899-0.021-1.335,0.087
												c-0.216,0.056-0.433,0.132-0.618,0.272c-0.195,0.137-0.293,0.383-0.206,0.595c-0.034-0.21,0.114-0.395,0.29-0.456
												c0.178-0.072,0.379-0.09,0.575-0.088c0.396,0.005,0.792,0.097,1.16,0.226C79.166,81.572,79.869,82.14,79.842,82.577z"/>
										</g>
									</g>
								</g>
								<g>
									<g>
										<g>
											<path fill="#FFFFFF" d="M80.549,79.076c0.001,0,0.18,0.091,0.427,0.111c0.241,0.017,0.581-0.016,0.818-0.482
												c-0.393-0.93-1.081-1.901-2.164-2.185c-1.084-0.25-2,0.281-2.712,0.818c0.82-0.375,1.8-0.584,2.492-0.207
												C80.091,77.496,80.422,78.296,80.549,79.076z"/>
										</g>
									</g>
								</g>
								<g>
									<g>
										<path fill="#FFFFFF" d="M74.075,91.837l-0.182,0.578c-0.017,0.034-0.206,0.592-0.289,1.183
											c-0.096,0.59-0.078,1.195-0.098,1.311c-0.001-0.003-0.113,0.832,0.041,1.698c0.129,0.868,0.525,1.709,0.524,1.793
											c0,0-0.048,0.095-0.088,0.053c-0.017-0.02-0.564-0.809-0.842-1.732c-0.303-0.914-0.301-1.894-0.296-1.889
											c0.088-1.114,0.442-2.184,1.027-3.114C73.872,91.713,74.105,91.425,74.075,91.837z"/>
									</g>
								</g>
								<g>
									<g>
										<path fill="#FFFFFF" d="M70.969,97.235c-0.007,0.023-0.575-0.236-0.645-0.312c-0.028-0.026-0.628-0.465-0.95-1.167
											c-0.348-0.683-0.391-1.492-0.358-1.638c0,0.01,0.083-1.107,0.711-1.998c0.303-0.442,0.729-0.807,1.118-0.942
											c0.386-0.148,0.673-0.092,0.709-0.076c0.001,0,0.06,0.089,0.002,0.109c-0.011,0.012-0.265,0.001-0.574,0.176
											c-0.315,0.157-0.645,0.523-0.864,0.95c-0.46,0.872-0.4,1.875-0.402,1.861c-0.077,1.096,0.376,2.255,1.371,2.817
											C71.082,97.012,71.416,97.242,70.969,97.235z"/>
									</g>
								</g>
							</g>
							<g>
								<g>
									<path fill="#3F3B3C" d="M76.909,99.202c0.009-0.021-4.567-0.771-5.244-1.042l-0.774-0.242
										c-0.432-0.153-1.031-0.344-1.728-0.785c-0.335-0.22-0.745-0.547-0.979-1.081c-0.208-0.466-0.301-0.984-0.318-1.516
										c-0.01-0.532,0.06-1.078,0.198-1.617c0.154-0.561,0.281-0.97,0.739-1.838c0.183-0.076,0.403-0.26,0.567-0.244
										c0.177,0.005,0.419-0.073,0.694-0.064c0.331,0.095,0.432,0.094,0.6,0.125c0.333,0.047,0.631,0.08,1.014,0.109
										c0.595,0.107,0.933,0.023,1.316-0.202c0.18-0.112,0.346-0.266,0.493-0.444c0.073-0.089,0.142-0.185,0.202-0.284
										c0.042-0.075,0.038-0.07,0.045-0.11l-0.008-0.038l-0.003-0.196l0.01-0.419l0.051-0.783l0.146-1.462
										c0.107-0.936,0.224-1.797,0.332-2.555c0.218-1.515,0.406-2.616,0.504-3.03l1.374-6.427
										c0.144-0.165,0.362-0.411,0.459-0.503c0.12-0.116,0.246-0.229,0.381-0.337c0.271-0.215,0.576-0.413,0.915-0.564
										c0.675-0.314,1.481-0.412,2.222-0.291c0.746,0.115,1.43,0.406,2.048,0.771c0.31,0.183,0.606,0.386,0.889,0.604
										c0.325,0.245,0.785,0.642,1.097,0.976c-0.019,0.208-0.011,0.361,0.007,0.497c0.015,0.075,0.028,0.139-0.04,0.126
										c-0.047,0.014-0.098,0.044-0.152,0.085c-0.149,0.121-0.322,0.351-0.502,0.628c-0.145,0.158-0.195,0.201-0.265,0.288
										c-0.067,0.082-0.134,0.169-0.197,0.26c-0.127,0.182-0.245,0.378-0.357,0.581c-0.223,0.406-0.418,0.837-0.598,1.274
										c-0.356,0.876-0.648,1.776-0.904,2.66c-0.507,1.77-0.871,3.476-1.122,4.973c-0.224,1.495-0.447,2.8-0.181,3.748
										c0.108,0.468,0.345,0.852,0.635,1.012c0.287,0.162,0.525,0.13,0.612,0.133c-0.001,0.001,0.145,0.038,0.238,0.076
										c0.088,0.028,0.133,0.138-0.223,0.235c-0.041,0.002-0.276,0.073-0.645-0.041c-0.374-0.095-0.812-0.546-0.993-1.056
										c-0.103-0.257-0.176-0.535-0.229-0.832c-0.061-0.315-0.071-0.648-0.072-0.974c0-0.66,0.052-1.376,0.13-2.152
										c0.162-1.549,0.434-3.326,0.863-5.208c0.217-0.94,0.472-1.907,0.808-2.881c0.169-0.487,0.358-0.977,0.593-1.465
										c0.118-0.244,0.247-0.488,0.397-0.731c0.076-0.122,0.158-0.243,0.247-0.363c0.083-0.112,0.226-0.279,0.216-0.266
										c0.043-0.049,0.092-0.092,0.147-0.116c0.148-0.004,0.013-0.079-0.051-0.138l-0.108-0.082l-0.166-0.115
										c-0.25-0.175-0.505-0.333-0.763-0.47c-0.515-0.275-1.045-0.462-1.539-0.516c-0.495-0.055-0.941,0.024-1.332,0.224
										c-0.197,0.097-0.379,0.228-0.551,0.376c-0.086,0.074-0.168,0.156-0.248,0.239l-0.066,0.076l-0.018,0.027l-1.078,6.486
										c-0.248,1.318-0.487,2.638-0.706,3.955l-0.301,1.97l-0.117,0.969l-0.038,0.465l-0.008,0.213
										c-0.002,0.094,0.015,0.295,0.027,0.435c-0.098,0.245-0.258,0.539-0.386,0.718c-0.11,0.161-0.231,0.314-0.364,0.461
										c-0.266,0.291-0.58,0.556-0.948,0.758c-0.365,0.204-0.782,0.338-1.2,0.385c-0.208,0.021-0.418,0.028-0.621,0.011
										c-0.103-0.005-0.201-0.021-0.301-0.034l-0.146-0.026c-0.057-0.012-0.099-0.02-0.079-0.017
										c-0.598-0.062-1.692-0.279-1.583-0.301c-0.041-0.033-0.049,0.049-0.076,0.07c-0.006-0.033-0.316,0.637-0.424,1.063
										c-0.137,0.471-0.203,0.952-0.177,1.406c0.011,0.227,0.051,0.445,0.113,0.644c0.075,0.227,0.104,0.276,0.247,0.437
										c0.271,0.278,0.718,0.538,1.188,0.747c1.936,0.835,4.172,1.267,6.344,1.879C77.105,98.503,80.113,99.526,76.909,99.202z"/>
								</g>
							</g>
							<g>
								<g>
									<g>
										<path fill="#3F3B3C" d="M73.09,139.711c-0.003,0,0.489,2.038,1.016,3.003c0.55,0.964,0.938,0.862,0.917-3.249
											c-1.031-7.455-1.398-15.042-0.79-22.555c0.652-7.484,2.233-15.016,6.178-21.544c0.694-1.83,1.589-3.5,2.698-5.069
											c1.108-1.55,2.456-2.962,4.109-3.916c1.642-0.963,3.624-1.331,5.515-0.976c1.896,0.341,3.648,1.269,5.213,2.394
											c-1.533-1.168-3.262-2.153-5.183-2.555c-1.912-0.417-3.977-0.101-5.705,0.85c-1.739,0.938-3.166,2.355-4.347,3.91
											c-1.174,1.556-2.162,3.303-2.894,5.07c-2.057,3.164-3.586,6.783-4.671,10.442c-1.092,3.678-1.784,7.463-2.211,11.268
											C72.103,124.402,72.256,132.094,73.09,139.711z"/>
									</g>
								</g>
							</g>
							<path fill="#AC4018" d="M59.85,159.56c20.956-4.771,37.148-1.189,37.148-1.189c1.308,0.199,1.815,0.858,1.815,0.858
								s0.469,1.312,0.208,2.103c0,0-11.28-2.973-12.755-1.906l-1.252-1.487c-0.143-0.01,0.775-0.159,0.775-0.159l-13.381,1.05
								l-2.6,6.302l-2.269-0.892l1.315-5.034c0,0-2.608,0.523-2.975,0.355c-0.365-0.167,0.506-0.355,0.506-0.355
								s-4.881,0.937-5.525,1.061c-0.643,0.126-0.101-0.299-0.101-0.299C59.55,159.787,59.85,159.56,59.85,159.56z"/>
							<g>
								<g>
									<path fill="#3F3B3C" d="M59.833,160.583c0,0.001-1.381,0.369-2.842,0.826c-1.465,0.448-2.985,1.023-3.373,1.174
										c-0.07,0.026-0.32,0.12-0.708,0.287c-0.193,0.084-0.42,0.187-0.671,0.313l-0.39,0.21l-0.202,0.121
										c-0.112,0.073-0.214,0.136-0.321,0.223c-0.122,0.093-0.253,0.174-0.375,0.224c-0.065,0.032-0.116,0.043-0.175,0.066
										c-0.063-0.078-0.135-0.024-0.198-0.061c-0.258-0.094-0.51-0.368-0.753-0.608c-0.413-0.421-0.726-0.759-1.115-1.182
										l-1.167-1.296l-0.613-0.699c-0.258-0.318-0.391-0.511-0.601-0.811c-1.532-2.183-2.683-4.914-3.357-7.6
										c-0.686-2.687-0.954-5.3-1.063-7.352c-0.107-2.051-0.069-3.559-0.032-4.114c0.013,0.002,0.073-2.413,0.567-6.003
										c0.478-3.592,1.472-8.336,2.898-12.99c1.411-4.663,3.22-9.216,4.611-12.73c0.702-1.754,1.292-3.259,1.821-4.323
										c0.521-1.068,0.961-1.693,1.087-1.843c0.002-0.003,0.527-0.37,0.265,0.161c-0.03,0.067-0.378,0.626-0.819,1.647
										c-0.455,1.014-0.96,2.506-1.585,4.303c-1.231,3.579-2.894,8.287-4.141,13.063c-1.268,4.777-2.084,9.629-2.416,13.28
										c-0.344,3.652-0.299,6.087-0.308,6.086c-0.112,4.15,0.1,8.327,1.253,12.251c0.573,1.952,1.4,3.84,2.498,5.519
										c0.128,0.188,0.32,0.49,0.415,0.597l0.492,0.605l1.005,1.208l1.021,1.179l0.234,0.259c0.062,0.107,0.135,0.007,0.207-0.031
										l0.363-0.2c0.184-0.094,0.367-0.181,0.55-0.263c0.367-0.162,0.734-0.306,1.102-0.438c0.736-0.265,1.476-0.49,2.217-0.696
										c1.482-0.412,2.973-0.751,4.469-1.055C59.69,159.878,63.541,159.249,59.833,160.583z"/>
								</g>
							</g>
							<g>
								<g>
									<g>
										<path fill="#3F3B3C" d="M96.4,158.915c-0.002-0.004,3.25,0.087,0.048-0.515c-4.5-0.374-9.009-0.607-13.522-0.67
											c-2.256-0.026-4.514-0.009-6.768,0.111c-2.246,0.142-4.522,0.293-6.685,0.955c2.173-0.62,4.446-0.727,6.69-0.826
											c2.251-0.076,4.505-0.051,6.756,0.019C87.423,158.137,91.921,158.457,96.4,158.915z"/>
									</g>
								</g>
							</g>
						</g>
						<path fill="#231F20" d="M116.618,129.802c-3.911-4.008-9.546-5.752-15.159-5.355c-0.993,0.071-2.787,0.695-3.711,0.435
							c0.002,0,9.045,2.553,9.864,4.097c0,0,0.937,1.283,1.768,0.702c2.014-1.414,6.029-0.33,7.596,1.073
							C116.526,130.147,117.134,130.326,116.618,129.802z"/>
						<path fill="#231F20" d="M116.618,135.087c-3.911-4.006-9.546-5.749-15.159-5.354c-0.993,0.069-2.787,0.694-3.711,0.434
							c0.002,0,9.045,2.555,9.864,4.099c0,0,0.937,1.283,1.768,0.701c2.014-1.414,7.122,0.414,8.689,1.814
							C117.618,136.178,117.134,135.612,116.618,135.087z"/>
						<ellipse fill="#FCCFA9" cx="108.763" cy="118.655" rx="5.177" ry="5.169"/>
						<g>
							<g>
								<path fill="#3F3B3C" d="M116.066,121.591c0.017-0.006,1.485,4.86,1.629,5.605c0.078,0.369,1.506,5.917,2.561,11.772
									c0.533,2.925,0.972,5.926,1.215,8.357c0.25,2.43,0.31,4.288,0.286,4.891c-0.025-0.001,0.064,2.212-0.38,5.544
									c-0.254,1.655-0.613,3.628-1.645,5.584c-0.526,0.959-1.271,1.931-2.345,2.542c-0.531,0.304-1.124,0.506-1.725,0.593
									c-0.3,0.043-0.602,0.064-0.9,0.058c-0.149,0-0.297-0.011-0.445-0.022l-0.527-0.059l-2.828-1.591l-2.69-1.456
									c-1.758-0.932-3.428-1.775-4.902-2.465c-1.475-0.691-2.756-1.227-3.73-1.553c-0.971-0.336-1.648-0.424-1.841-0.433
									c0.033-0.014-0.69-0.186-0.015-0.31c0.09-0.021,0.788-0.028,1.769,0.233c0.992,0.247,2.314,0.704,3.851,1.322
									c1.537,0.618,3.288,1.394,5.141,2.265l2.841,1.37l2.776,1.399l0.237,0.013c0.123,0.004,0.245,0.007,0.365,0.001
									c0.241-0.006,0.478-0.033,0.705-0.08c0.457-0.091,0.879-0.264,1.254-0.514c0.754-0.496,1.318-1.288,1.717-2.154
									c0.8-1.749,1.062-3.671,1.217-5.286c0.263-3.268,0.072-5.503,0.095-5.499c-0.073-5.008-0.672-10.045-1.445-15.042
									c-0.786-5-1.774-9.979-2.93-14.914C115.384,121.764,114.654,118.396,116.066,121.591z"/>
							</g>
						</g>
					</g>
					<g>
						<g>
							<path fill="#FCCFA9" d="M142.325,79.001c0,0,2.523-1.674,0.696-4.917c0,0-4.062-8.426-6.337-4.987
								C136.685,69.097,134.556,78.815,142.325,79.001z"/>
							<g>
								<g>
									<path fill="#3F3B3C" d="M143.048,77.812c0.019,0.007-0.35,0.666-0.612,0.974c-0.118,0.159-0.179,0.259-0.017,0.218
										c0.147-0.054,0.56-0.235,1.064-0.946c0.612-1.063,0.527-2.399,0.043-3.445c-0.502-1.027-1.042-2.01-1.654-2.961
										c-0.616-0.944-1.278-1.873-2.126-2.648c-0.427-0.375-0.912-0.74-1.52-0.848c-0.628-0.129-1.243,0.269-1.556,0.747
										c-0.027,0.053-0.113,0.124-0.118,0.232l-0.037,0.209l-0.062,0.419c-0.037,0.28-0.065,0.561-0.087,0.842
										c-0.042,0.562-0.056,1.127-0.035,1.69c0.043,1.125,0.223,2.258,0.651,3.307c0.422,1.045,1.146,1.989,2.118,2.571
										c0.969,0.592,2.111,0.81,3.226,0.829c-1.114-0.039-2.248-0.279-3.192-0.882c-0.95-0.592-1.64-1.53-2.036-2.564
										c-0.401-1.038-0.557-2.156-0.58-3.266c-0.011-0.556,0.013-1.113,0.065-1.667c0.027-0.277,0.06-0.553,0.102-0.828
										l0.068-0.411l0.04-0.203c-0.001-0.04,0.035-0.066,0.078-0.132c0.31-0.436,0.799-0.729,1.309-0.618
										c0.505,0.097,0.959,0.436,1.356,0.802c0.795,0.753,1.433,1.678,2.02,2.617c0.584,0.943,1.105,1.939,1.569,2.932
										C143.551,75.768,143.587,76.911,143.048,77.812z"/>
								</g>
							</g>
						</g>
						<g>
							<path fill="#FCCFA9" d="M111.558,119.753c0,0,14.126-11.113,17.467-18.654c3.336-7.525,8.754-21.338,8.754-21.338l0.053-2.29
								c0,0-1.146-1.231-2.123-1.058c0,0-3.674,14.947-12.873,26.77c-5.565,7.151-11.608,10.701-16.926,14.117"/>
							<g>
								<g>
									<path fill="#3F3B3C" d="M115.159,115.761c0.005,0.005-2.145,2.085-3.144,3.232c-1.015,1.122-0.725,1.521,4.128-2.106
										c3.021-2.689,5.948-5.493,8.626-8.556c1.332-1.537,2.606-3.137,3.69-4.897c0.542-0.862,1.025-1.848,1.399-2.766
										l1.175-2.786c1.544-3.721,3.034-7.46,4.507-11.205l2.193-5.624l0.271-0.704l0.146-0.377
										c0.048-0.089,0.057-0.186,0.051-0.286l0.003-0.206l0.023-1.508l0.003-0.492c0.062-0.217-0.169-0.317-0.285-0.459
										c-0.265-0.242-0.431-0.366-0.677-0.531c-0.115-0.076-0.235-0.148-0.364-0.211c-0.063-0.033-0.127-0.064-0.196-0.091
										c-0.088-0.038-0.18-0.071-0.271-0.093c-0.355-0.104-0.751-0.104-1.051-0.006c-0.227,0.927-0.343,1.32-0.493,1.855
										l-0.461,1.549c-0.319,1.03-0.659,2.054-1.017,3.072c-0.717,2.035-1.505,4.046-2.368,6.025
										c-1.726,3.956-3.743,7.794-6.134,11.391c-2.378,3.604-5.192,6.926-8.458,9.765c-3.248,2.864-6.914,5.204-10.548,7.555
										c3.668-2.296,7.37-4.582,10.674-7.408c3.321-2.8,6.208-6.104,8.653-9.694c2.461-3.584,4.547-7.416,6.345-11.372
										c0.898-1.979,1.722-3.992,2.475-6.032c0.376-1.02,0.733-2.047,1.071-3.082l0.489-1.558l0.371-1.28
										c0.198-0.094,0.409,0.01,0.843,0.279c0.173,0.114,0.401,0.303,0.505,0.402c0.034,0.042,0.104,0.072,0.083,0.137
										l-0.009,0.26l-0.046,1.508c-0.01,0.152,0.006,0.21-0.021,0.25l-0.131,0.325l-0.282,0.699l-2.274,5.586
										c-1.528,3.719-3.072,7.431-4.666,11.118l-1.211,2.755c-0.401,0.938-0.821,1.756-1.358,2.593
										c-1.051,1.652-2.312,3.193-3.637,4.674C121.12,110.417,118.185,113.147,115.159,115.761z"/>
								</g>
							</g>
						</g>
						<g>
							<path fill="#FCCFA9" d="M137.656,79.155c0.308-0.145,3.635,0.828,4.597-1.607c0,0,0.524-2.525-2.249-2.072
								c-2.772,0.452-2.567,1.824-2.567,1.824S135.831,80.021,137.656,79.155z"/>
							<g>
								<g>
									<path fill="#3F3B3C" d="M138.453,78.942c0,0.004-0.434,0.01-0.678,0.096c-0.138,0.048-0.152,0.129-0.072,0.163
										c0.073,0.046,0.27,0.13,0.708,0.239c0.971,0.065,2.049,0.047,2.954-0.517c0.444-0.279,0.797-0.705,0.994-1.181
										c0.179-0.555,0.109-1.052-0.091-1.553c-0.213-0.504-0.749-0.817-1.253-0.864c-0.512-0.065-1.008,0.029-1.483,0.141
										c-0.477,0.119-0.952,0.281-1.37,0.557c-0.408,0.267-0.783,0.705-0.778,1.227l0.003,0.035c0,0.011-0.01,0.021-0.014,0.031
										c-0.222,0.417-0.441,0.865-0.562,1.337c-0.043,0.213-0.119,0.551,0.148,0.667c0.25,0.056,0.484-0.065,0.699-0.163
										c-0.217,0.091-0.46,0.2-0.691,0.14c-0.235-0.106-0.161-0.421-0.109-0.631c0.137-0.463,0.36-0.885,0.607-1.312
										c0.006-0.016,0.017-0.031,0.019-0.047l0.002-0.051c0.01-0.477,0.363-0.863,0.758-1.104
										c0.403-0.247,0.866-0.389,1.332-0.488c0.469-0.094,0.948-0.164,1.402-0.088c0.455,0.064,0.854,0.326,1.017,0.739
										c0.16,0.386,0.185,0.935,0.046,1.287c-0.188,0.415-0.498,0.759-0.884,0.984C140.372,79.039,139.389,79.041,138.453,78.942z
										"/>
								</g>
							</g>
						</g>
						<g>
							<g>
								<path fill="#1661AD" d="M138.822,80.347l-3.47-1.187c0,0-0.595-1.324-1.424-1.166c0,0-1.272,0.521-0.686,1.369
									c0,0-1.84,2.007-0.906,3.69c0,0-1.211-0.042-0.41,0.979c0,0,4.197,4.192,5.825,0.761l-0.304-0.459l0.881-2.519
									C138.329,81.815,140.373,81.469,138.822,80.347z"/>
								<g>
									<path fill="#231F20" d="M139.008,80.165c-1.036-0.354-2.072-0.708-3.109-1.063c-0.583-0.2-0.845-1.416-1.933-1.298
										c-0.262,0.029-0.59,0.244-0.768,0.417c-0.127,0.124-0.294,0.267-0.349,0.444c-0.014,0.044-0.055,0.855,0.119,0.66
										c-0.924,1.04-1.536,2.472-0.94,3.812c0.142-0.092,0.283-0.184,0.425-0.275c-2.117-0.002-0.404,1.709,0.379,2.29
										c1.699,1.259,4.038,1.863,5.21-0.342c0.028-0.053,0.028-0.092-0.005-0.142c-0.51-0.772,0.308-2.043,0.602-2.885
										c-0.116,0.075-0.232,0.149-0.348,0.224c1.11-0.209,1.926-0.867,0.816-1.785c-0.183-0.152-0.762,0.095-0.571,0.252
										c0.573,0.474,0.679,0.993-0.17,1.153c-0.141,0.027-0.296,0.075-0.348,0.224c-0.242,0.692-0.484,1.384-0.727,2.077
										c-0.038,0.109-0.187,0.364-0.153,0.491c0.028,0.106,0.202,0.313,0.249,0.383c0.198,0.299-0.726,0.96-0.865,1.034
										c-1,0.531-2.421-0.448-3.204-1.001c0.085,0.061-1.919-1.587-1.098-1.587c0.102,0,0.509-0.085,0.425-0.275
										c-0.554-1.249-0.016-2.57,0.849-3.543c0.029-0.033,0.083-0.096,0.058-0.147c-0.221-0.456,0.003-0.891,0.461-1.122
										c0.312-0.157,0.891,0.813,1.009,1.039c0.095,0.182,0.321,0.204,0.506,0.268c1.036,0.354,2.073,0.708,3.109,1.063
										C138.854,80.603,139.364,80.287,139.008,80.165z"/>
								</g>
							</g>
							<g>
								<path fill="#1661AD" d="M134.671,80.735c0,0,2.438,1.158,4.025,0.922"/>
								<g>
									<path fill="#231F20" d="M134.503,80.82c1.267,0.595,2.745,1.083,4.158,0.923c0.177-0.02,0.361-0.205,0.071-0.172
										c-1.3,0.147-2.727-0.373-3.893-0.921C134.744,80.605,134.365,80.756,134.503,80.82L134.503,80.82z"/>
								</g>
							</g>
						</g>
					</g>
				</g>
			</g>
		</g>
		<path fill="#FAD4A6" stroke="#231F20" stroke-width="2.5514" stroke-miterlimit="10" d="M193.21,84.581
			c0.039-0.307,0.066-0.614,0.068-0.93c3.637-2.386,6.004-6.982,5.787-12.177c-0.045-1.101-0.217-2.161-0.475-3.175
			c1.8-2.088,2.871-5.157,2.733-8.533c-0.157-3.702-1.738-6.91-4.024-8.795c-2.505-4.568,3.188-6.854,3.01-11.182
			c-0.129-3.029-2.594-5.465-5.76-5.93c0.002-0.201,0.011-0.395,0.002-0.596c-0.213-5.094-4.184-9.058-8.87-8.865
			c-0.335,0.014-0.661,0.053-0.985,0.107c-0.306-1.572-1.436-2.739-2.781-2.739c-0.533,0-1.031,0.186-1.459,0.503
			c-2.109-1.466-4.682-2.329-7.461-2.329c-4.389,0-8.265,2.149-10.611,5.438c-1.104-0.615-2.344-0.985-3.668-1.019
			c-4.689-0.115-8.595,3.921-8.719,9.015c-0.008,0.198,0.003,0.396,0.011,0.597c-3.16,0.52-5.585,2.992-5.657,6.028
			c-0.109,4.332,5.623,6.518,3.193,11.124c-2.255,1.926-3.779,5.16-3.87,8.865c-0.021,0.867,0.039,1.71,0.168,2.521
			c-0.585,0.186-1.299,0.799-1.725,1.202c-0.213-1.291-0.245-2.844,0.29-4.51c-1.02-1.213-5.694-1.308-6.114,0.317
			c-0.7,2.711,0.642,7.364,1.241,8.351c0.961,1.581,1.061,2.387,1.061,2.387c0.005,0.006,0.247,0.396,0.617,1.093l-0.966,0.227
			l1.417,3.934l1.227-0.506c0.116,0.293,0.231,0.59,0.347,0.902c2.124,5.758,4.47,14.263,11.368,13.563
			c0.812-0.083,1.277-0.156,1.906-0.479c0.809,0.738,1.783,1.293,2.866,1.606c-0.005,0.028-0.011,0.057-0.017,0.083
			c-0.445,2.166-0.885,4.482-1.295,6.918c-0.018,0.096-0.034,0.19-0.049,0.275c0,0-2.223,11.441-2.263,24.12h-0.002
			c-0.038,0.313-0.057,0.741-0.063,1.249c-0.008-0.003-0.016-0.006-0.023-0.008l0.023,1.105c-0.007-0.002-0.016-0.005-0.023-0.006
			l0.037,1.727c0.016,0.004,0.034,0.008,0.049,0.014c0.181,4.186,0.693,9.93,0.861,11.752c-0.002,0-0.004,0-0.008,0l0.049,0.447
			c0.008,0.081,0.013,0.131,0.013,0.131c0.001,0,0.001,0,0.002,0l0.065,0.609c0.057-0.002,0.109-0.002,0.165-0.004
			c0.4,5.285,0.955,11.016,1.655,16.603c-0.214,0.044-0.331,0.069-0.331,0.069l0.636,4.664c0.11-0.023,0.213-0.042,0.322-0.065
			c0.308,2.147,0.637,4.244,0.985,6.256c-0.671,0.233-1.074,0.428-1.074,0.428l0.362,2.062c0.048,0.286,0.108,0.636,0.182,1.035
			l0.167,0.952l0.011-0.001c0.012,0.058,0.024,0.118,0.035,0.178c0.11,0.601,0.248,1.253,0.382,1.845
			c0.147,0.726,0.358,1.566,0.52,2.176c0.7,2.764,1.655,5.782,2.864,7.947c0,0-3.812,0.235-6.599,1.56
			c-1.872,0.888-5.156,3.831-3.556,3.831c1.535,0,9.941-0.871,15.812-0.559c0,0,2.157,0.488,1.462-3.2
			c-0.373-1.977-0.5-4.472-0.439-7.254c0.008,0.005,0.014,0.008,0.014,0.008l0.057-1.296c0.001,0.002,0.004,0.003,0.004,0.003
			l0.129-2.809c0.114-1.559,0.271-3.165,0.461-4.791c0,0-0.016-0.003-0.038-0.007l0.058-0.049c-0.476-0.535-0.98-0.974-1.503-1.338
			c0.004-2.575,0.052-5.246,0.157-7.899c0.293,0.021,0.445,0.041,0.445,0.041l0.113-4.227c-0.113-0.014-0.225-0.026-0.338-0.04
			c0.285-4.312,0.752-8.406,1.471-11.754l0.293-1.137c-0.004-0.006-0.014-0.016-0.023-0.024c0.047-0.192,0.096-0.384,0.146-0.569
			c1.226-3.828,2.798-3.576,2.798-3.576c1.506,0,2.554,2.854,2.97,4.221l0.218,0.904c0.79,3.594,1.282,8.068,1.565,12.766
			c-0.162,0.042-0.321,0.085-0.479,0.131l0.453,4.322c0,0,0.083-0.035,0.231-0.088c0.078,2.306,0.116,4.614,0.121,6.853
			c-0.513,0.337-1.033,0.723-1.562,1.181l0.027,0.026h-0.002c0.225,1.739,0.361,3.491,0.434,5.2l0.047,1.517
			c0.006,0.282,0.01,0.561,0.014,0.841l-0.008,1.418c0,0,0.006-0.004,0.012-0.009c-0.025,3.689-0.292,6.926-0.521,9.047
			c0,0-0.705,2.583,3.211,2.104c1.404-0.172,2.742-0.195,3.971-0.266c3.761-0.204,8.627,0.517,10.01,0.239
			c1.394-0.28,0.418-1.742,0.418-1.742c-5.711-3.759-10.191-3.578-10.191-3.578c1.08-1.934,1.992-4.717,2.708-7.432l0.009,0.021
			c0,0,0.121-0.482,0.273-1.129c0.022-0.087,0.043-0.172,0.064-0.258c0.164-0.627,0.562-2.197,0.765-3.441
			c0.425-2.087,0.669-3.627,0.713-3.915l0.06-0.054c0,0-0.407-0.319-1.131-0.668c0.335-2.128,0.638-4.342,0.913-6.599
			c0.083,0.012,0.163,0.021,0.247,0.034l0.626-4.599c0,0-0.128-0.009-0.356-0.021c0.566-5.457,0.986-11.001,1.303-16.088
			c0.014,0,0.029,0,0.044,0.002l0.058-0.579c0.001,0,0.006,0.002,0.006,0.002c0.482-3.517,0.646-9.63,0.7-13.347l0.035-0.941
			c-0.008,0.004-0.015,0.006-0.022,0.008c0.002-0.246,0.004-0.473,0.007-0.686l0.016-0.422c-0.005,0.002-0.009,0.002-0.012,0.003
			c0.005-0.704,0.005-1.119,0.005-1.119c-0.001,0-0.002,0.002-0.002,0.002c0.01-0.254,0.021-0.5,0.03-0.731
			c0,0-0.07-3.895-0.139-3.884c-0.015-0.183-0.032-0.381-0.048-0.581c-0.068-1.606-0.159-3.171-0.265-4.678
			c2.387,3.256,7.532,7.65,9.262,5.054c2.381-3.586-4.241-7.106-4.502-7.407c-0.259-0.299-0.04-1.105-0.04-1.105
			c0.279-0.437,0.623-0.981,1.018-1.621l0.33,0.175l0.385-0.604l0.188-0.271l-0.013-0.007l0.87-1.372l-0.349-0.261
			c0.947-1.611,2.027-3.522,3.137-5.633C202.603,94.744,198.278,89.188,193.21,84.581z M148.349,81.995
			c-1.803-1.996-2.82-5.554-3.593-8.578l0.95-0.391l-0.584-1.809l0.014-0.002l-0.114-0.312l-0.276-0.855l-0.816,0.192
			c-0.264-0.907-0.521-1.602-0.809-1.954c0,0-0.298-0.771-0.076-1.091c0.025-0.037,0.018-0.12-0.013-0.238
			c0.405-0.316,1.069-1.075,1.46-1.986c0.495,1.338,1.193,2.532,2.055,3.502c-0.239,1.016-0.395,2.078-0.421,3.181
			c-0.13,5.196,2.314,9.756,5.992,12.077c0.003,0.192,0.021,0.381,0.038,0.57C151.005,84.239,149.776,83.579,148.349,81.995z
			 M196.114,96.74c-0.965,1.839-1.913,3.53-2.766,4.989l-0.234-0.178l-2.011,2.947l0.438,0.23c-0.916,1.474-1.502,2.344-1.517,2.365
			c0,0-0.102,0.145-0.312,0.529c-0.627-6.644-1.409-11.281-1.409-11.281c-0.216-1.976-0.465-3.841-0.732-5.588
			c1.257-0.277,2.384-0.879,3.299-1.709C194.561,92.528,196.747,95.536,196.114,96.74z"/>
		<g>
			<g>
				<g>
					<path fill="#1F2342" d="M201.324,59.767c-0.157-3.702-1.738-6.91-4.024-8.795c-2.505-4.568,3.188-6.854,3.01-11.182
						c-0.129-3.029-2.594-5.465-5.76-5.93c0.002-0.201,0.011-0.395,0.002-0.596c-0.213-5.094-4.184-9.058-8.87-8.865
						c-4.688,0.192-8.315,4.48-8.106,9.574c0.063,1.453,0.439,2.814,1.047,4.02l3.186,22.192c-3.713,2.356-6.142,6.999-5.923,12.249
						c0.14,3.377,1.355,6.412,3.231,8.692c-0.318,0.871-0.479,1.821-0.436,2.808c0.166,4.028,3.57,7.158,7.601,6.994
						c3.926-0.162,6.985-3.389,6.997-7.277c3.637-2.386,6.004-6.982,5.787-12.177c-0.045-1.101-0.217-2.161-0.475-3.175
						C200.391,66.212,201.462,63.143,201.324,59.767z"/>
					<path fill="#1F2342" d="M143.674,59.989c0.091-3.705,1.615-6.939,3.87-8.865c2.43-4.606-3.303-6.792-3.193-11.124
						c0.072-3.036,2.497-5.509,5.657-6.028c-0.008-0.201-0.019-0.398-0.011-0.597c0.124-5.094,4.029-9.13,8.719-9.015
						c4.689,0.117,8.391,4.344,8.264,9.433c-0.037,1.458-0.39,2.826-0.976,4.036l-2.813,22.248c3.752,2.295,6.257,6.89,6.129,12.152
						c-0.085,3.371-1.246,6.428-3.082,8.742c0.328,0.864,0.505,1.806,0.48,2.795c-0.1,4.037-3.452,7.222-7.485,7.126
						c-3.926-0.098-7.041-3.272-7.115-7.161c-3.678-2.321-6.122-6.881-5.992-12.077c0.026-1.103,0.182-2.165,0.421-3.181
						C144.714,66.413,143.59,63.366,143.674,59.989z"/>
					<path fill="#FAD4A6" d="M193.013,187.341c-1.787-1.927-8.982-2.762-10.348-2.788c-1.37-0.024-0.445-1.011-0.445-1.011
						c6.521-11.619,7.829-50.839,8.312-62.338c0,0-0.07-3.895-0.139-3.884c-0.562-6.804-2.28-25.42-5.493-42.213l-1.584,0.16
						l1.34-18.304l-23.261-3.051l0.12,20.277c0,0-10.596,33.068-6.941,60.653h0.034c1.073,17.007,3.991,41.081,8.267,48.698
						c0,0,0.922,0.986-0.443,1.011c-1.368,0.026-8.564,0.861-10.352,2.788c0,0,0.124,0.818,2.209,0.647
						c2.084-0.172,7.771-2.042,12.689-0.537c0,0,2.364,0.864,1.431-1.312c-0.76-1.759-2.463-35.739,2.231-47.254
						c0.642-0.656,1.863-1.386,3.664-0.342c4.877,11.164,3.146,45.816,2.384,47.596c-0.938,2.177,1.428,1.312,1.428,1.312
						c4.918-1.505,11.086,0.869,13.169,1.037C193.371,188.662,193.013,187.341,193.013,187.341z"/>
					<path fill="#1D1F40" d="M167.694,63.399l0.359,0.469c1.234,1.605,2.479,2.483,3.704,2.627c2.521,0.278,3.975-2.647,4.031-2.77
						l0.214-0.426L167.694,63.399z"/>
					<g>
						<g>
							<path fill="#F39E51" d="M173.747,67.283c-0.897,0.934-2.171,1.039-3.057,0.03c-0.071-0.086-0.427,0.345-0.312,0.469
								c0.998,1.145,2.394,0.828,3.352-0.164C173.843,67.514,174.001,67.025,173.747,67.283L173.747,67.283z"/>
						</g>
					</g>
					<path fill="none" d="M190.581,120.67c0.01-0.217,0.021-0.438,0.021-0.666C190.596,120.226,190.589,120.448,190.581,120.67z"/>
					<path fill="#7C93A0" d="M176.811,156.095l0.453,4.322c0,0,4.109-1.777,10.831-0.697l0.626-4.599
						C188.721,155.121,181.824,154.638,176.811,156.095z"/>
					<path fill="#E85025" stroke="#FCEA03" stroke-width="0.6268" stroke-miterlimit="10" d="M186.505,156.795
						c-0.151,2.562-1.463,4.565-2.929,4.478c-1.466-0.087-2.532-2.233-2.38-4.793c0.15-2.562,1.469-4.571,2.934-4.479
						C185.595,152.082,186.657,154.231,186.505,156.795z"/>
					<path fill="#7C93A0" d="M168.19,155.174l-0.113,4.227c0,0-4.258-0.543-11.219,0.946l-0.636-4.664
						C156.223,155.683,161.892,154.365,168.19,155.174z"/>
					<path fill="#E85025" stroke="#FCEA03" stroke-width="0.6142" stroke-miterlimit="10" d="M158.226,157.194
						c0.137,2.38,1.483,4.265,3.008,4.214c1.521-0.044,2.641-2.009,2.504-4.383c-0.142-2.379-1.488-4.263-3.012-4.213
						C159.205,152.86,158.085,154.823,158.226,157.194z"/>
					<path fill="#7C93A0" d="M187.796,42.042c0,0,0-4.021-4.971-2.739c-2.762,0.708-6.469,1.419-10.203,1.753
						c-3.73-0.334-7.438-1.045-10.202-1.753c-4.968-1.281-4.968,2.739-4.968,2.739s-1.914,14.8,0.955,22.652c0,0,0,1.826,3.633,0
						c2.701-1.361,6.888-5.141,10.582-5.488c3.697,0.348,7.881,4.127,10.582,5.488c3.633,1.826,3.633,0,3.633,0
						C189.703,56.842,187.796,42.042,187.796,42.042z"/>
					<path fill="#01519C" d="M153.752,121.994c0,0,17.751,7.612,36.751-0.061c0,0,0,11.204-0.729,16.504
						c0,0-7.918-1.161-14.068,4.571c0,0-1.189-4.936-3.169-4.936c0,0-1.915-0.308-3.165,4.898c0,0-6.301-4.477-14.706-4.566
						C154.666,138.405,153.386,125.012,153.752,121.994z"/>
					<path fill="#01519C" d="M153.909,127.963c-0.863-14.813,2.107-30.089,2.107-30.089c0.627-3.576,3.017-16.715,5.172-22.994
						c0,0,7.038,12.287,11.609,12.194c4.271-0.085,5.726-2.588,11.232-12.092c0,0,2.848,8.325,4.274,21.36
						c0,0,2.873,16.993,2.014,32.574l-19.782,2.198L153.909,127.963z"/>
					<path fill="#01519C" d="M169.333,60.323c-1.592-5.512-3.194-12.422-8.329-15.821c-0.251-0.165,1.49,2.187,1.211,2.062
						c0.49,2.394,1.461,3.654,0.821,6.306c-0.378,1.565,3.303,4.205,3.201,6.118c-0.078,1.373-4.022,3.697-5.71,3.747
						c-1.473,0.035-1.829-1.804-1.962-2.887c-0.517-4.209-0.221-8.524-0.221-12.755c0-1.581,0.176-5.862,3.003-5.463
						c3.837,0.547,8.207,1.508,12.225,0.596v-1.28c0,0-5.419-0.227-8.89-1.51c0,0-7.492-3.331-7.672,4.25
						c-0.074,3.027-0.274,6.289-0.281,9.313c0,2.081,0.043,4.16,0.219,6.234c0.144,1.731,0.195,3.829,1.129,5.35
						c0.938,1.531,2.729,0.783,4.019,0.143C164.607,63.47,166.932,61.782,169.333,60.323z"/>
					<path fill="#01519C" d="M176.225,60.323c1.587-5.512,3.192-12.422,8.33-15.821c0.251-0.165-1.487,2.187-1.214,2.062
						c-0.491,2.394-1.463,3.654-0.819,6.306c0.378,1.565-3.304,4.205-3.199,6.118c0.077,1.373,4.019,3.697,5.71,3.747
						c1.472,0.035,1.828-1.804,1.962-2.887c0.514-4.209,0.216-8.524,0.216-12.755c0-1.581-0.174-5.862-3.002-5.463
						c-3.836,0.547-8.204,1.508-12.225,0.596v-1.28c0,0,5.42-0.227,8.893-1.51c0,0,7.49-3.331,7.672,4.25
						c0.072,3.027,0.277,6.289,0.28,9.313c0.002,2.081-0.042,4.16-0.22,6.234c-0.141,1.731-0.195,3.829-1.128,5.35
						c-0.938,1.531-2.729,0.783-4.02,0.143C180.949,63.47,178.628,61.782,176.225,60.323z"/>
					<path fill="#01519C" d="M176.054,168.362c6.581-5.69,12.012-1.41,12.012-1.41l-2.271,2.062l-8.043,0.888L176.054,168.362z"/>
					<path fill="#01519C" d="M168.978,168.597c-4.596-5.188-11.886-1.632-11.886-1.632l0.711,4.05l9.538-1.112L168.978,168.597z"/>
					<path fill="#01519C" d="M183.237,188.24c-1.229,0.07-2.566,0.094-3.971,0.266c-3.916,0.479-3.211-2.104-3.211-2.104
						c0.404-3.745,0.93-10.97,0.023-18.014c0,0,4.206-1.591,11.936-1.437c0,0-1.68,11.083-4.541,16.207c0,0,4.48-0.181,10.191,3.578
						c0,0,0.976,1.462-0.418,1.742C191.864,188.757,186.998,188.036,183.237,188.24z"/>
					<path fill="#01519C" d="M168.733,184.791c-0.742-3.933-0.507-9.907,0.225-16.139c0,0-3.637-0.718-11.646-0.511
						c0,0,1.44,9.894,4.302,15.018c0,0-3.812,0.235-6.599,1.56c-1.872,0.888-5.156,3.831-3.556,3.831
						c1.535,0,9.941-0.871,15.812-0.559C167.271,187.991,169.429,188.479,168.733,184.791z"/>
					<path fill="#1D1F40" d="M187.069,171.815c0,0-1.281-3.652-2.282-4.023c0,0-5.001,3.576-8.201,5.678l-0.021,3.895
						c0,0,5.383-3.581,7.816-5.893l1.809,4.277C186.19,175.749,186.874,173,187.069,171.815z"/>
					<path fill="#FAC32F" d="M187.329,170.696c0,0-0.533-3.213-1.516-4.13c0,0-6.121,4.429-9.316,6.527l0.089,2.853
						c0,0,6.304-3.839,8.04-5.938l1.826,4.635C186.452,174.644,187.091,172.304,187.329,170.696z"/>
					<path fill="#1D1F40" d="M158.077,172.118c0,0,1.27-3.656,2.265-4.015c0,0,4.958,3.569,8.13,5.673l-0.164,3.769
						c0,0-5.152-3.45-7.566-5.772l-1.768,4.266C158.974,176.038,158.206,173.329,158.077,172.118z"/>
					<path fill="#FAC32F" d="M157.813,170.999c0,0,0.531-3.212,1.508-4.125c0,0,6.015,4.289,9.184,6.39l-0.137,2.988
						c0,0-6.148-3.839-7.867-5.94l-1.812,4.644C158.688,174.955,158.112,172.703,157.813,170.999z"/>
					<g>
						<path fill="#F39E51" d="M175.825,143.611l-0.332-1.368c0.194-0.211,4.713-4.864,14.338-4.416l-0.12,1.188
							C180.65,138.62,175.869,143.564,175.825,143.611z"/>
					</g>
					<g>
						<path fill="#F39E51" d="M169.264,143.611l0.353-1.368c-0.205-0.211-4.934-4.864-15.012-4.416l0.129,1.188
							C164.218,138.62,169.22,143.564,169.264,143.611z"/>
					</g>
					<g>
						<path fill="#1D1F40" d="M190.445,124.775c-6.214,2.357-12.121,2.895-17.771,2.895c-8.723,0-15.876-1.789-18.973-2.707
							l-0.037-1.728c4.394,1.442,20.808,6.008,36.845-0.186L190.445,124.775z"/>
					</g>
					<g>
						<path fill="#FAC32F" d="M190.445,125.871c-6.214,2.357-12.121,2.896-17.771,2.896c-8.723,0-15.876-1.792-18.973-2.706
							l-0.037-1.727c4.394,1.439,20.808,6.005,36.845-0.186L190.445,125.871z"/>
					</g>
					<g>
						<path fill="#FAD4A6" d="M138.595,70.258c0.012,0.015,1.367,2.192,2.642,5.649c2.124,5.758,4.47,14.263,11.368,13.563
							c2.345-0.239,1.799-0.399,10.658-6.705l-2.757-3.87c-4.87,3.468-7.401,8.37-12.157,3.1
							c-3.219-3.566-3.937-12.118-5.229-13.708c0,0-0.298-0.771-0.076-1.091c0.224-0.318-1.979-3.816-0.637-7.993
							c-1.02-1.213-5.694-1.308-6.114,0.317c-0.7,2.711,0.642,7.364,1.241,8.351C138.495,69.452,138.595,70.258,138.595,70.258z"/>
					</g>
					<polygon fill="#1D1F40" points="144.745,70.049 145.706,73.026 139.663,75.511 138.246,71.577 					"/>
					<polygon fill="#FAC32F" points="138.451,72.126 138.866,73.223 145.136,71.216 144.87,70.498 					"/>
					<g>
						<path fill="#FAD4A6" d="M190.025,107.095c0.034-0.049,2.985-4.435,6.089-10.354c1.118-2.124-6.549-9.871-15.767-15.929
							l2.62-4.062c5.072,3.327,21.32,14.783,17.398,22.259c-2.275,4.335-4.441,7.837-5.566,9.595c0,0-0.219,0.807,0.04,1.105
							c0.261,0.301,6.883,3.821,4.502,7.407c-2.382,3.577-11.251-6.113-10.456-7.817
							C189.679,107.584,190.025,107.095,190.025,107.095z"/>
					</g>
					<polygon fill="#1D1F40" points="196.147,107.156 197.578,104.901 193.114,101.552 191.104,104.499 					"/>
					<polygon fill="#FAC32F" points="191.391,104.095 191.967,103.275 196.721,106.28 196.348,106.815 					"/>
					<polygon fill="#A93B24" points="180.188,83.298 183.821,75.907 187.516,78.326 183.118,85.402 					"/>
					<polygon fill="#A93B24" points="161.201,84.317 164.997,81.543 162.062,76.862 160.086,78.773 					"/>
					<g>
						<path fill="#FAC32F" d="M172.96,91.678c-6.324,0-13.572-7.396-17.635-17.981l2.856-1.028
							c3.662,9.552,9.485,16.678,14.778,16.678c5.25,0,11.278-7.126,14.953-16.599l2.62,1.102
							C186.464,84.345,179.236,91.678,172.96,91.678z"/>
					</g>
					<g>
						<path fill="#01519C" d="M172.954,89.647c-4.973,0-10.674-5.812-13.867-14.141l2.242-0.81
							c2.879,7.509,7.463,13.118,11.625,13.118c4.13,0,8.868-5.609,11.757-13.056l2.065,0.87
							C183.572,83.878,177.89,89.647,172.954,89.647z"/>
					</g>
					<g>
						<path fill="#F39E51" d="M172.95,87.897c-3.965,0-8.518-4.642-11.062-11.282l1.366-0.521
							c2.297,5.988,6.375,10.341,9.695,10.341c3.293,0,7.356-4.31,9.658-10.256l1.364,0.532
							C181.42,83.298,176.886,87.897,172.95,87.897z"/>
					</g>
					<g>
						<path fill="#01519C" d="M159.084,70.345l-1.246-0.702c3.54-6.29,9.774-10.684,15.166-10.684
							c5.347,0,11.562,4.353,15.108,10.592l-1.238,0.704c-3.256-5.72-9.09-9.87-13.87-9.87
							C168.184,60.385,162.327,64.572,159.084,70.345z"/>
					</g>
					<polygon fill="#FAC32F" points="187.784,79.698 184.982,84.124 184.187,83.554 185.967,78.42 					"/>
					<path fill="#1F2342" d="M195.509,71.456c0,4.807-3.38,8.703-7.548,8.703c-4.167,0-7.546-3.896-7.546-8.703
						c0-4.812,3.379-8.711,7.546-8.711C192.129,62.745,195.509,66.645,195.509,71.456z"/>
					<polygon fill="#FAC32F" points="158.397,79.893 161.201,84.317 161.997,83.745 160.218,78.606 					"/>
					<ellipse fill="#1F2342" cx="157.721" cy="71.827" rx="6.986" ry="8.777"/>
					<ellipse fill="#1F2342" cx="172.995" cy="32.728" rx="12.971" ry="12.784"/>
					<path fill="#1F2342" d="M184.78,25.356c0,1.988-1.285,3.594-2.865,3.594s-2.863-1.605-2.863-3.594
						c0-1.982,1.283-3.589,2.863-3.589S184.78,23.374,184.78,25.356z"/>
					<g>
						<path fill="#E85025" d="M155.971,98.113"/>
					</g>
					<path fill="#FAD4A6" d="M165.507,45.78c-6.11-4.738-6.42,1.044-5.015,5.172c1.427,4.189,5.478,10.408,9.534,6.463
						c0.494-0.479,1.451-0.934,1.451-0.934c0.447-0.188,0.988-0.338,1.559-0.384c0.575,0.046,1.113,0.2,1.566,0.384
						c0,0,0.994,0.397,1.445,0.942c2.382,2.866,7.327-2.186,8.766-6.367c1.438-4.179,1.928-10.123-4.448-5.068
						c0,0-0.706,0.61-1.739,1.243C178.626,47.231,172.224,51.379,165.507,45.78z"/>
					<g>
						<path fill="#01519C" d="M161.672,44.699c0.541,0,1.552,0.285,3.268,1.62c2.499,2.082,5.235,3.135,8.138,3.135
							c3.488,0,5.925-1.55,6.014-1.606c1.081-0.662,1.82-1.302,1.829-1.31c1.966-1.558,2.95-1.789,3.364-1.789
							c0.291,0,0.408,0.111,0.494,0.227c0.556,0.783,0.316,3.234-0.574,5.826c-1.154,3.349-4.373,6.761-6.379,6.761
							c-0.464,0-0.83-0.181-1.152-0.57c-0.563-0.681-1.645-1.126-1.763-1.175c-1.235-0.501-2.506-0.509-3.743-0.002l-0.017,0.008
							l-0.02,0.01c-0.11,0.054-1.095,0.537-1.671,1.087c-0.719,0.702-1.451,1.052-2.188,1.052c-2.396,0-4.967-3.745-6.169-7.271
							c-0.794-2.322-0.886-4.685-0.224-5.61C161.075,44.821,161.321,44.699,161.672,44.699 M161.672,43.934
							c-2.452,0-2.343,3.954-1.3,7.019c1.12,3.277,3.83,7.789,6.9,7.789c0.89,0,1.807-0.373,2.727-1.266
							c0.498-0.483,1.465-0.944,1.465-0.944c1.41-0.675,3.586-0.293,4.615,0.951c0.492,0.593,1.09,0.849,1.746,0.849
							c2.553,0,5.949-3.917,7.109-7.279c1.057-3.067,1.604-7.074-0.65-7.074c-0.847,0-2.088,0.563-3.848,1.959
							c0,0-0.709,0.614-1.752,1.255c0,0-2.306,1.493-5.607,1.493c-2.228,0-4.908-0.68-7.643-2.961
							C163.79,44.449,162.565,43.934,161.672,43.934z"/>
					</g>
				</g>
			</g>
			<path fill="#FAD4A6" d="M141.746,64.082c0,0,2.616-2.807,2.998-1.052c0.384,1.753-1.233,3.636-1.841,4.02"/>
		</g>
		<path fill="#1D1C1A" d="M175.7,52.535c0,0,1.563-1.005,3.016,1.007l-0.758-1.244c0,0,0.532,0.178,0.709,0.39
			c0.111,0.133-0.068-0.665,0.275-0.56C178.942,52.128,176.071,50.196,175.7,52.535z"/>
		<path fill="#1D1C1A" d="M168.251,52.927c0,0-1.126-1.332-2.639,0.289l0.821-1.037c0,0-0.466,0.052-0.644,0.217
			c-0.113,0.104,0.162-0.631-0.139-0.605C165.651,51.79,168.317,50.569,168.251,52.927z"/>
		<g>
			<path fill="#FCCFA9" d="M141.437,71.949c0.318-0.538,1.352-3.788,3.824-1.368c0,0,0.615,1.814-2.264,2.639
				C142.997,73.22,140.423,73.671,141.437,71.949z"/>
			<g>
				<g>
					<path fill="#3F3B3C" d="M141.028,71.078c-0.002,0.001,0,0.4,0.18,0.649c0.09,0.122,0.202,0.25,0.391,0.277
						c0.194,0.023,0.454-0.075,0.774-0.272c0.317-0.811,0.766-1.504,1.303-1.468c0.294-0.004,0.67,0.176,1.01,0.427l0.158,0.109
						c0.027,0.04,0.038,0.091,0.049,0.138c0.024,0.174,0.009,0.362-0.043,0.541c-0.207,0.739-1.08,1.27-1.907,1.56
						c-0.413,0.089-0.929,0.15-1.312,0.033c-0.203-0.056-0.384-0.24-0.381-0.467c-0.003-0.219,0.08-0.443,0.186-0.655
						c-0.131,0.193-0.252,0.414-0.282,0.669c-0.035,0.26,0.137,0.506,0.375,0.615c0.507,0.223,0.977,0.205,1.491,0.172
						c0.501-0.108,0.958-0.254,1.414-0.504c0.444-0.248,0.876-0.623,1.114-1.152c0.118-0.263,0.185-0.552,0.187-0.85
						c-0.004-0.188-0.021-0.378-0.089-0.546c-0.114-0.12-0.256-0.284-0.354-0.375c-0.377-0.352-0.833-0.713-1.489-0.828
						c-0.671-0.132-1.388,0.208-1.796,0.616C141.569,70.173,141.281,70.636,141.028,71.078z"/>
				</g>
			</g>
		</g>
		<g>
			<path fill="#FCCFA9" d="M140.339,71.446c-0.063-0.622-1.169-3.849,2.257-3.376c0,0,3.346,0.041-0.241,3.467
				C142.354,71.537,140.552,73.435,140.339,71.446z"/>
			<g>
				<g>
					<path fill="#3F3B3C" d="M139.482,70.93c-0.002,0.004,0.244,0.358,0.54,0.466c0.147,0.051,0.313,0.091,0.481-0.005
						c0.169-0.104,0.313-0.354,0.451-0.727c-0.174-0.663-0.226-1.34-0.003-1.683c0.186-0.352,0.85-0.509,1.57-0.443l0.076,0.003
						c0.326-0.01,0.709,0.064,0.895,0.208c0.181,0.114,0.218,0.376,0.094,0.729c-0.254,0.684-0.802,1.331-1.346,1.928l-0.015,0.017
						c-0.295,0.331-0.667,0.678-1.055,0.816c-0.199,0.076-0.458,0.037-0.591-0.151c-0.134-0.176-0.2-0.407-0.24-0.642
						c0.012,0.234,0.047,0.484,0.177,0.705c0.128,0.229,0.414,0.32,0.668,0.263c0.532-0.123,0.908-0.429,1.288-0.75l0.01-0.009
						c0.624-0.548,1.262-1.102,1.697-1.924c0.102-0.21,0.188-0.452,0.192-0.739c0.009-0.287-0.124-0.616-0.338-0.821
						c-0.439-0.41-0.917-0.509-1.4-0.571l-0.017-0.004c-0.373-0.073-0.819-0.122-1.275-0.061c-0.451,0.053-0.992,0.257-1.354,0.695
						c-0.362,0.431-0.495,0.95-0.542,1.403C139.4,70.092,139.433,70.524,139.482,70.93z"/>
				</g>
			</g>
		</g>
		<g>
			<path fill="#FCCFA9" d="M142.746,77.356c0.126-0.61,0.036-4.023,3.163-2.549c0,0,3.181,1.041-1.266,3.235
				C144.644,78.043,142.358,79.319,142.746,77.356z"/>
			<g>
				<g>
					<path fill="#3F3B3C" d="M142.083,76.607c-0.003,0.003,0.126,0.415,0.376,0.606c0.125,0.092,0.271,0.181,0.46,0.14
						c0.192-0.048,0.405-0.243,0.648-0.558c0.032-0.685,0.186-1.347,0.5-1.608c0.282-0.281,0.962-0.233,1.63,0.045l0.072,0.025
						c0.314,0.088,0.658,0.273,0.791,0.466c0.14,0.163,0.097,0.423-0.126,0.724c-0.447,0.576-1.163,1.029-1.861,1.437l-0.01,0.006
						l-0.01,0.006c-0.38,0.228-0.838,0.449-1.25,0.465c-0.212,0.014-0.447-0.102-0.519-0.32c-0.075-0.208-0.07-0.448-0.038-0.685
						c-0.059,0.227-0.099,0.476-0.041,0.726c0.054,0.257,0.3,0.429,0.56,0.451c0.544,0.041,0.995-0.139,1.452-0.334l0.007-0.003
						l0.007-0.003c0.758-0.336,1.533-0.673,2.194-1.328c0.161-0.169,0.315-0.375,0.404-0.647c0.094-0.271,0.065-0.625-0.079-0.885
						c-0.296-0.521-0.723-0.759-1.165-0.962l-0.015-0.009c-0.334-0.182-0.746-0.361-1.2-0.439c-0.447-0.084-1.024-0.05-1.499,0.261
						c-0.475,0.303-0.755,0.759-0.936,1.177C142.256,75.784,142.158,76.205,142.083,76.607z"/>
				</g>
			</g>
		</g>
		<g>
			<path fill="#FCCFA9" d="M141.985,76.022c-0.074-0.62-1.22-3.832,2.21-3.402c0,0,3.35-0.002-0.196,3.468
				C143.999,76.088,142.22,78.008,141.985,76.022z"/>
			<g>
				<g>
					<path fill="#3F3B3C" d="M141.271,75.489c-0.002,0.003,0.214,0.356,0.458,0.476c0.121,0.058,0.254,0.097,0.385,0.004
						c0.131-0.099,0.234-0.335,0.324-0.708c-0.173-0.673-0.242-1.383,0.026-1.787c0.245-0.411,0.953-0.545,1.676-0.482l0.061,0.002
						c0.562-0.008,1.17,0.166,1.144,0.626c-0.007,0.508-0.395,1.091-0.77,1.583c-0.403,0.489-0.815,1.01-1.318,1.386
						c-0.252,0.174-0.551,0.35-0.84,0.235c-0.281-0.136-0.374-0.493-0.432-0.803c0.031,0.31,0.075,0.688,0.389,0.888
						c0.333,0.171,0.709-0.006,0.984-0.163c0.579-0.354,1.031-0.832,1.501-1.3c0.434-0.497,0.926-0.992,1.047-1.803
						c0.067-0.422-0.237-0.912-0.599-1.089c-0.356-0.201-0.712-0.277-1.088-0.31l-0.014-0.002c-0.373-0.063-0.807-0.102-1.246-0.034
						c-0.434,0.061-0.938,0.262-1.268,0.677C141.044,73.752,141.177,74.715,141.271,75.489z"/>
				</g>
			</g>
		</g>
		<g>
			<path fill="#FCCFA9" d="M135.354,77.856c0,0-0.053-13.534,6.554-8.154c0,0,4.397,5.199,0.773,4.964c0,0-1.889,0.297-2.937-2.458
				c0,0,2.714,6.422-1.326,6.529"/>
			<g>
				<g>
					<path fill="#3F3B3C" d="M134.675,76.15c-0.003,0,0.108,0.965,0.376,1.442c0.281,0.482,0.604,0.449,1.116-1.338
						c0.075-1.539,0.247-3.087,0.662-4.528c0.399-1.399,1.187-2.87,2.465-2.761c0.634,0.032,1.313,0.367,1.923,0.79
						c0.078,0.051,0.154,0.105,0.229,0.163l0.114,0.084c0.021,0.015,0.038,0.027,0.05,0.042l0.363,0.436
						c0.243,0.301,0.477,0.61,0.697,0.926c0.433,0.628,0.854,1.299,1.046,1.976c0.091,0.341,0.086,0.645-0.08,0.789
						c-0.168,0.163-0.534,0.221-0.915,0.206l-0.057,0.002l-0.057,0.005c-0.558,0.049-1.183-0.211-1.633-0.635
						c-0.464-0.427-0.803-1-1.051-1.608l-0.354,0.142c0.5,1.193,0.901,2.473,0.971,3.774c0.021,0.644-0.052,1.323-0.42,1.861
						c-0.363,0.554-1.048,0.79-1.702,0.82c0.651,0.001,1.366-0.199,1.779-0.764c0.415-0.548,0.523-1.256,0.534-1.92
						c-0.009-1.35-0.351-2.657-0.811-3.92l-0.354,0.142c0.232,0.654,0.563,1.297,1.076,1.818c0.512,0.515,1.213,0.893,2.021,0.865
						l0.025-0.001l0.025,0.001c0.392,0.017,0.891,0.048,1.347-0.308c0.22-0.178,0.347-0.469,0.376-0.721
						c0.033-0.255,0.003-0.488-0.042-0.707c-0.206-0.863-0.624-1.57-1.048-2.264c-0.217-0.344-0.445-0.678-0.684-1.005l-0.374-0.495
						c-0.046-0.066-0.106-0.117-0.164-0.161l-0.12-0.099c-0.08-0.066-0.161-0.131-0.246-0.193c-0.662-0.497-1.423-0.966-2.382-1.076
						c-0.472-0.052-0.993,0.023-1.438,0.242c-0.451,0.21-0.815,0.537-1.108,0.883c-0.585,0.704-0.929,1.496-1.209,2.282
						C135.084,72.921,134.833,74.535,134.675,76.15z"/>
				</g>
			</g>
		</g>
		<g>
			<path fill="#FCCFA9" d="M141.437,71.949c0.318-0.538,1.352-3.788,3.824-1.368c0,0,0.615,1.814-2.264,2.639
				C142.997,73.22,140.423,73.671,141.437,71.949z"/>
			<g>
				<g>
					<path fill="#3F3B3C" d="M141.028,71.078c-0.002,0.001,0,0.4,0.18,0.649c0.09,0.122,0.202,0.25,0.391,0.277
						c0.194,0.023,0.454-0.075,0.774-0.272c0.317-0.811,0.766-1.504,1.303-1.468c0.294-0.004,0.67,0.176,1.01,0.427l0.158,0.109
						c0.027,0.04,0.038,0.091,0.049,0.138c0.024,0.174,0.009,0.362-0.043,0.541c-0.207,0.739-1.08,1.27-1.907,1.56
						c-0.413,0.089-0.929,0.15-1.312,0.033c-0.203-0.056-0.384-0.24-0.381-0.467c-0.003-0.219,0.08-0.443,0.186-0.655
						c-0.131,0.193-0.252,0.414-0.282,0.669c-0.035,0.26,0.137,0.506,0.375,0.615c0.507,0.223,0.977,0.205,1.491,0.172
						c0.501-0.108,0.958-0.254,1.414-0.504c0.444-0.248,0.876-0.623,1.114-1.152c0.118-0.263,0.185-0.552,0.187-0.85
						c-0.004-0.188-0.021-0.378-0.089-0.546c-0.114-0.12-0.256-0.284-0.354-0.375c-0.377-0.352-0.833-0.713-1.489-0.828
						c-0.671-0.132-1.388,0.208-1.796,0.616C141.569,70.173,141.281,70.636,141.028,71.078z"/>
				</g>
			</g>
		</g>
		<g>
			<path fill="#FCCFA9" d="M140.339,71.446c-0.063-0.622-1.169-3.849,2.257-3.376c0,0,3.346,0.041-0.241,3.467
				C142.354,71.537,140.552,73.435,140.339,71.446z"/>
			<g>
				<g>
					<path fill="#3F3B3C" d="M139.482,70.93c-0.002,0.004,0.244,0.358,0.54,0.466c0.147,0.051,0.313,0.091,0.481-0.005
						c0.169-0.104,0.313-0.354,0.451-0.727c-0.174-0.663-0.226-1.34-0.003-1.683c0.186-0.352,0.85-0.509,1.57-0.443l0.076,0.003
						c0.326-0.01,0.709,0.064,0.895,0.208c0.181,0.114,0.218,0.376,0.094,0.729c-0.254,0.684-0.802,1.331-1.346,1.928l-0.015,0.017
						c-0.295,0.331-0.667,0.678-1.055,0.816c-0.199,0.076-0.458,0.037-0.591-0.151c-0.134-0.176-0.2-0.407-0.24-0.642
						c0.012,0.234,0.047,0.484,0.177,0.705c0.128,0.229,0.414,0.32,0.668,0.263c0.532-0.123,0.908-0.429,1.288-0.75l0.01-0.009
						c0.624-0.548,1.262-1.102,1.697-1.924c0.102-0.21,0.188-0.452,0.192-0.739c0.009-0.287-0.124-0.616-0.338-0.821
						c-0.439-0.41-0.917-0.509-1.4-0.571l-0.017-0.004c-0.373-0.073-0.819-0.122-1.275-0.061c-0.451,0.053-0.992,0.257-1.354,0.695
						c-0.362,0.431-0.495,0.95-0.542,1.403C139.4,70.092,139.433,70.524,139.482,70.93z"/>
				</g>
			</g>
		</g>
		<g>
			<path fill="#FCCFA9" d="M142.746,77.356c0.126-0.61,0.036-4.023,3.163-2.549c0,0,3.181,1.041-1.266,3.235
				C144.644,78.043,142.358,79.319,142.746,77.356z"/>
			<g>
				<g>
					<path fill="#3F3B3C" d="M142.083,76.607c-0.003,0.003,0.126,0.415,0.376,0.606c0.125,0.092,0.271,0.181,0.46,0.14
						c0.192-0.048,0.405-0.243,0.648-0.558c0.032-0.685,0.186-1.347,0.5-1.608c0.282-0.281,0.962-0.233,1.63,0.045l0.072,0.025
						c0.314,0.088,0.658,0.273,0.791,0.466c0.14,0.163,0.097,0.423-0.126,0.724c-0.447,0.576-1.163,1.029-1.861,1.437l-0.01,0.006
						l-0.01,0.006c-0.38,0.228-0.838,0.449-1.25,0.465c-0.212,0.014-0.447-0.102-0.519-0.32c-0.075-0.208-0.07-0.448-0.038-0.685
						c-0.059,0.227-0.099,0.476-0.041,0.726c0.054,0.257,0.3,0.429,0.56,0.451c0.544,0.041,0.995-0.139,1.452-0.334l0.007-0.003
						l0.007-0.003c0.758-0.336,1.533-0.673,2.194-1.328c0.161-0.169,0.315-0.375,0.404-0.647c0.094-0.271,0.065-0.625-0.079-0.885
						c-0.296-0.521-0.723-0.759-1.165-0.962l-0.015-0.009c-0.334-0.182-0.746-0.361-1.2-0.439c-0.447-0.084-1.024-0.05-1.499,0.261
						c-0.475,0.303-0.755,0.759-0.936,1.177C142.256,75.784,142.158,76.205,142.083,76.607z"/>
				</g>
			</g>
		</g>
		<g>
			<path fill="#FCCFA9" d="M141.985,76.022c-0.074-0.62-1.22-3.832,2.21-3.402c0,0,3.35-0.002-0.196,3.468
				C143.999,76.088,142.22,78.008,141.985,76.022z"/>
			<g>
				<g>
					<path fill="#3F3B3C" d="M141.271,75.489c-0.002,0.003,0.214,0.356,0.458,0.476c0.121,0.058,0.254,0.097,0.385,0.004
						c0.131-0.099,0.234-0.335,0.324-0.708c-0.173-0.673-0.242-1.383,0.026-1.787c0.245-0.411,0.953-0.545,1.676-0.482l0.061,0.002
						c0.562-0.008,1.17,0.166,1.144,0.626c-0.007,0.508-0.395,1.091-0.77,1.583c-0.403,0.489-0.815,1.01-1.318,1.386
						c-0.252,0.174-0.551,0.35-0.84,0.235c-0.281-0.136-0.374-0.493-0.432-0.803c0.031,0.31,0.075,0.688,0.389,0.888
						c0.333,0.171,0.709-0.006,0.984-0.163c0.579-0.354,1.031-0.832,1.501-1.3c0.434-0.497,0.926-0.992,1.047-1.803
						c0.067-0.422-0.237-0.912-0.599-1.089c-0.356-0.201-0.712-0.277-1.088-0.31l-0.014-0.002c-0.373-0.063-0.807-0.102-1.246-0.034
						c-0.434,0.061-0.938,0.262-1.268,0.677C141.044,73.752,141.177,74.715,141.271,75.489z"/>
				</g>
			</g>
		</g>
		<g>
			<path fill="#FCCFA9" d="M135.354,77.856c0,0-0.053-13.534,6.554-8.154c0,0,4.397,5.199,0.773,4.964c0,0-1.889,0.297-2.937-2.458
				c0,0,2.714,6.422-1.326,6.529"/>
			<g>
				<g>
					<path fill="#3F3B3C" d="M134.675,76.15c-0.003,0,0.108,0.965,0.376,1.442c0.281,0.482,0.604,0.449,1.116-1.338
						c0.075-1.539,0.247-3.087,0.662-4.528c0.399-1.399,1.187-2.87,2.465-2.761c0.634,0.032,1.313,0.367,1.923,0.79
						c0.078,0.051,0.154,0.105,0.229,0.163l0.114,0.084c0.021,0.015,0.038,0.027,0.05,0.042l0.363,0.436
						c0.243,0.301,0.477,0.61,0.697,0.926c0.433,0.628,0.854,1.299,1.046,1.976c0.091,0.341,0.086,0.645-0.08,0.789
						c-0.168,0.163-0.534,0.221-0.915,0.206l-0.057,0.002l-0.057,0.005c-0.558,0.049-1.183-0.211-1.633-0.635
						c-0.464-0.427-0.803-1-1.051-1.608l-0.354,0.142c0.5,1.193,0.901,2.473,0.971,3.774c0.021,0.644-0.052,1.323-0.42,1.861
						c-0.363,0.554-1.048,0.79-1.702,0.82c0.651,0.001,1.366-0.199,1.779-0.764c0.415-0.548,0.523-1.256,0.534-1.92
						c-0.009-1.35-0.351-2.657-0.811-3.92l-0.354,0.142c0.232,0.654,0.563,1.297,1.076,1.818c0.512,0.515,1.213,0.893,2.021,0.865
						l0.025-0.001l0.025,0.001c0.392,0.017,0.891,0.048,1.347-0.308c0.22-0.178,0.347-0.469,0.376-0.721
						c0.033-0.255,0.003-0.488-0.042-0.707c-0.206-0.863-0.624-1.57-1.048-2.264c-0.217-0.344-0.445-0.678-0.684-1.005l-0.374-0.495
						c-0.046-0.066-0.106-0.117-0.164-0.161l-0.12-0.099c-0.08-0.066-0.161-0.131-0.246-0.193c-0.662-0.497-1.423-0.966-2.382-1.076
						c-0.472-0.052-0.993,0.023-1.438,0.242c-0.451,0.21-0.815,0.537-1.108,0.883c-0.585,0.704-0.929,1.496-1.209,2.282
						C135.084,72.921,134.833,74.535,134.675,76.15z"/>
				</g>
			</g>
		</g>
		<g>
			<g>
				<path fill="#231F20" d="M112.554,108.486c-11.792-0.515-21.441,4.379-31.161,10.513c-5.617,3.544-11.198,7.079-17.606,9.01
					c-4.562,1.375-9.366,1.18-13.813-0.449c-5.758-2.108-7.668-7.246-9.995-12.323c-0.536,0.256-1.072,0.511-1.607,0.767
					c2.846,1.933,7.668,8.534,11.675,7.46c2.046-0.548,2.497-2.249,2.834-4.14c0.22-1.237,0.04-2.158-0.431-3.281
					c-0.413-0.987-3.18-3.826-0.843-4.287c1.148-0.227,0.792-1.466-0.333-1.244c-2.883,0.569-2.929,2.083-1.571,4.439
					c0.946,1.642,1.439,2.506,1.338,4.511c-0.25,4.979-4.225,1.254-5.566,0.209c-1.947-1.517-3.658-3.326-5.704-4.716
					c-0.432-0.293-1.949,0.023-1.607,0.767c3.139,6.849,5.81,11.818,13.562,13.958c5.793,1.599,11.989,0.012,17.371-2.208
					c14.82-6.114,25.576-18.42,42.829-17.667C112.804,109.844,113.783,108.54,112.554,108.486L112.554,108.486z"/>
			</g>
		</g>
		<g>
			<path fill="#1661AD" stroke="#231F20" stroke-width="0.6302" stroke-miterlimit="10" d="M30.929,109.804l2.184-2.096
				c0,0,9.099,1.29,6.55,7.9"/>
			<path fill="#46A0D9" stroke="#231F20" stroke-width="0.6302" stroke-miterlimit="10" d="M39.468,113.582
				c0,0,0.829,1.714-0.252,2.79c-0.945,0.942-2.564,0.955-3.736-0.093c-0.961-0.859-1.285-2.129-0.881-3.108
				c-0.031-0.051-0.043-0.107-0.038-0.172c0.107-1.019-3.13-1.284-3.13-1.284l-0.502-1.911
				C30.929,109.804,38.121,110.646,39.468,113.582z"/>
		</g>
	</g>
</g>
</svg>
