<?xml version="1.0" encoding="utf-8"?>
<!-- Generator: Adobe Illustrator 15.1.0, SVG Export Plug-In . SVG Version: 6.00 Build 0)  -->
<!DOCTYPE svg PUBLIC "-//W3C//DTD SVG 1.1//EN" "http://www.w3.org/Graphics/SVG/1.1/DTD/svg11.dtd">
<svg version="1.1" id="Capa_1" xmlns="http://www.w3.org/2000/svg" xmlns:xlink="http://www.w3.org/1999/xlink" x="0px" y="0px"
	 width="234.429px" height="58.78px" viewBox="0 0 234.429 58.78" enable-background="new 0 0 234.429 58.78" xml:space="preserve">
<g>
	<g>
		<path fill="#998675" d="M5.594,24.195h1.871c2.771,0,5.073,1.463,5.073,4.474c0,3.082-2.255,4.569-5.109,4.569H5.594V24.195z
			 M6.722,32.207h0.396c2.303,0,4.294-0.863,4.294-3.49c0-2.639-1.991-3.49-4.294-3.49H6.722V32.207z"/>
		<path fill="#998675" d="M14.198,30.611c0.012,0.96,0.66,1.859,1.691,1.859c0.827,0,1.271-0.42,1.679-1.092l0.912,0.517
			c-0.528,0.971-1.511,1.535-2.603,1.535c-1.715,0-2.758-1.296-2.758-2.951c0-1.727,0.923-3.022,2.734-3.022
			c1.787,0,2.626,1.319,2.626,2.986v0.168H14.198z M17.4,29.796c-0.132-0.839-0.684-1.403-1.547-1.403
			c-0.84,0-1.463,0.6-1.595,1.403H17.4z"/>
		<path fill="#998675" d="M21.661,28.908c-0.132-0.275-0.408-0.491-0.72-0.491c-0.3,0-0.588,0.24-0.588,0.552
			c0,0.491,0.648,0.707,1.308,1.007c0.66,0.301,1.295,0.708,1.295,1.596c0,1.067-0.887,1.859-1.931,1.859
			c-0.815,0-1.643-0.468-1.943-1.26l0.923-0.42c0.228,0.42,0.504,0.72,1.02,0.72c0.456,0,0.852-0.312,0.852-0.792
			c0-0.3-0.144-0.443-0.396-0.611l-1.055-0.563c-0.624-0.336-1.08-0.647-1.08-1.415c0-0.912,0.744-1.632,1.655-1.632
			c0.684,0,1.235,0.372,1.535,0.983L21.661,28.908z"/>
		<path fill="#998675" d="M25.142,33.238h-1.08v-10.41h1.08V33.238z"/>
		<path fill="#998675" d="M28.201,25.059c0,0.408-0.335,0.731-0.744,0.731c-0.408,0-0.743-0.323-0.743-0.731
			c0-0.42,0.335-0.756,0.743-0.756C27.865,24.303,28.201,24.639,28.201,25.059z M27.997,33.238h-1.08v-5.613h1.08V33.238z"/>
		<path fill="#998675" d="M34.751,32.23v1.008h-5.745l3.802-4.605h-3.154v-1.008h5.253l-3.802,4.605H34.751z"/>
		<path fill="#998675" d="M40.931,33.238h-1.08v-0.876h-0.024c-0.432,0.636-1.104,1.068-1.907,1.068
			c-1.715,0-2.687-1.428-2.687-3.035c0-1.535,1.019-2.938,2.65-2.938c0.828,0,1.499,0.433,1.943,1.104h0.024v-0.936h1.08V33.238z
			 M39.911,30.432c0-1.091-0.66-2.015-1.823-2.015c-1.116,0-1.775,0.972-1.775,2.015c0,1.056,0.636,2.039,1.775,2.039
			C39.264,32.471,39.911,31.535,39.911,30.432z M39.983,24.963l-1.967,1.787l-0.528-0.324l1.5-1.99L39.983,24.963z"/>
		<path fill="#998675" d="M46.933,33.238h-1.08v-10.41h1.08V33.238z"/>
		<path fill="#998675" d="M53.734,33.238h-1.08v-0.876H52.63c-0.432,0.636-1.104,1.068-1.907,1.068
			c-1.715,0-2.687-1.428-2.687-3.035c0-1.535,1.019-2.938,2.65-2.938c0.828,0,1.499,0.433,1.943,1.104h0.024v-0.936h1.08V33.238z
			 M52.714,30.432c0-1.091-0.66-2.015-1.823-2.015c-1.115,0-1.775,0.972-1.775,2.015c0,1.056,0.636,2.039,1.775,2.039
			C52.067,32.471,52.714,31.535,52.714,30.432z"/>
		<path fill="#998675" d="M59.604,28.561h0.024c0.444-0.671,1.115-1.104,1.955-1.104c1.619,0,2.639,1.403,2.639,2.938
			c0,1.607-0.959,3.035-2.687,3.035c-0.792,0-1.475-0.433-1.907-1.068h-0.024v4.09h-1.08v-8.827h1.08V28.561z M63.142,30.432
			c0-1.091-0.66-2.015-1.823-2.015c-1.115,0-1.775,0.972-1.775,2.015c0,1.056,0.636,2.039,1.775,2.039
			C62.494,32.471,63.142,31.535,63.142,30.432z"/>
		<path fill="#998675" d="M70.545,33.238h-1.08v-0.876h-0.024c-0.432,0.636-1.104,1.068-1.907,1.068
			c-1.715,0-2.687-1.428-2.687-3.035c0-1.535,1.019-2.938,2.65-2.938c0.828,0,1.499,0.433,1.943,1.104h0.024v-0.936h1.08V33.238z
			 M69.526,30.432c0-1.091-0.66-2.015-1.823-2.015c-1.115,0-1.775,0.972-1.775,2.015c0,1.056,0.636,2.039,1.775,2.039
			C68.878,32.471,69.526,31.535,69.526,30.432z"/>
		<path fill="#998675" d="M73.032,28.381h0.024c0.335-0.6,1.007-0.924,1.691-0.924c1.583,0,1.991,1.067,1.991,2.436v3.346h-1.079
			v-3.214c0-0.96-0.132-1.607-1.235-1.607c-1.391,0-1.391,1.224-1.391,2.243v2.578h-1.08v-5.613h1.08V28.381z"/>
		<path fill="#998675" d="M79.463,33.238h-1.08v-4.605h-0.587v-1.008h0.587v-2.146h1.08v2.146h1.055v1.008h-1.055V33.238z"/>
		<path fill="#998675" d="M86.373,33.238h-1.08v-0.876H85.27c-0.432,0.636-1.104,1.068-1.907,1.068
			c-1.715,0-2.687-1.428-2.687-3.035c0-1.535,1.019-2.938,2.65-2.938c0.828,0,1.499,0.433,1.943,1.104h0.024v-0.936h1.08V33.238z
			 M85.354,30.432c0-1.091-0.66-2.015-1.823-2.015c-1.116,0-1.775,0.972-1.775,2.015c0,1.056,0.636,2.039,1.775,2.039
			C84.706,32.471,85.354,31.535,85.354,30.432z"/>
		<path fill="#998675" d="M88.907,33.238h-1.08v-10.41h1.08V33.238z"/>
		<path fill="#998675" d="M91.571,33.238h-1.08v-10.41h1.08V33.238z"/>
		<path fill="#998675" d="M98.373,33.238h-1.08v-0.876h-0.024c-0.432,0.636-1.104,1.068-1.907,1.068
			c-1.715,0-2.687-1.428-2.687-3.035c0-1.535,1.019-2.938,2.65-2.938c0.828,0,1.499,0.433,1.943,1.104h0.024v-0.936h1.08V33.238z
			 M97.353,30.432c0-1.091-0.66-2.015-1.823-2.015c-1.115,0-1.775,0.972-1.775,2.015c0,1.056,0.636,2.039,1.775,2.039
			C96.706,32.471,97.353,31.535,97.353,30.432z"/>
		<path fill="#998675" d="M104.327,22.828v5.553h0.024c0.335-0.6,1.007-0.924,1.691-0.924c1.583,0,1.991,1.067,1.991,2.436v3.346
			h-1.079v-3.214c0-0.96-0.132-1.607-1.235-1.607c-1.391,0-1.391,1.224-1.391,2.243v2.578h-1.08v-10.41H104.327z"/>
		<path fill="#998675" d="M114.788,33.238h-1.08v-0.876h-0.024c-0.432,0.636-1.104,1.068-1.907,1.068
			c-1.715,0-2.687-1.428-2.687-3.035c0-1.535,1.019-2.938,2.65-2.938c0.828,0,1.499,0.433,1.943,1.104h0.024v-0.936h1.08V33.238z
			 M113.769,30.432c0-1.091-0.66-2.015-1.823-2.015c-1.116,0-1.775,0.972-1.775,2.015c0,1.056,0.636,2.039,1.775,2.039
			C113.121,32.471,113.769,31.535,113.769,30.432z"/>
		<path fill="#998675" d="M120.32,29.221c-0.432-0.492-0.959-0.756-1.606-0.756c-1.056,0-1.871,0.936-1.871,1.967
			c0,1.151,0.804,1.991,1.943,1.991c0.625,0,1.127-0.288,1.535-0.744v1.38c-0.491,0.264-0.982,0.372-1.546,0.372
			c-1.655,0-3.01-1.271-3.01-2.951c0-1.738,1.343-3.022,3.07-3.022c0.504,0,1.055,0.12,1.486,0.372V29.221z"/>
		<path fill="#998675" d="M123.009,25.059c0,0.408-0.335,0.731-0.743,0.731c-0.407,0-0.743-0.323-0.743-0.731
			c0-0.42,0.336-0.756,0.743-0.756C122.674,24.303,123.009,24.639,123.009,25.059z M122.806,33.238h-1.08v-5.613h1.08V33.238z"/>
		<path fill="#998675" d="M129.8,33.238h-1.08v-0.876h-0.023c-0.432,0.636-1.104,1.068-1.907,1.068
			c-1.716,0-2.687-1.428-2.687-3.035c0-1.535,1.02-2.938,2.65-2.938c0.828,0,1.499,0.433,1.943,1.104h0.023v-0.936h1.08V33.238z
			 M128.781,30.432c0-1.091-0.66-2.015-1.823-2.015c-1.116,0-1.775,0.972-1.775,2.015c0,1.056,0.636,2.039,1.775,2.039
			C128.132,32.471,128.781,31.535,128.781,30.432z"/>
		<path fill="#998675" d="M135.802,33.238h-1.08v-10.41h1.08V33.238z"/>
		<path fill="#998675" d="M142.831,30.443c0,1.691-1.319,2.987-2.998,2.987s-2.999-1.296-2.999-2.987c0-1.69,1.32-2.986,2.999-2.986
			S142.831,28.753,142.831,30.443z M137.914,30.443c0,1.056,0.852,1.955,1.919,1.955s1.919-0.899,1.919-1.955
			c0-1.067-0.852-1.954-1.919-1.954S137.914,29.376,137.914,30.443z"/>
		<path fill="#998675" d="M146.073,28.908c-0.132-0.275-0.408-0.491-0.72-0.491c-0.3,0-0.588,0.24-0.588,0.552
			c0,0.491,0.648,0.707,1.308,1.007c0.659,0.301,1.295,0.708,1.295,1.596c0,1.067-0.888,1.859-1.931,1.859
			c-0.815,0-1.643-0.468-1.943-1.26l0.924-0.42c0.229,0.42,0.504,0.72,1.02,0.72c0.455,0,0.852-0.312,0.852-0.792
			c0-0.3-0.145-0.443-0.396-0.611l-1.055-0.563c-0.624-0.336-1.08-0.647-1.08-1.415c0-0.912,0.744-1.632,1.656-1.632
			c0.684,0,1.234,0.372,1.535,0.983L146.073,28.908z"/>
		<path fill="#998675" d="M153.021,33.238h-1.08v-10.41h1.08V33.238z"/>
		<path fill="#998675" d="M159.823,33.238h-1.079v-0.876h-0.024c-0.432,0.636-1.104,1.068-1.907,1.068
			c-1.715,0-2.686-1.428-2.686-3.035c0-1.535,1.019-2.938,2.65-2.938c0.827,0,1.498,0.433,1.942,1.104h0.024v-0.936h1.079V33.238z
			 M158.803,30.432c0-1.091-0.659-2.015-1.823-2.015c-1.115,0-1.775,0.972-1.775,2.015c0,1.056,0.637,2.039,1.775,2.039
			C158.156,32.471,158.803,31.535,158.803,30.432z"/>
		<path fill="#998675" d="M165.416,32.362h-0.024c-0.432,0.636-1.115,1.068-1.907,1.068c-1.727,0-2.686-1.428-2.686-3.035
			c0-1.535,1.019-2.938,2.638-2.938c0.84,0,1.511,0.433,1.955,1.104h0.024v-5.732h1.079v10.41h-1.079V32.362z M165.475,30.432
			c0-1.091-0.659-2.015-1.823-2.015c-1.115,0-1.775,0.972-1.775,2.015c0,1.056,0.637,2.039,1.775,2.039
			C164.828,32.471,165.475,31.535,165.475,30.432z"/>
		<path fill="#998675" d="M173.394,30.443c0,1.691-1.318,2.987-2.998,2.987s-2.998-1.296-2.998-2.987
			c0-1.69,1.318-2.986,2.998-2.986S173.394,28.753,173.394,30.443z M168.477,30.443c0,1.056,0.852,1.955,1.919,1.955
			s1.919-0.899,1.919-1.955c0-1.067-0.852-1.954-1.919-1.954S168.477,29.376,168.477,30.443z"/>
		<path fill="#998675" d="M176.636,28.908c-0.133-0.275-0.408-0.491-0.72-0.491c-0.3,0-0.588,0.24-0.588,0.552
			c0,0.491,0.647,0.707,1.308,1.007c0.66,0.301,1.295,0.708,1.295,1.596c0,1.067-0.887,1.859-1.931,1.859
			c-0.815,0-1.644-0.468-1.942-1.26l0.923-0.42c0.228,0.42,0.504,0.72,1.02,0.72c0.456,0,0.852-0.312,0.852-0.792
			c0-0.3-0.144-0.443-0.396-0.611l-1.056-0.563c-0.624-0.336-1.079-0.647-1.079-1.415c0-0.912,0.743-1.632,1.654-1.632
			c0.684,0,1.236,0.372,1.535,0.983L176.636,28.908z"/>
		<path fill="#998675" d="M21.037,42.961h0.024c0.443-0.671,1.115-1.104,1.955-1.104c1.619,0,2.639,1.403,2.639,2.938
			c0,1.607-0.959,3.035-2.687,3.035c-0.792,0-1.475-0.433-1.907-1.068h-0.024v4.09h-1.08v-8.827h1.08V42.961z M24.575,44.832
			c0-1.091-0.659-2.015-1.823-2.015c-1.115,0-1.775,0.972-1.775,2.015c0,1.056,0.636,2.039,1.775,2.039
			C23.927,46.871,24.575,45.936,24.575,44.832z"/>
		<path fill="#998675" d="M31.979,47.639h-1.08v-0.876h-0.024c-0.432,0.636-1.104,1.068-1.907,1.068
			c-1.715,0-2.687-1.428-2.687-3.035c0-1.535,1.019-2.938,2.65-2.938c0.828,0,1.499,0.433,1.943,1.104h0.024v-0.936h1.08V47.639z
			 M30.959,44.832c0-1.091-0.66-2.015-1.823-2.015c-1.116,0-1.775,0.972-1.775,2.015c0,1.056,0.636,2.039,1.775,2.039
			C30.312,46.871,30.959,45.936,30.959,44.832z"/>
		<path fill="#998675" d="M34.537,42.938h0.036c0.264-0.66,0.815-1.08,1.535-1.08c0.312,0,0.624,0.108,0.887,0.276l-0.492,0.983
			c-0.192-0.168-0.408-0.228-0.66-0.228c-1.163,0-1.307,1.079-1.307,1.99v2.759h-1.08v-5.613h1.08V42.938z"/>
		<path fill="#998675" d="M42.862,47.639h-1.08v-0.876h-0.024c-0.432,0.636-1.104,1.068-1.907,1.068
			c-1.715,0-2.687-1.428-2.687-3.035c0-1.535,1.019-2.938,2.65-2.938c0.828,0,1.499,0.433,1.943,1.104h0.024v-0.936h1.08V47.639z
			 M41.843,44.832c0-1.091-0.66-2.015-1.823-2.015c-1.116,0-1.775,0.972-1.775,2.015c0,1.056,0.636,2.039,1.775,2.039
			C41.195,46.871,41.843,45.936,41.843,44.832z"/>
		<path fill="#998675" d="M51.922,46.763h-0.024c-0.432,0.636-1.115,1.068-1.907,1.068c-1.727,0-2.687-1.428-2.687-3.035
			c0-1.535,1.019-2.938,2.638-2.938c0.84,0,1.511,0.433,1.955,1.104h0.024v-5.732h1.08v10.41h-1.08V46.763z M51.982,44.832
			c0-1.091-0.66-2.015-1.823-2.015c-1.116,0-1.775,0.972-1.775,2.015c0,1.056,0.636,2.039,1.775,2.039
			C51.335,46.871,51.982,45.936,51.982,44.832z"/>
		<path fill="#998675" d="M55.056,45.012c0.012,0.96,0.66,1.859,1.691,1.859c0.827,0,1.271-0.42,1.679-1.092l0.912,0.517
			c-0.528,0.971-1.511,1.535-2.603,1.535c-1.715,0-2.758-1.296-2.758-2.951c0-1.727,0.923-3.022,2.734-3.022
			c1.787,0,2.626,1.319,2.626,2.986v0.168H55.056z M58.258,44.196c-0.132-0.839-0.684-1.403-1.547-1.403
			c-0.84,0-1.463,0.6-1.595,1.403H58.258z"/>
		<path fill="#998675" d="M62.52,43.309c-0.132-0.275-0.408-0.491-0.72-0.491c-0.3,0-0.588,0.24-0.588,0.552
			c0,0.491,0.648,0.707,1.308,1.007c0.66,0.301,1.295,0.708,1.295,1.596c0,1.067-0.887,1.859-1.931,1.859
			c-0.815,0-1.643-0.468-1.943-1.26l0.923-0.42c0.228,0.42,0.504,0.72,1.02,0.72c0.456,0,0.852-0.312,0.852-0.792
			c0-0.3-0.144-0.443-0.396-0.611l-1.055-0.563c-0.624-0.336-1.08-0.647-1.08-1.415c0-0.912,0.744-1.632,1.655-1.632
			c0.684,0,1.235,0.372,1.535,0.983L62.52,43.309z"/>
		<path fill="#998675" d="M68.998,43.621c-0.432-0.492-0.959-0.756-1.607-0.756c-1.056,0-1.871,0.936-1.871,1.967
			c0,1.151,0.804,1.991,1.943,1.991c0.624,0,1.127-0.288,1.535-0.744v1.38c-0.492,0.264-0.983,0.372-1.547,0.372
			c-1.655,0-3.01-1.271-3.01-2.951c0-1.738,1.343-3.022,3.07-3.022c0.503,0,1.055,0.12,1.487,0.372V43.621z"/>
		<path fill="#998675" d="M71.196,42.025v3.106c0,0.899,0.228,1.691,1.295,1.691s1.295-0.792,1.295-1.691v-3.106h1.079v3.227
			c0,1.535-0.719,2.579-2.375,2.579s-2.375-1.044-2.375-2.579v-3.227H71.196z"/>
		<path fill="#998675" d="M76.225,37.229h1.08v5.732h0.024c0.444-0.671,1.115-1.104,1.955-1.104c1.619,0,2.639,1.403,2.639,2.938
			c0,1.607-0.959,3.035-2.687,3.035c-0.792,0-1.475-0.433-1.907-1.068h-0.024v0.876h-1.08V37.229z M80.842,44.832
			c0-1.091-0.66-2.015-1.823-2.015c-1.115,0-1.775,0.972-1.775,2.015c0,1.056,0.636,2.039,1.775,2.039
			C80.194,46.871,80.842,45.936,80.842,44.832z"/>
		<path fill="#998675" d="M84.132,42.938h0.036c0.264-0.66,0.815-1.08,1.535-1.08c0.312,0,0.624,0.108,0.887,0.276l-0.492,0.983
			c-0.192-0.168-0.408-0.228-0.66-0.228c-1.163,0-1.307,1.079-1.307,1.99v2.759h-1.08v-5.613h1.08V42.938z"/>
		<path fill="#998675" d="M88.715,39.459c0,0.408-0.335,0.731-0.744,0.731c-0.408,0-0.743-0.323-0.743-0.731
			c0-0.42,0.335-0.756,0.743-0.756C88.38,38.703,88.715,39.039,88.715,39.459z M88.512,47.639h-1.08v-5.613h1.08V47.639z"/>
		<path fill="#998675" d="M91.392,42.938h0.036c0.264-0.66,0.815-1.08,1.535-1.08c0.312,0,0.624,0.108,0.887,0.276l-0.492,0.983
			c-0.192-0.168-0.408-0.228-0.66-0.228c-1.163,0-1.307,1.079-1.307,1.99v2.759h-1.08v-5.613h1.08V42.938z"/>
		<path fill="#998675" d="M98.963,42.733h0.024c0.312-0.492,0.875-0.876,1.487-0.876c0.731,0,1.259,0.372,1.619,0.996
			c0.348-0.6,1.019-0.996,1.727-0.996c1.475,0,1.859,1.151,1.859,2.423v3.358h-1.08V44.46c0-0.719-0.096-1.643-1.043-1.643
			c-1.151,0-1.235,1.199-1.235,2.062v2.759h-1.079v-2.975c0-0.731-0.036-1.847-1.032-1.847c-1.151,0-1.247,1.188-1.247,2.062v2.759
			h-1.08v-5.613h1.08V42.733z"/>
		<path fill="#998675" d="M112.389,47.639h-1.08v-0.876h-0.024c-0.432,0.636-1.104,1.068-1.907,1.068
			c-1.715,0-2.687-1.428-2.687-3.035c0-1.535,1.019-2.938,2.65-2.938c0.828,0,1.499,0.433,1.943,1.104h0.024v-0.936h1.08V47.639z
			 M111.37,44.832c0-1.091-0.66-2.015-1.823-2.015c-1.115,0-1.775,0.972-1.775,2.015c0,1.056,0.636,2.039,1.775,2.039
			C110.722,46.871,111.37,45.936,111.37,44.832z M111.441,39.363l-1.967,1.787l-0.528-0.324l1.5-1.99L111.441,39.363z"/>
		<path fill="#998675" d="M116.051,43.309c-0.132-0.275-0.408-0.491-0.72-0.491c-0.3,0-0.588,0.24-0.588,0.552
			c0,0.491,0.648,0.707,1.308,1.007c0.66,0.301,1.295,0.708,1.295,1.596c0,1.067-0.887,1.859-1.931,1.859
			c-0.815,0-1.643-0.468-1.943-1.26l0.923-0.42c0.228,0.42,0.504,0.72,1.02,0.72c0.456,0,0.852-0.312,0.852-0.792
			c0-0.3-0.144-0.443-0.396-0.611l-1.055-0.563c-0.624-0.336-1.08-0.647-1.08-1.415c0-0.912,0.744-1.632,1.655-1.632
			c0.684,0,1.235,0.372,1.535,0.983L116.051,43.309z"/>
		<path fill="#998675" d="M125.998,43.621c-0.432-0.492-0.96-0.756-1.607-0.756c-1.056,0-1.871,0.936-1.871,1.967
			c0,1.151,0.804,1.991,1.943,1.991c0.623,0,1.127-0.288,1.535-0.744v1.38c-0.492,0.264-0.984,0.372-1.547,0.372
			c-1.656,0-3.011-1.271-3.011-2.951c0-1.738,1.343-3.022,3.07-3.022c0.503,0,1.056,0.12,1.487,0.372V43.621z"/>
		<path fill="#998675" d="M132.657,44.844c0,1.691-1.319,2.987-2.999,2.987c-1.679,0-2.998-1.296-2.998-2.987
			c0-1.69,1.319-2.986,2.998-2.986C131.337,41.857,132.657,43.153,132.657,44.844z M127.74,44.844c0,1.056,0.852,1.955,1.918,1.955
			c1.068,0,1.92-0.899,1.92-1.955c0-1.067-0.852-1.954-1.92-1.954C128.591,42.89,127.74,43.776,127.74,44.844z"/>
		<path fill="#998675" d="M134.723,42.781h0.024c0.335-0.6,1.007-0.924,1.69-0.924c1.583,0,1.991,1.067,1.991,2.436v3.346h-1.08
			v-3.214c0-0.96-0.132-1.607-1.234-1.607c-1.392,0-1.392,1.224-1.392,2.243v2.578h-1.079v-5.613h1.079V42.781z"/>
		<path fill="#998675" d="M142.174,43.309c-0.132-0.275-0.408-0.491-0.72-0.491c-0.3,0-0.588,0.24-0.588,0.552
			c0,0.491,0.648,0.707,1.308,1.007c0.659,0.301,1.295,0.708,1.295,1.596c0,1.067-0.888,1.859-1.931,1.859
			c-0.815,0-1.643-0.468-1.943-1.26l0.924-0.42c0.229,0.42,0.504,0.72,1.02,0.72c0.455,0,0.852-0.312,0.852-0.792
			c0-0.3-0.145-0.443-0.396-0.611l-1.055-0.563c-0.624-0.336-1.08-0.647-1.08-1.415c0-0.912,0.744-1.632,1.656-1.632
			c0.684,0,1.234,0.372,1.535,0.983L142.174,43.309z"/>
		<path fill="#998675" d="M145.175,45.012c0.012,0.96,0.659,1.859,1.691,1.859c0.826,0,1.271-0.42,1.678-1.092l0.912,0.517
			c-0.527,0.971-1.512,1.535-2.603,1.535c-1.715,0-2.759-1.296-2.759-2.951c0-1.727,0.924-3.022,2.734-3.022
			c1.787,0,2.627,1.319,2.627,2.986v0.168H145.175z M148.376,44.196c-0.131-0.839-0.684-1.403-1.547-1.403
			c-0.839,0-1.463,0.6-1.595,1.403H148.376z"/>
		<path fill="#998675" d="M151.906,39.459c0,0.408-0.335,0.731-0.743,0.731c-0.407,0-0.743-0.323-0.743-0.731
			c0-0.42,0.336-0.756,0.743-0.756C151.571,38.703,151.906,39.039,151.906,39.459z M151.703,50.853h-1.08v-8.827h1.08V50.853z"/>
		<path fill="#998675" d="M158.924,44.844c0,1.691-1.319,2.987-2.999,2.987c-1.679,0-2.998-1.296-2.998-2.987
			c0-1.69,1.319-2.986,2.998-2.986C157.605,41.857,158.924,43.153,158.924,44.844z M154.007,44.844c0,1.056,0.852,1.955,1.918,1.955
			c1.068,0,1.92-0.899,1.92-1.955c0-1.067-0.852-1.954-1.92-1.954C154.859,42.89,154.007,43.776,154.007,44.844z"/>
		<path fill="#998675" d="M162.166,43.309c-0.132-0.275-0.407-0.491-0.719-0.491c-0.301,0-0.588,0.24-0.588,0.552
			c0,0.491,0.647,0.707,1.307,1.007c0.66,0.301,1.295,0.708,1.295,1.596c0,1.067-0.887,1.859-1.93,1.859
			c-0.816,0-1.644-0.468-1.943-1.26l0.924-0.42c0.228,0.42,0.504,0.72,1.02,0.72c0.455,0,0.852-0.312,0.852-0.792
			c0-0.3-0.145-0.443-0.396-0.611l-1.055-0.563c-0.625-0.336-1.08-0.647-1.08-1.415c0-0.912,0.744-1.632,1.655-1.632
			c0.684,0,1.235,0.372,1.535,0.983L162.166,43.309z"/>
	</g>
</g>
<g id="_x36_fLBFi.tif_1_">
	<g>
		<path fill-rule="evenodd" clip-rule="evenodd" fill="#C7B299" d="M205.489,54.414c-3.425,2.902-12.151,2.204-14.832-0.848
			c0.255-1.351,0.192-3.403-0.282-4.804c-0.311-0.917-1.217-1.508-1.695-2.541c-0.657-1.421-0.712-3.779-0.848-5.793
			c-0.296-4.388-0.418-8.801,4.521-8.051c1.097-0.978,3.069-2.094,5.085-1.271c0.841-0.768,2.582-1.633,4.097-0.848
			c0.366-3.028,0.767-5.793,1.13-8.898c0.226-1.93,0.084-4.008,1.978-4.238c0.882-0.107,1.999,0.432,2.261,1.13
			c1.128,3.012-0.188,11.966,0.705,16.245c0.243,1.161,0.924,2.076,1.555,2.119c1.316,0.089,1.982-1.854,2.824-2.543
			c1.023-0.837,2.93-1.869,4.803-1.555c0.577,0.097,1.828,0.568,1.979,1.555c0.152,1.008-1.158,2.029-1.836,3.107
			c-1.956,3.105-2.564,6.98-4.945,9.605C209.708,49.298,205.988,50.24,205.489,54.414z"/>
	</g>
</g>
<path opacity="0.53" fill-rule="evenodd" clip-rule="evenodd" fill="#C7B299" d="M230.067,16.19
	c-10.495-6.543-22.069-9.312-32.765-8.312V4.77l-10.594,6.116l10.594,6.117V13.87C207.998,10.872,219.572,11.646,230.067,16.19z"/>
</svg>
