<?xml version="1.0" encoding="utf-8"?>
<!-- Generator: Adobe Illustrator 15.1.0, SVG Export Plug-In . SVG Version: 6.00 Build 0)  -->
<!DOCTYPE svg PUBLIC "-//W3C//DTD SVG 1.1//EN" "http://www.w3.org/Graphics/SVG/1.1/DTD/svg11.dtd">
<svg version="1.1" id="Capa_1" xmlns="http://www.w3.org/2000/svg" xmlns:xlink="http://www.w3.org/1999/xlink" x="0px" y="0px"
	 width="100px" height="100px" viewBox="0 0 100 100" enable-background="new 0 0 100 100" xml:space="preserve">
<circle fill="#FBB03B" cx="50" cy="50" r="48.594"/>
<g>
	<path fill="#231F20" d="M73.776,82.068c0.094-0.075,0.188-0.15,0.281-0.228c0.621-0.092,1.44-0.237,2.691-0.459l0.782-0.139
		c5.022-0.896,7.726-6.54,8.055-16.79c1.098-0.445,1.872-1.522,1.872-2.78c0-0.347-0.059-0.681-0.167-0.991l-0.972-4.342
		c-0.104-0.467-0.314-0.887-0.6-1.237c1.037-2.028,1.552-4.44-0.806-9.248c-1.06-2.154-2.775-3.463-4.892-3.762
		c-0.507-0.663-1.059-1.271-1.65-1.82c-0.437-1.09-0.035-1.87,1.41-3.982c1.285-1.878,2.883-4.215,2.777-7.366
		c-0.136-4.118-2.88-7.701-6.815-9.231c-0.908-6.772-6.312-12.01-12.87-12.01c-0.138,0-0.276-0.125-0.41-0.125
		c-0.001,0-0.003,0-0.004,0c-3.736-3-8.792-5.097-14.037-4.666C43.979,3.26,39.82,5.28,36.746,8.396
		c-0.365-0.045-0.736-0.038-1.113-0.044l-0.19,0.015c-6.587,0-12.114,5.284-12.925,11.998c-3.925,1.586-6.62,5.199-6.683,9.294
		c-0.051,3.144,1.6,5.438,2.927,7.28c1.468,2.037,1.884,2.796,1.481,3.854c-2.328,2.214-3.98,5.35-4.655,8.818
		c-2.793,2.645-3.333,5.89-3.38,8.502c-0.311,0.154-0.596,0.363-0.84,0.621c-0.588,0.62-0.885,1.461-0.814,2.312l0.44,5.318
		c0.068,0.815,0.466,1.568,1.102,2.083c0.092,0.075,0.188,0.143,0.287,0.206C13.395,80.039,19.176,87,28.879,88.399
		c0.929,0.907,2.003,1.651,3.174,2.202c-0.236,1.37-0.422,2.75-0.573,4.11c0.946,0.404,1.911,0.772,2.887,1.116
		c0.213-2.114,0.508-4.064,0.854-5.874c0.06-0.463,0.12-0.928,0.182-1.395c-2.047-0.385-3.829-1.481-5.08-3.02
		c-0.236-0.024-0.458-0.033-0.7-0.064c-12.412-1.584-14.222-12.772-14.388-19.518l-1.253,0.16l-0.44-5.318l1.733,0.055
		c-0.088-2.765-0.583-6.856,3.099-9.665c0.452-3.563,2.064-6.635,4.332-8.582c2.814-5.379-3.955-7.86-3.873-12.896
		c0.055-3.531,2.884-6.43,6.601-7.066c-0.013-0.233-0.027-0.463-0.02-0.691c0.095-5.925,4.65-10.655,10.175-10.571
		c0.841,0.014,1.578,0.16,2.241,0.397c2.541-3.197,6.383-5.399,10.839-5.766c4.977-0.407,9.573,1.565,12.646,4.93
		c0.421-0.063,0.839-0.11,1.246-0.124c5.496-0.186,10.117,4.511,10.314,10.491c0.014,0.23,0,0.463-0.008,0.698
		c3.713,0.578,6.58,3.454,6.697,7.017c0.172,5.086-6.525,7.713-3.629,13.094c0.952,0.801,1.791,1.806,2.49,2.958
		c1.45-0.211,2.876,0.223,3.801,2.103c2.567,5.236,0.894,6.095,0.068,7.994c0,0,0.077,0.729,0.156,1.92l0.944-0.098l1.047,4.678
		l-1.821-0.137c0.063,6.538-0.716,15.882-5.615,16.755c-2.53,0.45-3.543,0.64-4.219,0.678c-0.588,0.546-1.212,1.043-1.876,1.471
		c-0.009,0.947-0.18,1.856-0.473,2.71c0.95,3.659,1.815,7.229,2.446,9.998c0.926-0.479,1.839-0.98,2.729-1.517
		c-0.585-2.525-1.313-5.502-2.065-8.427C73.641,82.828,73.718,82.449,73.776,82.068z"/>
	<path fill="#1F2342" d="M69.214,78.58c0.414,1.504,0.824,3.044,1.221,4.57c0.293-0.854,0.464-1.763,0.473-2.71
		c0.665-0.428,1.289-0.925,1.876-1.471C71.897,79.02,71.59,78.809,69.214,78.58z"/>
	<path fill="#FAD4A6" d="M35.402,88.56c-0.062,0.467-0.122,0.932-0.182,1.395c0.09-0.473,0.188-0.926,0.285-1.378
		C35.471,88.57,35.436,88.565,35.402,88.56z"/>
	<path fill="#1F2342" d="M36.248,85.473c-1.703,0.244-3.671,0.3-5.926,0.067c1.251,1.538,3.033,2.635,5.08,3.02
		c0.034,0.006,0.069,0.011,0.103,0.017C35.738,87.489,35.983,86.442,36.248,85.473z"/>
	<path fill="#F9D3A5" d="M67.255,71.891c0.029,0.092,0.059,0.187,0.088,0.28c-0.017-0.088-0.034-0.177-0.051-0.266
		C67.28,71.899,67.267,71.896,67.255,71.891z"/>
	<path fill="#F9D3A5" d="M52.523,52.869c-3.843,0.314-8.125,2.611-11.656,6.165c2.303,1.763,3.933,4.66,4.211,8.05
		c0.225,2.743-0.48,5.308-1.806,7.311c4.646,4.757,13.846,6.501,17.188,6.474c4.043-0.037,4.014-4.165,4.29-10.819
		c-1.418-1.47-2.375-3.422-2.556-5.639c-0.194-2.375,0.526-4.604,1.85-6.342C60.419,54.728,56.144,52.57,52.523,52.869z
		 M55.914,60.806c-1.029,1.242-2.637,1.743-3.918,0.511c-0.144-0.13,0.231-0.665,0.323-0.57c1.139,1.084,2.621,0.837,3.584-0.331
		C56.18,60.093,56.039,60.672,55.914,60.806z M57.959,56.094c-0.051,0.151-1.48,3.681-4.465,3.601
		c-1.455-0.048-2.995-0.945-4.598-2.686l-0.465-0.513l9.743-0.911L57.959,56.094z"/>
	<path fill="#1D1F40" d="M48.431,56.497l0.465,0.513c1.604,1.74,3.143,2.638,4.598,2.686c2.984,0.08,4.414-3.449,4.465-3.601
		l0.215-0.509L48.431,56.497z"/>
	<path fill="#F29D51" d="M55.902,60.416c-0.963,1.168-2.445,1.415-3.584,0.331c-0.092-0.095-0.466,0.44-0.323,0.57
		c1.282,1.232,2.889,0.731,3.918-0.511C56.039,60.672,56.18,60.093,55.902,60.416z"/>
	<path fill="#7C929F" d="M34.056,38.883c0.4,4.9,0.462,9.93,1.469,14.754c0.26,1.241,0.854,3.339,2.578,3.157
		c1.978-0.221,6.385-3.297,6.344-4.892c-0.004-0.163-0.039-0.329-0.088-0.496c-3.152-0.76-6.125-4.996-7.558-8.248
		c-1.514-3.45-2.022-8.022,0.858-8.258c1.048-0.087,2.534,0.396,4.585,1.71c3.426,2.384,6.637,2.91,9.25,2.693
		c3.876-0.317,6.443-2.269,6.443-2.269c0.285-0.207,0.545-0.409,0.777-0.598c0.072-0.059,0.14-0.115,0.205-0.17
		c0.023-0.02,0.048-0.04,0.071-0.059c0.503-0.428,0.802-0.729,0.802-0.729c0.241-0.222,0.471-0.425,0.695-0.616
		c1.619-1.393,2.829-2.015,3.715-2.09c2.645-0.218,2.385,4.478,1.436,8.131c-0.918,3.539-3.156,7.681-5.73,8.776
		c-0.098,0.337-0.143,0.661-0.102,0.961c0.219,1.582,5.068,3.894,7.059,3.791c1.73-0.103,1.971-2.268,2.027-3.536
		c0.201-4.925-0.557-9.896-0.959-14.796c-0.15-1.83-0.766-6.776-4.041-6.04c-0.857,0.193-1.742,0.406-2.637,0.619
		c-2.524,2.758-6.086,4.625-10.158,4.958c-4.021,0.332-7.791-0.896-10.715-3.15c-1.133-0.076-2.248-0.162-3.324-0.224
		C33.703,32.071,33.906,37.05,34.056,38.883z"/>
	<path fill="#7C929F" d="M57.344,51.645c0.123-0.547,0.269-1.16,0.438-1.828c-0.369-0.13-0.721-0.35-1.046-0.679
		c-0.267-0.27-0.595-0.483-0.946-0.663c-0.207-0.1-0.399-0.18-0.554-0.238c-0.12-0.042-0.236-0.089-0.36-0.123
		c-0.04-0.012-0.086-0.019-0.127-0.03c-1.203-0.289-2.548-0.163-3.52,0.396c0,0-0.235,0.136-0.537,0.338
		c-0.241,0.177-0.525,0.391-0.787,0.598c-0.111,0.099-0.218,0.198-0.307,0.298c-0.536,0.605-1.338,1.051-2.128,1.352
		c0.152,0.464,0.316,0.94,0.496,1.431c1.807-0.741,3.607-1.211,5.301-1.35C54.609,51.037,55.979,51.228,57.344,51.645z"/>
	<path fill="#01519B" d="M35.039,57.24c1.586-0.13,3.116,0.213,4.484,0.925c2.547-2.515,5.502-4.462,8.444-5.668
		c-0.179-0.491-0.343-0.967-0.496-1.431c-0.679,0.259-1.349,0.412-1.831,0.452c-0.428,0.035-0.856-0.009-1.281-0.111
		c0.049,0.167,0.083,0.333,0.088,0.496c0.041,1.595-4.366,4.671-6.344,4.892c-1.725,0.182-2.318-1.916-2.578-3.157
		c-1.007-4.824-1.068-9.854-1.469-14.754c-0.15-1.833-0.354-6.812,3.002-6.619c1.076,0.062,2.19,0.147,3.324,0.224
		c-1.316-1.015-2.464-2.231-3.377-3.62c-2.442,0.106-5.125,1.31-4.841,6.197c0.201,3.512,0.273,7.312,0.558,10.815
		c0.198,2.411,0.446,4.815,0.848,7.201c0.226,1.338,0.424,2.869,0.9,4.238C34.658,57.291,34.845,57.255,35.039,57.24z"/>
	<path fill="#01519B" d="M67.934,36.101c0.402,4.9,1.16,9.871,0.959,14.796c-0.057,1.269-0.297,3.434-2.027,3.536
		c-1.99,0.103-6.84-2.209-7.059-3.791c-0.041-0.3,0.003-0.624,0.102-0.961c-0.343,0.146-0.692,0.242-1.045,0.271
		c-0.371,0.031-0.733-0.013-1.081-0.135c-0.169,0.668-0.316,1.281-0.438,1.828c2.762,0.842,5.503,2.657,7.969,5.071
		c1.362-1.179,3.078-1.954,4.993-2.11c0.062-0.005,0.122,0,0.184-0.004c0.301-1.495,0.24-3.134,0.24-4.568
		c0.012-2.42-0.137-4.834-0.338-7.245c-0.289-3.504-0.84-7.265-1.215-10.76c-0.482-4.53-2.978-5.494-5.277-5.369
		c-0.655,1.477-1.554,2.83-2.645,4.021c0.896-0.213,1.78-0.426,2.637-0.619C67.168,29.325,67.783,34.271,67.934,36.101z"/>
	<path fill="#01519B" d="M57.344,51.645c-1.366-0.417-2.735-0.608-4.077-0.498c-1.693,0.139-3.494,0.609-5.301,1.35
		c-2.942,1.206-5.896,3.153-8.444,5.668c0.47,0.245,0.917,0.541,1.345,0.868c3.531-3.553,7.812-5.851,11.656-6.165
		c3.621-0.299,7.896,1.859,11.522,5.2c0.376-0.494,0.8-0.948,1.268-1.354C62.847,54.302,60.106,52.486,57.344,51.645z"/>
	<path fill="#1F2342" d="M32.197,58.019c-3.234,1.204-5.562,4.141-5.522,8.621c0.002,0.204,0.019,0.403,0.03,0.604
		C26.817,63.115,29.003,59.552,32.197,58.019z"/>
	<path fill="#F9D3A5" d="M58.715,36.438c0.073-0.059,0.138-0.114,0.205-0.17C58.854,36.323,58.787,36.379,58.715,36.438z"/>
	<path fill="#F9D3A5" d="M60.488,34.864c-0.224,0.191-0.454,0.394-0.695,0.616c0,0-0.299,0.301-0.802,0.729
		c0.548-0.463,0.878-0.795,0.878-0.795C60.083,35.216,60.287,35.037,60.488,34.864z"/>
	<path fill="#F9D3A5" d="M51.57,40.199c-3.408,0.281-6.719-0.677-9.85-2.845c-2.14-1.385-3.354-1.617-3.988-1.565
		c-0.414,0.036-0.691,0.2-0.893,0.531c-0.691,1.136-0.357,3.86,0.793,6.476c1.75,3.971,5.122,8.062,7.937,7.829
		c0.864-0.068,2.567-0.618,3.345-1.499c0.626-0.693,1.734-1.347,1.857-1.42l0.023-0.013l0.02-0.014
		c1.403-0.704,2.893-0.819,4.391-0.358c0.145,0.047,1.455,0.461,2.184,1.19c0.412,0.42,0.861,0.596,1.404,0.553
		c2.354-0.194,4.928-4.384,5.963-8.379c0.801-3.085,0.846-5.949,0.119-6.803c-0.109-0.127-0.26-0.243-0.598-0.212
		c-0.484,0.038-1.619,0.4-3.781,2.395c-0.01,0.01-0.816,0.819-2.021,1.692C58.377,37.831,55.664,39.861,51.57,40.199z M48.17,44.336
		c0,0-1.546-1.517-3.53,0.707l0.866-1.28c0,0-0.542,0.106-0.733,0.314c-0.125,0.129,0.13-0.746-0.222-0.691
		C44.551,43.386,48.025,41.6,48.17,44.336z M60.186,42.501c-0.416-0.092-0.127,0.816-0.27,0.673
		c-0.229-0.23-0.873-0.383-0.873-0.383l1.01,1.366c-1.895-2.188-3.635-0.876-3.635-0.876C56.631,40.539,60.186,42.501,60.186,42.501
		z"/>
	<path fill="#F9D3A5" d="M50.692,48.818c-0.246,0.165-0.533,0.374-0.787,0.598C50.167,49.209,50.452,48.996,50.692,48.818z"/>
	<path fill="#F9D3A5" d="M54.875,48.114c-0.042-0.011-0.084-0.02-0.127-0.03C54.789,48.095,54.836,48.102,54.875,48.114z"/>
	<path fill="#F9D3A5" d="M55.79,48.475c-0.178-0.091-0.362-0.17-0.554-0.238C55.391,48.295,55.583,48.375,55.79,48.475z"/>
	<path fill="#01519B" d="M49.906,49.416c0.254-0.224,0.541-0.433,0.787-0.598c0.302-0.202,0.537-0.338,0.537-0.338
		c0.972-0.56,2.316-0.686,3.52-0.396c0.042,0.01,0.085,0.019,0.127,0.03c0.124,0.033,0.241,0.081,0.36,0.123
		c0.192,0.068,0.376,0.147,0.554,0.238c0.352,0.18,0.679,0.393,0.946,0.663c0.326,0.33,0.678,0.549,1.046,0.679
		c0.347,0.123,0.709,0.167,1.081,0.135c0.353-0.029,0.702-0.125,1.045-0.271c2.574-1.095,4.812-5.237,5.73-8.776
		c0.949-3.653,1.209-8.349-1.436-8.131c-0.886,0.075-2.096,0.697-3.715,2.09c-0.201,0.173-0.405,0.353-0.619,0.55
		c0,0-0.331,0.333-0.878,0.795c-0.022,0.019-0.047,0.04-0.071,0.059c-0.067,0.056-0.132,0.111-0.205,0.17
		c-0.232,0.188-0.493,0.391-0.777,0.598c0,0-2.566,1.951-6.443,2.269c-2.613,0.217-5.824-0.31-9.25-2.693
		c-2.051-1.313-3.537-1.797-4.585-1.71c-2.881,0.235-2.372,4.808-0.858,8.258c1.433,3.252,4.405,7.488,7.558,8.248
		c0.425,0.103,0.853,0.146,1.281,0.111c0.482-0.04,1.152-0.193,1.831-0.452c0.79-0.301,1.592-0.747,2.128-1.352
		C49.688,49.614,49.794,49.515,49.906,49.416z M60.496,36.065c2.162-1.994,3.297-2.356,3.781-2.395
		c0.338-0.031,0.488,0.085,0.598,0.212c0.727,0.854,0.682,3.718-0.119,6.803c-1.035,3.995-3.609,8.185-5.963,8.379
		c-0.543,0.043-0.992-0.133-1.404-0.553c-0.729-0.729-2.039-1.144-2.184-1.19c-1.498-0.461-2.988-0.346-4.391,0.358l-0.02,0.014
		l-0.023,0.013c-0.123,0.073-1.231,0.727-1.857,1.42c-0.777,0.881-2.48,1.431-3.345,1.499c-2.814,0.233-6.187-3.858-7.937-7.829
		c-1.15-2.615-1.484-5.34-0.793-6.476c0.201-0.331,0.479-0.495,0.893-0.531c0.634-0.052,1.849,0.181,3.988,1.565
		c3.131,2.168,6.441,3.126,9.85,2.845c4.094-0.338,6.807-2.368,6.905-2.441C59.68,36.884,60.486,36.075,60.496,36.065z"/>
	<path fill="#1D1C1A" d="M56.418,43.282c0,0,1.74-1.312,3.635,0.876l-1.01-1.366c0,0,0.645,0.152,0.873,0.383
		c0.143,0.144-0.146-0.765,0.27-0.673C60.186,42.501,56.631,40.539,56.418,43.282z"/>
	<path fill="#1D1C1A" d="M44.551,43.386c0.352-0.055,0.097,0.82,0.222,0.691c0.191-0.208,0.733-0.314,0.733-0.314l-0.866,1.28
		c1.984-2.224,3.53-0.707,3.53-0.707C48.025,41.6,44.551,43.386,44.551,43.386z"/>
	<path fill="#01519C" d="M69.214,78.56c-0.002,0-0.003,0-0.005,0l-0.221-0.805c-0.555-1.989-1.111-3.889-1.645-5.589
		c-0.029-0.094-0.059-0.187-0.088-0.278c-0.106-0.051-0.207-0.108-0.311-0.164c1.202,6.65,2.441,10.946-3.558,14.003
		c-3.989,2.032-12.208,0.037-18.737-5.325l0.711,0.631c0,0-2.665,3.517-9.113,4.44c-0.265,0.97-0.51,2.017-0.743,3.104
		c-0.097,0.452-0.194,0.905-0.285,1.378c-0.345,1.81-0.641,3.76-0.854,5.874c5.06,1.785,10.499,2.767,16.17,2.767
		c8.06,0,15.654-1.974,22.345-5.446c-0.631-2.77-1.497-6.349-2.446-10.009C70.039,81.614,69.628,80.56,69.214,78.56z"/>
	<path fill="#01519C" d="M62.873,83.474c-0.868,0.374-3.45,0.938-6.854,0.421c2.821,0.732,5.424,0.709,7.296-0.149
		c3.344-1.535,3.849-3.412,3.522-7.465C66.952,79.986,66.403,81.589,62.873,83.474z"/>
	<path fill="#01519C" d="M41.011,76.816c-0.108,0.08-0.224,0.149-0.335,0.225c0.074-0.03,0.125-0.052,0.125-0.052l2.202,1.953
		C42.308,78.275,41.642,77.565,41.011,76.816z"/>
	<path fill="#FAC32F" d="M66.836,76.28c0.327,4.053-0.178,5.93-3.522,7.465c-1.872,0.858-4.475,0.882-7.296,0.149
		c-3.947-0.6-8.999-2.667-13.776-8.188c-0.382,0.408-0.791,0.783-1.231,1.11c0.631,0.749,1.297,1.459,1.992,2.126l1.646,1.459
		c6.528,5.362,14.748,7.358,18.737,5.326c5.999-3.057,4.76-7.353,3.558-14.003c-0.128-0.069-0.249-0.15-0.373-0.226
		C66.676,73.422,66.796,74.98,66.836,76.28z"/>
	<path fill="#01519C" d="M61.227,82.843c-3.97,0.032-13.779-2.312-18.601-7.573c-0.124,0.149-0.251,0.296-0.383,0.437
		c4.777,5.521,9.829,7.589,13.776,8.188c3.404,0.518,5.987-0.047,6.854-0.421c3.53-1.885,4.079-3.487,3.963-7.193
		c-0.041-1.3-0.16-2.858-0.265-4.781c-0.267-0.161-0.527-0.329-0.775-0.518C66.274,76.818,65.895,82.802,61.227,82.843z"/>
	<path fill="#F39E51" d="M60.461,80.868c-3.342,0.027-12.542-1.717-17.188-6.474c-0.202,0.306-0.417,0.598-0.647,0.875
		c4.822,5.262,14.631,7.605,18.601,7.573c4.668-0.041,5.048-6.024,4.57-11.861c-0.373-0.282-0.72-0.595-1.045-0.932
		C64.475,76.703,64.504,80.831,60.461,80.868z"/>
	<path fill="#FAD4A6" d="M21.602,61.057c0.027-0.3,0.041-0.58,0.074-0.889c0,0,6.396-0.277,6.815-2.709
		c0.422-2.432,0.126-10.596-7.132-7.881c-1.226,0.458-2.195,1.008-2.987,1.612c-3.682,2.809-3.187,6.9-3.099,9.665L21.602,61.057z"
		/>
	<path fill="#FAD4A6" d="M36.248,85.473c6.448-0.924,9.113-4.44,9.113-4.44l-0.711-0.631l-1.646-1.459l-2.202-1.953
		c0,0-0.052,0.021-0.125,0.052c-0.495,0.2-2.562,0.99-5.18,1.383c-5.654,0.847-13.821-0.212-14.059-13.258l-6.203,0.792
		c0.166,6.746,1.976,17.934,14.388,19.518c0.243,0.031,0.464,0.04,0.7,0.064C32.577,85.772,34.545,85.717,36.248,85.473z"/>
	<path fill="#FAD4A6" d="M77.811,61.175C77.286,76.794,67.5,72.272,67.5,72.272l1.488,5.482l0.221,0.805c0.002,0,0.003,0,0.005,0
		c2.376,0,2.683,0.449,3.57,0.4c0.676-0.039,1.689-0.223,4.219-0.673c4.899-0.873,5.679-10.215,5.615-16.753L77.811,61.175z"/>
	<path fill="#FAD4A6" d="M73.184,47.891c-2.816,6.686,4.488,7.954,4.488,7.954c0.046,0.602,0.078,1.174,0.104,1.735l4.673-0.486
		c-0.079-1.191-0.156-1.92-0.156-1.92c0.825-1.899,2.499-2.758-0.068-7.994c-0.924-1.88-2.351-2.314-3.801-2.103
		C75.839,45.454,73.184,47.891,73.184,47.891z"/>
	<polygon fill="#1D1F40" points="77.776,57.58 76.896,57.671 77.123,58.562 77.043,58.191 83.528,57.646 83.806,58.958 
		77.245,59.042 77.787,61.173 77.811,61.175 82.619,61.537 84.44,61.673 83.394,56.996 82.449,57.094 	"/>
	<polygon fill="#FAC32F" points="83.806,58.716 83.528,57.525 77.043,58.131 77.123,58.29 77.227,58.56 77.245,58.56 	"/>
	<path fill="#1F2342" d="M78.424,45.069c-0.699-1.151-1.538-2.153-2.49-2.954c-2.896-5.381,3.801-8.006,3.629-13.092
		c-0.117-3.562-2.984-6.438-6.697-7.016c0.008-0.235,0.021-0.467,0.008-0.698c-0.197-5.98-4.818-10.676-10.314-10.491
		c-0.406,0.014-0.824,0.061-1.246,0.124c-3.072-3.364-7.668-5.336-12.646-4.93c-4.456,0.367-8.298,2.569-10.839,5.766
		c-0.664-0.237-1.4-0.383-2.241-0.397c-5.524-0.084-10.08,4.646-10.175,10.571c-0.008,0.229,0.007,0.458,0.02,0.691
		c-3.717,0.637-6.546,3.535-6.601,7.066c-0.082,5.036,6.688,7.518,3.873,12.896c-2.268,1.947-3.88,5.019-4.332,8.582
		c0.792-0.604,1.761-1.154,2.987-1.612c7.258-2.715,7.554,5.449,7.132,7.881c-0.42,2.432-6.815,2.709-6.815,2.709
		c-0.034,0.309-0.047,0.589-0.074,0.889l0.448,0.014l0.05,0.991l0.05,0.498h-0.024l0.12,2.466l-0.81,0.122
		c0.238,13.021,8.373,14.11,14.026,13.273c0.011,0.001,0.021,0.003,0.033,0.004c2.618-0.393,4.686-1.183,5.18-1.383
		c0.112-0.075,0.227-0.145,0.335-0.225c0.441-0.327,0.85-0.702,1.231-1.11c0.132-0.141,0.259-0.287,0.383-0.437
		c0.23-0.277,0.445-0.569,0.647-0.875c1.325-2.003,2.03-4.568,1.806-7.311c-0.278-3.39-1.908-6.287-4.211-8.05
		c-0.428-0.328-0.875-0.624-1.345-0.868c-1.369-0.712-2.898-1.055-4.484-0.925c-0.193,0.016-0.38,0.051-0.57,0.08
		c-0.799,0.124-1.552,0.358-2.264,0.699c-3.194,1.533-5.483,5.096-5.483,9.225c0,0,0-0.001,0-0.002c0-0.201-0.036-0.399-0.038-0.603
		c-0.04-4.48,2.284-7.417,5.518-8.621c0.711-0.341,1.47-0.576,2.269-0.699c-0.476-1.37-0.675-2.899-0.901-4.238
		c-0.401-2.386-0.65-4.79-0.848-7.201c-0.284-3.504-0.357-7.304-0.558-10.815c-0.283-4.887,2.399-6.091,4.842-6.197
		c0.913,1.389,2.06,2.605,3.376,3.62c2.924,2.254,6.695,3.482,10.715,3.15c4.072-0.333,7.634-2.2,10.158-4.958
		c1.091-1.191,1.99-2.545,2.645-4.021c2.299-0.125,4.795,0.839,5.277,5.369c0.375,3.495,0.926,7.256,1.215,10.76
		c0.201,2.411,0.35,4.825,0.338,7.245c0,1.434,0.061,3.073-0.24,4.568c-0.062,0.004-0.122-0.001-0.184,0.004
		c-1.915,0.157-3.631,0.932-4.993,2.11c-0.468,0.405-0.892,0.859-1.268,1.354c-1.324,1.738-2.044,3.967-1.85,6.342
		c0.181,2.216,1.138,4.168,2.556,5.639c0.326,0.337,0.673,0.65,1.045,0.932c0.248,0.188,0.509,0.356,0.775,0.518
		c0.124,0.075,0.245,0.156,0.373,0.226c0.104,0.056,0.205,0.114,0.311,0.166c0.012,0.006,0.025,0.009,0.037,0.015
		c0.017,0.089,0.034,0.178,0.051,0.266c0.534,1.7,1.09,3.604,1.645,5.594L67.5,72.272c0,0,9.786,4.521,10.311-11.097l-0.023-0.243
		l-0.542-2.373h-0.019l-0.104-0.239l-0.227-0.77l0.879-0.031c-0.026-0.561-0.058-1.103-0.104-1.705c0,0-7.305-1.253-4.488-7.939
		C73.184,47.876,75.839,45.446,78.424,45.069z"/>
	<polygon fill="#1D1F40" points="21.437,65.166 22.247,65.062 22.127,62.633 13.761,63.029 13.616,61.537 22.06,61.663 
		22.101,62.098 22.05,61.071 21.602,61.057 15.274,60.854 13.541,60.799 13.981,66.118 15.234,65.958 	"/>
	<polygon fill="#FAC32F" points="22.101,62.062 22.06,61.645 13.616,61.527 13.761,62.987 22.127,62.56 22.151,62.56 	"/>
</g>
</svg>
