<?xml version="1.0" encoding="utf-8"?>
<!-- Generator: Adobe Illustrator 15.1.0, SVG Export Plug-In . SVG Version: 6.00 Build 0)  -->
<!DOCTYPE svg PUBLIC "-//W3C//DTD SVG 1.1//EN" "http://www.w3.org/Graphics/SVG/1.1/DTD/svg11.dtd">
<svg version="1.1" id="Layer_1" xmlns="http://www.w3.org/2000/svg" xmlns:xlink="http://www.w3.org/1999/xlink" x="0px" y="0px"
	 width="116.167px" height="145.333px" viewBox="0 0 116.167 145.333" enable-background="new 0 0 116.167 145.333"
	 xml:space="preserve">
<g>
	<g>
		<g>
			<path fill="#FFFFFF" stroke="#000000" stroke-width="4.0829" stroke-miterlimit="10" d="M55.521,17.681
				c-0.054-1.449,0.046-2.879,0.233-4.231c-1.441-0.222-3.785-0.338-5.707,0.714l-0.064,5.711
				C51.356,18.358,53.596,17.828,55.521,17.681z"/>
			<path fill="#FFFFFF" stroke="#000000" stroke-width="4.0829" stroke-miterlimit="10" d="M56.696,9.045
				c0.729-2.548,1.519-4.233,1.519-4.233s-3.272-3.902-8.057-0.252l-0.049,4.382C51.321,8.414,53.469,7.985,56.696,9.045z"/>
			<path fill="#FFFFFF" stroke="#000000" stroke-width="4.0829" stroke-miterlimit="10" d="M49.781,37.546
				c2.344-4.648,4.606-6.314,6.579-6.469c-1.287-2.814-1.656-5.18-1.097-7.05c0.25-0.837,0.646-1.415,1.001-1.8
				c-0.386-1.237-0.605-2.51-0.7-3.777c-2.099,0.166-4.563,0.806-5.598,2.759c-0.007,0.634,0.043,1.223,0.11,1.85
				c0.226,2.081-1.362,3.876-2.897,5.045C43.316,31.04,49.781,37.546,49.781,37.546z"/>
			<path fill="#FFFFFF" stroke="#000000" stroke-width="4.0829" stroke-miterlimit="10" d="M55.87,12.692
				c0.172-1.037,0.391-2.018,0.624-2.912c-3.342-1.092-5.415-0.484-6.395,0.017l-0.042,3.493
				C52.086,12.331,54.405,12.458,55.87,12.692z"/>
			<path fill="#FFFFFF" stroke="#000000" stroke-width="4.0829" stroke-miterlimit="10" d="M61.286,25.37
				c-0.553-0.319-1.118-0.668-1.739-0.837c-0.41-0.111-0.839-0.049-1.253-0.135c-0.372-0.075-0.745-0.238-1.064-0.438
				c-0.136-0.086-0.841-0.663-0.676-0.896c-0.214,0.301-0.426,0.696-0.576,1.211c-0.365,1.252-0.399,3.408,1.229,6.826
				c0.516,0.068,1.008,0.235,1.472,0.469C58.87,29.758,59.464,27.033,61.286,25.37z"/>
			<path fill="#FFFFFF" stroke="#000000" stroke-width="4.0829" stroke-miterlimit="10" d="M61.973,25.786
				c-1.881,1.576-2.419,4.492-2.569,6.215c2.278,1.565,3.722,4.538,3.722,4.538l2.518-8.06
				C65.154,27.991,63.531,26.759,61.973,25.786z"/>
			<path fill="#EAE0CF" stroke="#000000" stroke-width="4.0829" stroke-miterlimit="10" d="M56.494,9.78
				c0.066-0.252,0.135-0.497,0.202-0.735c-3.227-1.06-5.375-0.631-6.587-0.104l-0.01,0.855C51.079,9.296,53.151,8.688,56.494,9.78z"
				/>
			<path fill="#EAE0CF" stroke="#000000" stroke-width="4.0829" stroke-miterlimit="10" d="M55.754,13.449
				c0.035-0.256,0.073-0.508,0.116-0.757c-1.464-0.234-3.783-0.361-5.813,0.598l-0.01,0.873
				C51.969,13.111,54.313,13.228,55.754,13.449z"/>
			<path fill="#EAE0CF" stroke="#000000" stroke-width="4.0829" stroke-miterlimit="10" d="M55.564,18.45
				c-0.02-0.258-0.033-0.514-0.043-0.77c-1.925,0.147-4.165,0.678-5.538,2.193l-0.018,1.335
				C51.001,19.256,53.465,18.616,55.564,18.45z"/>
			<path fill="#EAE0CF" stroke="#000000" stroke-width="4.0829" stroke-miterlimit="10" d="M55.977,24.274
				c0.15-0.515,0.362-0.91,0.576-1.211c-0.105-0.275-0.201-0.555-0.289-0.836c-0.356,0.385-0.751,0.963-1.001,1.8
				c-0.56,1.87-0.19,4.235,1.097,7.05c0.288-0.023,0.572-0.014,0.847,0.023C55.578,27.683,55.612,25.526,55.977,24.274z"/>
			<path fill="#EAE0CF" stroke="#000000" stroke-width="4.0829" stroke-miterlimit="10" d="M61.973,25.786
				c-0.232-0.146-0.463-0.285-0.687-0.416c-1.821,1.663-2.416,4.388-2.607,6.199c0.25,0.127,0.493,0.272,0.726,0.432
				C59.553,30.278,60.091,27.362,61.973,25.786z"/>
			<path fill="#EAE0CF" stroke="#000000" stroke-width="4.0829" stroke-miterlimit="10" d="M49.724,25.171
				c2.362,2.058,3.762,4.097,4.168,6.084c0.059,0.289,0.093,0.559,0.108,0.812c0,0-0.657,0.413-0.77,0.538
				c0.024-0.354,0.005-0.777-0.098-1.266c-0.269-1.273-1.174-3.167-3.788-5.479L49.724,25.171z"/>
		</g>
		<path fill="#FFFFFF" stroke="#000000" stroke-width="4.0829" stroke-miterlimit="10" d="M105.807,42.007
			c0.97,2.337-1.09,2.702-3.205,3.578c-2.115,0.877-3.815,2.303-4.784-0.035c-0.968-2.338-0.769-7.391,1.346-8.266
			C101.279,36.408,104.84,39.668,105.807,42.007z"/>
		<g>
			<g>
				<path fill="#FFFFFF" d="M110.38,41.365c-0.97-2.915-1.971-5.792-3.167-8.627c-0.941-2.229-2.111-4.747-3.664-6.859
					c-0.808,0.429-1.451,0.952-1.866,1.341c1.94,3.008,4.849,8.535,5.678,14.564c0,0-8.228,1.932-12.005,4.953l2.519,3.607
					c0,0,5.121-3.859,11.751-6.294C109.625,44.051,111.304,44.135,110.38,41.365z"/>
				<path fill="none" stroke="#000000" stroke-width="4.0829" stroke-miterlimit="10" d="M110.38,41.365
					c-0.97-2.915-1.971-5.792-3.167-8.627c-0.941-2.229-2.111-4.747-3.664-6.859c-0.808,0.429-1.451,0.952-1.866,1.341
					c1.94,3.008,4.849,8.535,5.678,14.564c0,0-8.228,1.932-12.005,4.953l2.519,3.607c0,0,5.121-3.859,11.751-6.294
					C109.625,44.051,111.304,44.135,110.38,41.365z"/>
			</g>
			<g>
				<path fill="#FFFFFF" d="M100.669,22.921c-0.824-0.6-1.853-1.11-2.895-0.826c-2.118,0.578-3.036,2.74-2.249,4.665
					c1.354,3.311,2.843,1.36,3.32-0.349c0,0,0.288-2.252,1.128-1.497c0.248,0.223,0.895,1.044,1.709,2.306
					c0.415-0.389,1.058-0.912,1.866-1.341C102.709,24.737,101.76,23.713,100.669,22.921z"/>
				<path fill="none" stroke="#000000" stroke-width="4.0829" stroke-miterlimit="10" d="M100.669,22.921
					c-0.824-0.6-1.853-1.11-2.895-0.826c-2.118,0.578-3.036,2.74-2.249,4.665c1.354,3.311,2.843,1.36,3.32-0.349
					c0,0,0.288-2.252,1.128-1.497c0.248,0.223,0.895,1.044,1.709,2.306c0.415-0.389,1.058-0.912,1.866-1.341
					C102.709,24.737,101.76,23.713,100.669,22.921z"/>
			</g>
		</g>
		<g>
			<polygon fill="#FFFFFF" points="80.332,115.06 81.003,123.788 83.521,123.285 85.452,115.899 			"/>
			<polygon fill="none" stroke="#000000" stroke-width="4.0829" stroke-miterlimit="10" points="80.332,115.06 81.003,123.788 
				83.521,123.285 85.452,115.899 			"/>
		</g>
		<g>
			<path d="M78.822,124.208c0,0,3.524-1.847,7.218-1.679l-3.273,6.296c0,0,5.12-1.51,8.562,2.938c0,0-9.148-0.252-12.423,0.925
				c0,0-1.595,0.922-1.344-1.428C77.814,128.907,78.822,124.208,78.822,124.208z"/>
			<path fill="none" stroke="#000000" stroke-width="4.0829" stroke-miterlimit="10" d="M78.822,124.208
				c0,0,3.524-1.847,7.218-1.679l-3.273,6.296c0,0,5.12-1.51,8.562,2.938c0,0-9.148-0.252-12.423,0.925c0,0-1.595,0.922-1.344-1.428
				C77.814,128.907,78.822,124.208,78.822,124.208z"/>
		</g>
		<g>
			<polygon fill="#FFFFFF" points="33.386,115.06 32.714,123.788 30.197,123.285 28.266,115.899 			"/>
			<polygon fill="none" stroke="#000000" stroke-width="4.0829" stroke-miterlimit="10" points="33.386,115.06 32.714,123.788 
				30.197,123.285 28.266,115.899 			"/>
		</g>
		<g>
			<path d="M34.897,124.208c0,0-3.526-1.847-7.22-1.679l3.274,6.296c0,0-5.119-1.51-8.562,2.938c0,0,9.15-0.252,12.422,0.925
				c0,0,1.596,0.922,1.344-1.428C35.904,128.907,34.897,124.208,34.897,124.208z"/>
			<path fill="none" stroke="#000000" stroke-width="4.0829" stroke-miterlimit="10" d="M34.897,124.208c0,0-3.526-1.847-7.22-1.679
				l3.274,6.296c0,0-5.119-1.51-8.562,2.938c0,0,9.15-0.252,12.422,0.925c0,0,1.596,0.922,1.344-1.428
				C35.904,128.907,34.897,124.208,34.897,124.208z"/>
		</g>
		<path fill="none" stroke="#000000" stroke-width="4.0829" stroke-miterlimit="10" d="M64.935,42.784
			c0.03-0.102,0.061-0.203,0.09-0.305C64.996,42.581,64.964,42.683,64.935,42.784z"/>
		<path fill="none" stroke="#000000" stroke-width="4.0829" stroke-miterlimit="10" d="M64.737,43.459
			c0.029-0.102,0.059-0.206,0.089-0.308C64.796,43.253,64.766,43.357,64.737,43.459z"/>
		<path fill="none" stroke="#000000" stroke-width="4.0829" stroke-miterlimit="10" d="M65.136,42.11
			c0.031-0.102,0.064-0.203,0.095-0.303C65.2,41.907,65.167,42.009,65.136,42.11z"/>
		<path fill="none" stroke="#000000" stroke-width="4.0829" stroke-miterlimit="10" d="M65.348,41.435
			c0.03-0.1,0.062-0.197,0.093-0.295C65.409,41.237,65.377,41.335,65.348,41.435z"/>
		<path fill="none" stroke="#000000" stroke-width="4.0829" stroke-miterlimit="10" d="M64.177,45.474
			c0.029-0.105,0.055-0.21,0.083-0.314C64.232,45.264,64.206,45.368,64.177,45.474z"/>
		<path fill="none" stroke="#000000" stroke-width="4.0829" stroke-miterlimit="10" d="M65.563,40.755
			c0.03-0.092,0.061-0.185,0.09-0.277C65.624,40.57,65.593,40.663,65.563,40.755z"/>
		<path fill="none" stroke="#000000" stroke-width="4.0829" stroke-miterlimit="10" d="M64.544,44.132
			c0.029-0.102,0.058-0.205,0.087-0.309C64.602,43.927,64.573,44.03,64.544,44.132z"/>
		<path fill="none" stroke="#000000" stroke-width="4.0829" stroke-miterlimit="10" d="M64.359,44.803
			c0.026-0.103,0.057-0.205,0.085-0.308C64.416,44.598,64.385,44.7,64.359,44.803z"/>
		<path fill="none" stroke="#000000" stroke-width="4.0829" stroke-miterlimit="10" d="M66.248,38.731
			c0.027-0.078,0.056-0.158,0.083-0.238C66.304,38.573,66.275,38.653,66.248,38.731z"/>
		<path fill="none" stroke="#000000" stroke-width="4.0829" stroke-miterlimit="10" d="M66.734,37.394
			c0.021-0.06,0.044-0.119,0.067-0.178C66.778,37.274,66.755,37.334,66.734,37.394z"/>
		<path fill="none" stroke="#000000" stroke-width="4.0829" stroke-miterlimit="10" d="M65.786,40.079
			c0.029-0.09,0.06-0.179,0.091-0.269C65.846,39.9,65.815,39.989,65.786,40.079z"/>
		<path fill="none" stroke="#000000" stroke-width="4.0829" stroke-miterlimit="10" d="M68.309,33.56
			c0.01-0.021,0.019-0.046,0.03-0.068C68.328,33.514,68.319,33.538,68.309,33.56z"/>
		<path fill="none" stroke="#000000" stroke-width="4.0829" stroke-miterlimit="10" d="M66.985,36.728
			c0.014-0.034,0.027-0.068,0.042-0.104C67.013,36.659,67,36.693,66.985,36.728z"/>
		<path fill="none" stroke="#000000" stroke-width="4.0829" stroke-miterlimit="10" d="M68.563,33.006
			c0.023-0.05,0.046-0.102,0.07-0.151C68.608,32.904,68.585,32.956,68.563,33.006z"/>
		<path fill="none" stroke="#000000" stroke-width="4.0829" stroke-miterlimit="10" d="M66.012,39.405
			c0.03-0.086,0.062-0.172,0.09-0.258C66.073,39.233,66.042,39.319,66.012,39.405z"/>
		<path fill="none" stroke="#000000" stroke-width="4.0829" stroke-miterlimit="10" d="M66.486,38.062
			c0.027-0.073,0.054-0.145,0.08-0.219C66.54,37.917,66.514,37.988,66.486,38.062z"/>
		<path fill="none" stroke="#000000" stroke-width="4.0829" stroke-miterlimit="10" d="M64.003,46.138
			c0.026-0.104,0.055-0.208,0.081-0.311C64.058,45.93,64.029,46.033,64.003,46.138z"/>
		<path fill="none" stroke="#000000" stroke-width="4.0829" stroke-miterlimit="10" d="M63.508,48.115
			c0.026-0.106,0.052-0.213,0.077-0.319C63.56,47.902,63.534,48.009,63.508,48.115z"/>
		<path fill="none" stroke="#000000" stroke-width="4.0829" stroke-miterlimit="10" d="M61.628,57.562
			c0.016-0.099,0.03-0.197,0.048-0.298C61.658,57.364,61.644,57.463,61.628,57.562z"/>
		<path fill="none" stroke="#000000" stroke-width="4.0829" stroke-miterlimit="10" d="M62.418,53.126
			c0.02-0.104,0.041-0.209,0.063-0.314C62.459,52.917,62.438,53.021,62.418,53.126z"/>
		<path fill="none" stroke="#000000" stroke-width="4.0829" stroke-miterlimit="10" d="M62.304,53.718
			c0.02-0.104,0.04-0.209,0.059-0.314C62.344,53.509,62.324,53.613,62.304,53.718z"/>
		<path fill="none" stroke="#000000" stroke-width="4.0829" stroke-miterlimit="10" d="M62.537,52.526
			c0.022-0.105,0.044-0.211,0.065-0.318C62.581,52.315,62.559,52.421,62.537,52.526z"/>
		<path fill="none" stroke="#000000" stroke-width="4.0829" stroke-miterlimit="10" d="M62.662,51.918
			c0.021-0.105,0.043-0.212,0.065-0.317C62.705,51.706,62.682,51.813,62.662,51.918z"/>
		<path fill="none" stroke="#000000" stroke-width="4.0829" stroke-miterlimit="10" d="M62.088,54.868
			c0.02-0.102,0.037-0.203,0.056-0.306C62.125,54.665,62.108,54.767,62.088,54.868z"/>
		<path fill="none" stroke="#000000" stroke-width="4.0829" stroke-miterlimit="10" d="M61.711,57.05
			c0.016-0.1,0.033-0.201,0.049-0.305C61.744,56.849,61.727,56.95,61.711,57.05z"/>
		<path fill="none" stroke="#000000" stroke-width="4.0829" stroke-miterlimit="10" d="M61.89,55.983
			c0.019-0.103,0.037-0.204,0.054-0.308C61.927,55.779,61.909,55.881,61.89,55.983z"/>
		<path fill="none" stroke="#000000" stroke-width="4.0829" stroke-miterlimit="10" d="M62.194,54.296
			c0.018-0.102,0.039-0.203,0.058-0.307C62.233,54.093,62.212,54.194,62.194,54.296z"/>
		<path fill="none" stroke="#000000" stroke-width="4.0829" stroke-miterlimit="10" d="M61.988,55.431
			c0.016-0.101,0.035-0.201,0.054-0.303C62.023,55.229,62.004,55.33,61.988,55.431z"/>
		<path fill="none" stroke="#000000" stroke-width="4.0829" stroke-miterlimit="10" d="M61.799,56.521
			c0.016-0.1,0.034-0.201,0.052-0.301C61.833,56.319,61.815,56.421,61.799,56.521z"/>
		<path fill="none" stroke="#000000" stroke-width="4.0829" stroke-miterlimit="10" d="M68.845,32.403
			c0.029-0.059,0.058-0.118,0.086-0.176C68.902,32.285,68.874,32.345,68.845,32.403z"/>
		<path fill="none" stroke="#000000" stroke-width="4.0829" stroke-miterlimit="10" d="M63.667,47.461
			c0.027-0.106,0.054-0.214,0.08-0.321C63.721,47.247,63.693,47.354,63.667,47.461z"/>
		<path fill="none" stroke="#000000" stroke-width="4.0829" stroke-miterlimit="10" d="M63.833,46.803
			c0.026-0.106,0.053-0.212,0.079-0.316C63.885,46.591,63.859,46.696,63.833,46.803z"/>
		<path fill="none" stroke="#000000" stroke-width="4.0829" stroke-miterlimit="10" d="M63.354,48.766
			c0.025-0.108,0.051-0.216,0.076-0.325C63.405,48.55,63.379,48.657,63.354,48.766z"/>
		<path fill="none" stroke="#000000" stroke-width="4.0829" stroke-miterlimit="10" d="M62.923,50.68
			c0.023-0.106,0.047-0.215,0.069-0.324C62.97,50.465,62.946,50.573,62.923,50.68z"/>
		<path fill="none" stroke="#000000" stroke-width="4.0829" stroke-miterlimit="10" d="M62.79,51.3
			c0.023-0.105,0.046-0.213,0.068-0.32C62.836,51.087,62.813,51.194,62.79,51.3z"/>
		<path fill="none" stroke="#000000" stroke-width="4.0829" stroke-miterlimit="10" d="M63.063,50.044
			c0.023-0.105,0.048-0.211,0.072-0.318C63.11,49.833,63.085,49.938,63.063,50.044z"/>
		<path fill="none" stroke="#000000" stroke-width="4.0829" stroke-miterlimit="10" d="M63.206,49.407
			c0.024-0.105,0.048-0.213,0.073-0.32C63.254,49.194,63.23,49.302,63.206,49.407z"/>
		<path fill="none" stroke="#000000" stroke-width="4.0829" stroke-miterlimit="10" d="M72.442,26.241
			c0.081-0.11,0.161-0.221,0.241-0.328C72.603,26.021,72.522,26.131,72.442,26.241z"/>
		<path fill="none" stroke="#000000" stroke-width="4.0829" stroke-miterlimit="10" d="M72.818,25.732
			c0.094-0.127,0.192-0.253,0.291-0.378C73.011,25.479,72.913,25.605,72.818,25.732z"/>
		<path fill="none" stroke="#000000" stroke-width="4.0829" stroke-miterlimit="10" d="M71.711,27.299
			c0.073-0.108,0.146-0.216,0.219-0.323C71.856,27.083,71.784,27.19,71.711,27.299z"/>
		<path fill="none" stroke="#000000" stroke-width="4.0829" stroke-miterlimit="10" d="M72.073,26.763
			c0.075-0.107,0.151-0.215,0.228-0.32C72.224,26.548,72.148,26.655,72.073,26.763z"/>
		<path fill="none" stroke="#000000" stroke-width="4.0829" stroke-miterlimit="10" d="M73.2,25.235
			c0.129-0.162,0.259-0.324,0.389-0.482C73.458,24.911,73.329,25.073,73.2,25.235z"/>
		<path fill="none" stroke="#000000" stroke-width="4.0829" stroke-miterlimit="10" d="M74.559,23.648
			c0.082-0.087,0.162-0.173,0.244-0.26C74.72,23.476,74.641,23.562,74.559,23.648z"/>
		<path fill="none" stroke="#000000" stroke-width="4.0829" stroke-miterlimit="10" d="M75.411,22.782
			c0.081-0.078,0.162-0.157,0.245-0.233C75.573,22.625,75.491,22.704,75.411,22.782z"/>
		<path fill="none" stroke="#000000" stroke-width="4.0829" stroke-miterlimit="10" d="M74.983,23.206
			c0.08-0.082,0.159-0.162,0.241-0.244C75.142,23.044,75.063,23.124,74.983,23.206z"/>
		<path fill="none" stroke="#000000" stroke-width="4.0829" stroke-miterlimit="10" d="M74.137,24.116
			c0.085-0.096,0.168-0.191,0.253-0.285C74.305,23.925,74.222,24.021,74.137,24.116z"/>
		<path fill="none" stroke="#000000" stroke-width="4.0829" stroke-miterlimit="10" d="M73.684,24.641
			c0.101-0.12,0.2-0.239,0.302-0.354C73.883,24.401,73.784,24.521,73.684,24.641z"/>
		<path fill="none" stroke="#000000" stroke-width="4.0829" stroke-miterlimit="10" d="M69.439,31.209
			c0.037-0.073,0.073-0.147,0.111-0.22C69.512,31.062,69.476,31.136,69.439,31.209z"/>
		<path fill="none" stroke="#000000" stroke-width="4.0829" stroke-miterlimit="10" d="M70.073,30.014
			c0.042-0.075,0.083-0.151,0.124-0.227C70.156,29.862,70.115,29.938,70.073,30.014z"/>
		<path fill="none" stroke="#000000" stroke-width="4.0829" stroke-miterlimit="10" d="M69.751,30.609
			c0.039-0.075,0.079-0.151,0.119-0.226C69.831,30.458,69.791,30.534,69.751,30.609z"/>
		<path fill="none" stroke="#000000" stroke-width="4.0829" stroke-miterlimit="10" d="M69.138,31.806
			c0.033-0.068,0.065-0.135,0.098-0.201C69.204,31.671,69.171,31.737,69.138,31.806z"/>
		<path fill="none" stroke="#000000" stroke-width="4.0829" stroke-miterlimit="10" d="M71.468,27.669l-0.037,0.059
			c0.046-0.07,0.091-0.143,0.138-0.213C71.536,27.565,71.502,27.616,71.468,27.669z"/>
		<path fill="none" stroke="#000000" stroke-width="4.0829" stroke-miterlimit="10" d="M70.511,29.235
			c-0.036,0.064-0.073,0.129-0.109,0.193c0.04-0.07,0.08-0.141,0.121-0.211L70.511,29.235z"/>
		<g>
			<path d="M77.034,21.376c-0.101,0.079-0.202,0.157-0.303,0.238c-0.061,0.048-0.121,0.098-0.18,0.148
				c-0.089,0.074-0.179,0.146-0.268,0.223c-0.063,0.055-0.126,0.109-0.187,0.164c-0.085,0.074-0.169,0.15-0.253,0.227
				c-0.064,0.057-0.126,0.115-0.188,0.173c-0.083,0.076-0.164,0.155-0.245,0.233c-0.063,0.059-0.125,0.119-0.187,0.18
				c-0.082,0.082-0.161,0.162-0.241,0.244c-0.061,0.061-0.121,0.121-0.181,0.183c-0.082,0.087-0.162,0.173-0.244,0.26
				c-0.056,0.061-0.113,0.121-0.168,0.183c-0.085,0.094-0.168,0.189-0.253,0.285c-0.05,0.057-0.101,0.111-0.151,0.17
				c-0.103,0.115-0.202,0.234-0.302,0.354c-0.031,0.038-0.063,0.075-0.095,0.112c-0.13,0.158-0.26,0.32-0.389,0.482
				c-0.031,0.039-0.062,0.08-0.091,0.119c-0.098,0.125-0.196,0.251-0.291,0.378c-0.044,0.058-0.09,0.12-0.135,0.181
				c-0.081,0.107-0.161,0.218-0.241,0.328c-0.047,0.066-0.094,0.134-0.142,0.201c-0.077,0.105-0.152,0.213-0.228,0.32
				c-0.048,0.07-0.095,0.142-0.143,0.213c-0.073,0.107-0.146,0.215-0.219,0.323c-0.047,0.071-0.095,0.144-0.142,0.216
				c-0.046,0.07-0.091,0.143-0.138,0.213l-0.486,0.795c4.294-4.16,8.045-2.434,8.045-2.434c-5.373,2.184-4.587,8.232-4.587,8.232
				c3.098-1.043,8.482-1.835,13.652,2.344c0,0-2.272,11.119,9.408,12.199c-6.915-15.232-15.033-23.352-18.307-26.625
				c-0.521-0.521-1.021-0.954-1.507-1.319c-0.156,0.11-0.311,0.223-0.464,0.338C77.134,21.297,77.084,21.337,77.034,21.376z"/>
			<path fill="none" stroke="#000000" stroke-width="4.0829" stroke-miterlimit="10" d="M77.034,21.376
				c-0.101,0.079-0.202,0.157-0.303,0.238c-0.061,0.048-0.121,0.098-0.18,0.148c-0.089,0.074-0.179,0.146-0.268,0.223
				c-0.063,0.055-0.126,0.109-0.187,0.164c-0.085,0.074-0.169,0.15-0.253,0.227c-0.064,0.057-0.126,0.115-0.188,0.173
				c-0.083,0.076-0.164,0.155-0.245,0.233c-0.063,0.059-0.125,0.119-0.187,0.18c-0.082,0.082-0.161,0.162-0.241,0.244
				c-0.061,0.061-0.121,0.121-0.181,0.183c-0.082,0.087-0.162,0.173-0.244,0.26c-0.056,0.061-0.113,0.121-0.168,0.183
				c-0.085,0.094-0.168,0.189-0.253,0.285c-0.05,0.057-0.101,0.111-0.151,0.17c-0.103,0.115-0.202,0.234-0.302,0.354
				c-0.031,0.038-0.063,0.075-0.095,0.112c-0.13,0.158-0.26,0.32-0.389,0.482c-0.031,0.039-0.062,0.08-0.091,0.119
				c-0.098,0.125-0.196,0.251-0.291,0.378c-0.044,0.058-0.09,0.12-0.135,0.181c-0.081,0.107-0.161,0.218-0.241,0.328
				c-0.047,0.066-0.094,0.134-0.142,0.201c-0.077,0.105-0.152,0.213-0.228,0.32c-0.048,0.07-0.095,0.142-0.143,0.213
				c-0.073,0.107-0.146,0.215-0.219,0.323c-0.047,0.071-0.095,0.144-0.142,0.216c-0.046,0.07-0.091,0.143-0.138,0.213l-0.486,0.795
				c4.294-4.16,8.045-2.434,8.045-2.434c-5.373,2.184-4.587,8.232-4.587,8.232c3.098-1.043,8.482-1.835,13.652,2.344
				c0,0-2.272,11.119,9.408,12.199c-6.915-15.232-15.033-23.352-18.307-26.625c-0.521-0.521-1.021-0.954-1.507-1.319
				c-0.156,0.11-0.311,0.223-0.464,0.338C77.134,21.297,77.084,21.337,77.034,21.376z"/>
		</g>
		<g>
			<g>
				<path d="M77.27,39.183c-6.003,0-10.87,4.867-10.87,10.87s4.867,10.868,10.87,10.868c6.003,0,10.868-4.865,10.868-10.868
					S83.273,39.183,77.27,39.183z M77.27,58.739c-4.8,0-8.688-3.889-8.688-8.687c0-4.799,3.888-8.688,8.688-8.688
					c4.797,0,8.686,3.889,8.686,8.688C85.956,54.851,82.067,58.739,77.27,58.739z"/>
			</g>
			<g>
				<path fill="none" stroke="#000000" stroke-width="4.0829" stroke-miterlimit="10" d="M77.27,39.183
					c-6.003,0-10.87,4.867-10.87,10.87s4.867,10.868,10.87,10.868c6.003,0,10.868-4.865,10.868-10.868S83.273,39.183,77.27,39.183z
					 M77.27,58.739c-4.8,0-8.688-3.889-8.688-8.687c0-4.799,3.888-8.688,8.688-8.688c4.797,0,8.686,3.889,8.686,8.688
					C85.956,54.851,82.067,58.739,77.27,58.739z"/>
			</g>
		</g>
		<g>
			<circle fill="#FFFFFF" cx="77.27" cy="50.052" r="8.687"/>
			<circle fill="none" stroke="#000000" stroke-width="4.0829" stroke-miterlimit="10" cx="77.27" cy="50.052" r="8.687"/>
		</g>
		<g>
			<path fill="#FFFFFF" d="M105.581,74.259c-10.3-5.855-26.46-9.766-44.829-10.191c-0.569-0.014-1.139-0.023-1.712-0.029
				l-0.029,0.754c-0.144,3.929-0.203,8.193-0.151,12.843l0.111,3.221l32.778,10.703l16.364-1.218
				C107.558,84.862,106.553,78.976,105.581,74.259z"/>
			<path fill="none" stroke="#000000" stroke-width="4.0829" stroke-miterlimit="10" d="M105.581,74.259
				c-10.3-5.855-26.46-9.766-44.829-10.191c-0.569-0.014-1.139-0.023-1.712-0.029l-0.029,0.754
				c-0.144,3.929-0.203,8.193-0.151,12.843l0.111,3.221l32.778,10.703l16.364-1.218C107.558,84.862,106.553,78.976,105.581,74.259z"
				/>
		</g>
		<g>
			<path d="M103.973,67.38c-0.653-2.494-1.355-4.873-2.096-7.135L89.902,58.99L103.973,67.38z"/>
			<path fill="none" stroke="#000000" stroke-width="4.0829" stroke-miterlimit="10" d="M103.973,67.38
				c-0.653-2.494-1.355-4.873-2.096-7.135L89.902,58.99L103.973,67.38z"/>
		</g>
		<g>
			<path d="M101.293,58.512c-0.531-1.544-1.081-3.034-1.644-4.47l-8.405-2.102L101.293,58.512z"/>
			<path fill="none" stroke="#000000" stroke-width="4.0829" stroke-miterlimit="10" d="M101.293,58.512
				c-0.531-1.544-1.081-3.034-1.644-4.47l-8.405-2.102L101.293,58.512z"/>
		</g>
		<g>
			<g>
				<path fill="#D44917" d="M104.847,70.923c-0.28-1.205-0.572-2.388-0.875-3.543l-14.071-8.39l11.975,1.255
					c-0.191-0.586-0.385-1.163-0.583-1.733L91.245,51.94l8.405,2.102c-0.711-1.811-1.441-3.537-2.187-5.178
					c-11.68-1.08-9.408-12.199-9.408-12.199c-5.169-4.179-10.554-3.387-13.652-2.344c0,0-0.786-6.049,4.587-8.232
					c0,0-3.751-1.727-8.045,2.434l-0.423,0.695c-0.041,0.07-0.081,0.141-0.121,0.211c0.037-0.064,0.074-0.129,0.109-0.193
					l0.011-0.018c0.13-0.223,0.262-0.447,0.395-0.668c0.168-0.277,0.341-0.551,0.515-0.822l0.037-0.059
					c0.034-0.053,0.068-0.104,0.101-0.154c0.047-0.072,0.095-0.145,0.142-0.216c0.073-0.108,0.146-0.216,0.219-0.323
					c0.048-0.071,0.095-0.143,0.143-0.213c0.075-0.107,0.151-0.215,0.228-0.32c0.048-0.067,0.095-0.135,0.142-0.201
					c0.081-0.11,0.161-0.221,0.241-0.328c0.045-0.061,0.091-0.123,0.135-0.181c0.094-0.127,0.192-0.253,0.291-0.378
					c0.029-0.039,0.06-0.08,0.091-0.119c0.129-0.162,0.259-0.324,0.389-0.482c0.032-0.037,0.064-0.074,0.095-0.112
					c0.101-0.12,0.2-0.239,0.302-0.354c0.05-0.059,0.101-0.113,0.151-0.17c0.085-0.096,0.168-0.191,0.253-0.285
					c0.056-0.062,0.112-0.122,0.168-0.183c0.082-0.087,0.162-0.173,0.244-0.26c0.061-0.062,0.121-0.122,0.181-0.183
					c0.08-0.082,0.159-0.162,0.241-0.244c0.062-0.061,0.124-0.121,0.187-0.18c0.081-0.078,0.162-0.157,0.245-0.233
					c0.062-0.058,0.124-0.116,0.188-0.173c0.084-0.076,0.167-0.152,0.253-0.227c0.061-0.055,0.124-0.109,0.187-0.164
					c0.088-0.076,0.178-0.148,0.268-0.223c0.059-0.051,0.12-0.101,0.18-0.148c0.101-0.081,0.202-0.159,0.303-0.238
					c0.051-0.039,0.101-0.079,0.151-0.118c0.154-0.115,0.308-0.228,0.464-0.338c-2.75-2.067-4.929-1.815-6.411-1.06
					c0,0-3.287,1.822-5.973,7.99l-0.188,0.469c-2.45,5.885-5.278,16.658-6.038,35.719c0.573,0.006,1.143,0.016,1.712,0.029
					c18.368,0.426,34.529,4.336,44.829,10.191C105.347,73.124,105.101,72.014,104.847,70.923z M77.27,39.183
					c6.003,0,10.868,4.867,10.868,10.87S83.273,60.921,77.27,60.921c-6.003,0-10.87-4.865-10.87-10.868S71.267,39.183,77.27,39.183z
					"/>
			</g>
			<g>
				<path fill="none" stroke="#000000" stroke-width="4.0829" stroke-miterlimit="10" d="M104.847,70.923
					c-0.28-1.205-0.572-2.388-0.875-3.543l-14.071-8.39l11.975,1.255c-0.191-0.586-0.385-1.163-0.583-1.733L91.245,51.94
					l8.405,2.102c-0.711-1.811-1.441-3.537-2.187-5.178c-11.68-1.08-9.408-12.199-9.408-12.199
					c-5.169-4.179-10.554-3.387-13.652-2.344c0,0-0.786-6.049,4.587-8.232c0,0-3.751-1.727-8.045,2.434l-0.423,0.695
					c-0.041,0.07-0.081,0.141-0.121,0.211c0.037-0.064,0.074-0.129,0.109-0.193l0.011-0.018c0.13-0.223,0.262-0.447,0.395-0.668
					c0.168-0.277,0.341-0.551,0.515-0.822l0.037-0.059c0.034-0.053,0.068-0.104,0.101-0.154c0.047-0.072,0.095-0.145,0.142-0.216
					c0.073-0.108,0.146-0.216,0.219-0.323c0.048-0.071,0.095-0.143,0.143-0.213c0.075-0.107,0.151-0.215,0.228-0.32
					c0.048-0.067,0.095-0.135,0.142-0.201c0.081-0.11,0.161-0.221,0.241-0.328c0.045-0.061,0.091-0.123,0.135-0.181
					c0.094-0.127,0.192-0.253,0.291-0.378c0.029-0.039,0.06-0.08,0.091-0.119c0.129-0.162,0.259-0.324,0.389-0.482
					c0.032-0.037,0.064-0.074,0.095-0.112c0.101-0.12,0.2-0.239,0.302-0.354c0.05-0.059,0.101-0.113,0.151-0.17
					c0.085-0.096,0.168-0.191,0.253-0.285c0.056-0.062,0.112-0.122,0.168-0.183c0.082-0.087,0.162-0.173,0.244-0.26
					c0.061-0.062,0.121-0.122,0.181-0.183c0.08-0.082,0.159-0.162,0.241-0.244c0.062-0.061,0.124-0.121,0.187-0.18
					c0.081-0.078,0.162-0.157,0.245-0.233c0.062-0.058,0.124-0.116,0.188-0.173c0.084-0.076,0.167-0.152,0.253-0.227
					c0.061-0.055,0.124-0.109,0.187-0.164c0.088-0.076,0.178-0.148,0.268-0.223c0.059-0.051,0.12-0.101,0.18-0.148
					c0.101-0.081,0.202-0.159,0.303-0.238c0.051-0.039,0.101-0.079,0.151-0.118c0.154-0.115,0.308-0.228,0.464-0.338
					c-2.75-2.067-4.929-1.815-6.411-1.06c0,0-3.287,1.822-5.973,7.99l-0.188,0.469c-2.45,5.885-5.278,16.658-6.038,35.719
					c0.573,0.006,1.143,0.016,1.712,0.029c18.368,0.426,34.529,4.336,44.829,10.191C105.347,73.124,105.101,72.014,104.847,70.923z
					 M77.27,39.183c6.003,0,10.868,4.867,10.868,10.87S83.273,60.921,77.27,60.921c-6.003,0-10.87-4.865-10.87-10.868
					S71.267,39.183,77.27,39.183z"/>
			</g>
		</g>
		<ellipse stroke="#000000" stroke-width="4.0829" stroke-miterlimit="10" cx="76.707" cy="51.226" rx="2.683" ry="2.95"/>
		<path stroke="#000000" stroke-width="4.0829" stroke-miterlimit="10" d="M83.14,46.905l-0.707-3.085
			c-0.01-0.042-0.043-0.079-0.085-0.095c-0.043-0.018-0.092-0.014-0.13,0.012l-11.347,6.838c-0.054,0.033-0.078,0.098-0.058,0.156
			l0.284,0.804c0.012,0.037,0.04,0.063,0.075,0.081c0.019,0.007,0.04,0.011,0.06,0.011c0.018,0,0.036-0.003,0.054-0.009
			l11.771-4.561C83.12,47.033,83.155,46.969,83.14,46.905z"/>
		<g>
			<path fill="none" stroke="#000000" stroke-width="4.0829" stroke-miterlimit="10" d="M70.401,29.429
				c0.04-0.07,0.08-0.141,0.121-0.211l-0.011,0.018C70.475,29.3,70.438,29.364,70.401,29.429z"/>
		</g>
		<path fill="#FFFFFF" stroke="#000000" stroke-width="4.0829" stroke-miterlimit="10" d="M8.967,42.007
			c-0.968,2.337,1.091,2.702,3.205,3.578c2.116,0.877,3.816,2.303,4.784-0.035c0.968-2.338,0.77-7.391-1.345-8.266
			C13.496,36.408,9.935,39.668,8.967,42.007z"/>
		<g>
			<g>
				<path fill="#FFFFFF" d="M4.393,41.365c0.972-2.915,1.974-5.792,3.168-8.627c0.94-2.229,2.11-4.747,3.664-6.859
					c0.81,0.429,1.452,0.952,1.87,1.341c-1.943,3.008-4.853,8.535-5.679,14.564c0,0,8.225,1.932,12.002,4.953L16.9,50.345
					c0,0-5.121-3.859-11.751-6.294C5.149,44.051,3.47,44.135,4.393,41.365z"/>
				<path fill="none" stroke="#000000" stroke-width="4.0829" stroke-miterlimit="10" d="M4.393,41.365
					c0.972-2.915,1.974-5.792,3.168-8.627c0.94-2.229,2.11-4.747,3.664-6.859c0.81,0.429,1.452,0.952,1.87,1.341
					c-1.943,3.008-4.853,8.535-5.679,14.564c0,0,8.225,1.932,12.002,4.953L16.9,50.345c0,0-5.121-3.859-11.751-6.294
					C5.149,44.051,3.47,44.135,4.393,41.365z"/>
			</g>
			<g>
				<path fill="#FFFFFF" d="M14.104,22.921c0.825-0.6,1.855-1.11,2.897-0.826c2.117,0.578,3.036,2.74,2.249,4.665
					c-1.354,3.311-2.844,1.36-3.318-0.349c0,0-0.291-2.252-1.13-1.497c-0.248,0.223-0.895,1.044-1.707,2.306
					c-0.418-0.389-1.06-0.912-1.87-1.341C12.065,24.737,13.015,23.713,14.104,22.921z"/>
				<path fill="none" stroke="#000000" stroke-width="4.0829" stroke-miterlimit="10" d="M14.104,22.921
					c0.825-0.6,1.855-1.11,2.897-0.826c2.117,0.578,3.036,2.74,2.249,4.665c-1.354,3.311-2.844,1.36-3.318-0.349
					c0,0-0.291-2.252-1.13-1.497c-0.248,0.223-0.895,1.044-1.707,2.306c-0.418-0.389-1.06-0.912-1.87-1.341
					C12.065,24.737,13.015,23.713,14.104,22.921z"/>
			</g>
		</g>
		<path fill="none" stroke="#000000" stroke-width="4.0829" stroke-miterlimit="10" d="M42.333,26.241
			c-0.081-0.11-0.162-0.221-0.243-0.328C42.171,26.021,42.252,26.131,42.333,26.241z"/>
		<path fill="none" stroke="#000000" stroke-width="4.0829" stroke-miterlimit="10" d="M41.956,25.732
			c-0.095-0.127-0.192-0.253-0.29-0.378C41.764,25.479,41.861,25.605,41.956,25.732z"/>
		<path fill="none" stroke="#000000" stroke-width="4.0829" stroke-miterlimit="10" d="M43.063,27.299
			c-0.071-0.108-0.144-0.216-0.217-0.323C42.919,27.083,42.992,27.19,43.063,27.299z"/>
		<path fill="none" stroke="#000000" stroke-width="4.0829" stroke-miterlimit="10" d="M42.701,26.763
			c-0.075-0.107-0.151-0.215-0.227-0.32C42.55,26.548,42.625,26.655,42.701,26.763z"/>
		<path fill="none" stroke="#000000" stroke-width="4.0829" stroke-miterlimit="10" d="M41.575,25.235
			c-0.129-0.162-0.259-0.324-0.39-0.482C41.316,24.911,41.446,25.073,41.575,25.235z"/>
		<path fill="none" stroke="#000000" stroke-width="4.0829" stroke-miterlimit="10" d="M40.214,23.648
			c-0.08-0.087-0.161-0.173-0.243-0.26C40.053,23.476,40.134,23.562,40.214,23.648z"/>
		<path fill="none" stroke="#000000" stroke-width="4.0829" stroke-miterlimit="10" d="M39.364,22.782
			c-0.082-0.078-0.163-0.157-0.246-0.233C39.201,22.625,39.283,22.704,39.364,22.782z"/>
		<path fill="none" stroke="#000000" stroke-width="4.0829" stroke-miterlimit="10" d="M39.792,23.206
			c-0.081-0.082-0.162-0.162-0.241-0.244C39.631,23.044,39.712,23.124,39.792,23.206z"/>
		<path fill="none" stroke="#000000" stroke-width="4.0829" stroke-miterlimit="10" d="M40.64,24.116
			c-0.086-0.096-0.169-0.191-0.256-0.285C40.471,23.925,40.554,24.021,40.64,24.116z"/>
		<path fill="none" stroke="#000000" stroke-width="4.0829" stroke-miterlimit="10" d="M41.091,24.641
			c-0.1-0.12-0.2-0.239-0.302-0.354C40.891,24.401,40.991,24.521,41.091,24.641z"/>
		<path fill="none" stroke="#000000" stroke-width="4.0829" stroke-miterlimit="10" d="M43.306,27.669l0.038,0.059
			c-0.047-0.07-0.092-0.143-0.138-0.213C43.238,27.565,43.273,27.616,43.306,27.669z"/>
		<g>
			<path d="M37.741,21.376c0.101,0.079,0.202,0.157,0.303,0.238c0.06,0.048,0.12,0.098,0.18,0.148
				c0.089,0.074,0.178,0.146,0.267,0.223c0.063,0.055,0.126,0.109,0.187,0.164c0.085,0.074,0.171,0.15,0.253,0.227
				c0.064,0.057,0.127,0.115,0.188,0.173c0.083,0.076,0.164,0.155,0.246,0.233c0.063,0.059,0.125,0.119,0.187,0.18
				c0.08,0.082,0.161,0.162,0.241,0.244c0.059,0.061,0.119,0.121,0.179,0.183c0.082,0.087,0.163,0.173,0.243,0.26
				c0.058,0.061,0.114,0.121,0.169,0.183c0.087,0.094,0.17,0.189,0.256,0.285c0.048,0.057,0.099,0.111,0.149,0.17
				c0.102,0.115,0.203,0.234,0.302,0.354c0.03,0.038,0.063,0.075,0.095,0.112c0.13,0.158,0.261,0.32,0.39,0.482
				c0.03,0.039,0.061,0.08,0.091,0.119c0.097,0.125,0.194,0.251,0.29,0.378c0.045,0.058,0.089,0.12,0.134,0.181
				c0.081,0.107,0.162,0.218,0.243,0.328c0.047,0.066,0.094,0.134,0.141,0.201c0.076,0.105,0.152,0.213,0.227,0.32
				c0.048,0.07,0.097,0.142,0.145,0.213c0.073,0.107,0.146,0.215,0.217,0.323c0.048,0.071,0.096,0.144,0.143,0.216
				c0.046,0.07,0.091,0.143,0.138,0.213l0.485,0.795c-4.293-4.16-8.044-2.434-8.044-2.434c5.372,2.184,4.587,8.232,4.587,8.232
				c-3.1-1.043-8.484-1.835-13.653,2.344c0,0,2.273,11.119-9.408,12.199c6.916-15.232,15.033-23.352,18.306-26.625
				c0.521-0.521,1.022-0.954,1.509-1.319c0.156,0.11,0.312,0.223,0.463,0.338C37.64,21.297,37.69,21.337,37.741,21.376z"/>
			<path fill="none" stroke="#000000" stroke-width="4.0829" stroke-miterlimit="10" d="M37.741,21.376
				c0.101,0.079,0.202,0.157,0.303,0.238c0.06,0.048,0.12,0.098,0.18,0.148c0.089,0.074,0.178,0.146,0.267,0.223
				c0.063,0.055,0.126,0.109,0.187,0.164c0.085,0.074,0.171,0.15,0.253,0.227c0.064,0.057,0.127,0.115,0.188,0.173
				c0.083,0.076,0.164,0.155,0.246,0.233c0.063,0.059,0.125,0.119,0.187,0.18c0.08,0.082,0.161,0.162,0.241,0.244
				c0.059,0.061,0.119,0.121,0.179,0.183c0.082,0.087,0.163,0.173,0.243,0.26c0.058,0.061,0.114,0.121,0.169,0.183
				c0.087,0.094,0.17,0.189,0.256,0.285c0.048,0.057,0.099,0.111,0.149,0.17c0.102,0.115,0.203,0.234,0.302,0.354
				c0.03,0.038,0.063,0.075,0.095,0.112c0.13,0.158,0.261,0.32,0.39,0.482c0.03,0.039,0.061,0.08,0.091,0.119
				c0.097,0.125,0.194,0.251,0.29,0.378c0.045,0.058,0.089,0.12,0.134,0.181c0.081,0.107,0.162,0.218,0.243,0.328
				c0.047,0.066,0.094,0.134,0.141,0.201c0.076,0.105,0.152,0.213,0.227,0.32c0.048,0.07,0.097,0.142,0.145,0.213
				c0.073,0.107,0.146,0.215,0.217,0.323c0.048,0.071,0.096,0.144,0.143,0.216c0.046,0.07,0.091,0.143,0.138,0.213l0.485,0.795
				c-4.293-4.16-8.044-2.434-8.044-2.434c5.372,2.184,4.587,8.232,4.587,8.232c-3.1-1.043-8.484-1.835-13.653,2.344
				c0,0,2.273,11.119-9.408,12.199c6.916-15.232,15.033-23.352,18.306-26.625c0.521-0.521,1.022-0.954,1.509-1.319
				c0.156,0.11,0.312,0.223,0.463,0.338C37.64,21.297,37.69,21.337,37.741,21.376z"/>
		</g>
		<g>
			<g>
				<path d="M26.637,50.053c0,6.003,4.866,10.868,10.869,10.868c6.003,0,10.87-4.865,10.87-10.868s-4.867-10.87-10.87-10.87
					C31.503,39.183,26.637,44.05,26.637,50.053z M28.818,50.053c0-4.799,3.89-8.688,8.688-8.688c4.797,0,8.688,3.889,8.688,8.688
					c0,4.798-3.892,8.687-8.688,8.687C32.708,58.739,28.818,54.851,28.818,50.053z"/>
			</g>
			<g>
				<path fill="none" stroke="#000000" stroke-width="4.0829" stroke-miterlimit="10" d="M26.637,50.053
					c0,6.003,4.866,10.868,10.869,10.868c6.003,0,10.87-4.865,10.87-10.868s-4.867-10.87-10.87-10.87
					C31.503,39.183,26.637,44.05,26.637,50.053z M28.818,50.053c0-4.799,3.89-8.688,8.688-8.688c4.797,0,8.688,3.889,8.688,8.688
					c0,4.798-3.892,8.687-8.688,8.687C32.708,58.739,28.818,54.851,28.818,50.053z"/>
			</g>
		</g>
		<g>
			<circle fill="#FFFFFF" cx="37.505" cy="50.052" r="8.687"/>
			<circle fill="none" stroke="#000000" stroke-width="4.0829" stroke-miterlimit="10" cx="37.505" cy="50.052" r="8.687"/>
		</g>
		<g>
			<path fill="#FFFFFF" d="M9.193,74.259c10.301-5.855,26.461-9.766,44.828-10.191c0.569-0.014,1.141-0.023,1.714-0.029l0.028,0.754
				c0.144,3.929,0.203,8.193,0.153,12.843l-0.111,3.221L23.026,91.559L6.847,89.837C7.404,84.359,8.221,78.976,9.193,74.259z"/>
			<path fill="none" stroke="#000000" stroke-width="4.0829" stroke-miterlimit="10" d="M9.193,74.259
				c10.301-5.855,26.461-9.766,44.828-10.191c0.569-0.014,1.141-0.023,1.714-0.029l0.028,0.754
				c0.144,3.929,0.203,8.193,0.153,12.843l-0.111,3.221L23.026,91.559L6.847,89.837C7.404,84.359,8.221,78.976,9.193,74.259z"/>
		</g>
		<g>
			<path d="M10.802,67.38c0.654-2.494,1.354-4.873,2.096-7.135l11.976-1.255L10.802,67.38z"/>
			<path fill="none" stroke="#000000" stroke-width="4.0829" stroke-miterlimit="10" d="M10.802,67.38
				c0.654-2.494,1.354-4.873,2.096-7.135l11.976-1.255L10.802,67.38z"/>
		</g>
		<g>
			<path d="M13.481,58.512c0.533-1.544,1.081-3.034,1.644-4.47l8.405-2.102L13.481,58.512z"/>
			<path fill="none" stroke="#000000" stroke-width="4.0829" stroke-miterlimit="10" d="M13.481,58.512
				c0.533-1.544,1.081-3.034,1.644-4.47l8.405-2.102L13.481,58.512z"/>
		</g>
		<g>
			<g>
				<path fill="#D44917" d="M9.193,74.259c10.301-5.855,26.461-9.766,44.828-10.191c0.569-0.014,1.141-0.023,1.714-0.029
					c-0.761-19.061-3.588-29.834-6.037-35.719l-0.188-0.469c-2.687-6.168-5.974-7.99-5.974-7.99c-1.482-0.756-3.661-1.008-6.41,1.06
					c0.156,0.11,0.312,0.223,0.463,0.338c0.051,0.039,0.102,0.079,0.153,0.118c0.101,0.079,0.202,0.157,0.303,0.238
					c0.06,0.048,0.12,0.098,0.18,0.148c0.089,0.074,0.18,0.146,0.267,0.223c0.063,0.055,0.126,0.109,0.187,0.164
					c0.085,0.074,0.171,0.15,0.253,0.227c0.064,0.057,0.127,0.115,0.188,0.173c0.083,0.076,0.164,0.155,0.246,0.233
					c0.063,0.059,0.125,0.119,0.187,0.18c0.08,0.082,0.161,0.162,0.241,0.244c0.059,0.061,0.119,0.121,0.179,0.183
					c0.082,0.087,0.163,0.173,0.243,0.26c0.058,0.061,0.114,0.121,0.169,0.183c0.087,0.094,0.17,0.189,0.256,0.285
					c0.048,0.057,0.099,0.111,0.149,0.17c0.102,0.115,0.203,0.234,0.302,0.354c0.03,0.038,0.063,0.075,0.095,0.112
					c0.13,0.158,0.261,0.32,0.39,0.482c0.03,0.039,0.061,0.08,0.091,0.119c0.097,0.125,0.194,0.251,0.29,0.378
					c0.045,0.058,0.089,0.12,0.134,0.181c0.081,0.107,0.162,0.218,0.243,0.328c0.047,0.066,0.094,0.134,0.141,0.201
					c0.076,0.105,0.152,0.213,0.227,0.32c0.048,0.07,0.097,0.142,0.145,0.213c0.073,0.107,0.146,0.215,0.217,0.323
					c0.048,0.071,0.096,0.144,0.143,0.216c0.033,0.051,0.067,0.102,0.101,0.154l0.038,0.059c0.172,0.271,0.346,0.545,0.514,0.822
					c0.133,0.221,0.265,0.445,0.394,0.668l0.01,0.018c0.038,0.064,0.073,0.129,0.111,0.193c-0.039-0.07-0.08-0.141-0.121-0.211
					l-0.422-0.695c-4.293-4.16-8.044-2.434-8.044-2.434c5.372,2.184,4.587,8.232,4.587,8.232c-3.1-1.043-8.484-1.835-13.653,2.344
					c0,0,2.273,11.119-9.408,12.199c-0.746,1.641-1.476,3.367-2.186,5.178l8.405-2.102l-10.048,6.571
					c-0.197,0.57-0.392,1.147-0.583,1.733l11.976-1.255l-14.072,8.39c-0.304,1.155-0.593,2.338-0.874,3.543
					C9.673,72.014,9.428,73.124,9.193,74.259z M48.375,50.053c0,6.003-4.867,10.868-10.87,10.868
					c-6.002,0-10.869-4.865-10.869-10.868s4.866-10.87,10.869-10.87C43.509,39.183,48.375,44.05,48.375,50.053z"/>
			</g>
			<g>
				<path fill="none" stroke="#000000" stroke-width="4.0829" stroke-miterlimit="10" d="M9.193,74.259
					c10.301-5.855,26.461-9.766,44.828-10.191c0.569-0.014,1.141-0.023,1.714-0.029c-0.761-19.061-3.588-29.834-6.037-35.719
					l-0.188-0.469c-2.687-6.168-5.974-7.99-5.974-7.99c-1.482-0.756-3.661-1.008-6.41,1.06c0.156,0.11,0.312,0.223,0.463,0.338
					c0.051,0.039,0.102,0.079,0.153,0.118c0.101,0.079,0.202,0.157,0.303,0.238c0.06,0.048,0.12,0.098,0.18,0.148
					c0.089,0.074,0.18,0.146,0.267,0.223c0.063,0.055,0.126,0.109,0.187,0.164c0.085,0.074,0.171,0.15,0.253,0.227
					c0.064,0.057,0.127,0.115,0.188,0.173c0.083,0.076,0.164,0.155,0.246,0.233c0.063,0.059,0.125,0.119,0.187,0.18
					c0.08,0.082,0.161,0.162,0.241,0.244c0.059,0.061,0.119,0.121,0.179,0.183c0.082,0.087,0.163,0.173,0.243,0.26
					c0.058,0.061,0.114,0.121,0.169,0.183c0.087,0.094,0.17,0.189,0.256,0.285c0.048,0.057,0.099,0.111,0.149,0.17
					c0.102,0.115,0.203,0.234,0.302,0.354c0.03,0.038,0.063,0.075,0.095,0.112c0.13,0.158,0.261,0.32,0.39,0.482
					c0.03,0.039,0.061,0.08,0.091,0.119c0.097,0.125,0.194,0.251,0.29,0.378c0.045,0.058,0.089,0.12,0.134,0.181
					c0.081,0.107,0.162,0.218,0.243,0.328c0.047,0.066,0.094,0.134,0.141,0.201c0.076,0.105,0.152,0.213,0.227,0.32
					c0.048,0.07,0.097,0.142,0.145,0.213c0.073,0.107,0.146,0.215,0.217,0.323c0.048,0.071,0.096,0.144,0.143,0.216
					c0.033,0.051,0.067,0.102,0.101,0.154l0.038,0.059c0.172,0.271,0.346,0.545,0.514,0.822c0.133,0.221,0.265,0.445,0.394,0.668
					l0.01,0.018c0.038,0.064,0.073,0.129,0.111,0.193c-0.039-0.07-0.08-0.141-0.121-0.211l-0.422-0.695
					c-4.293-4.16-8.044-2.434-8.044-2.434c5.372,2.184,4.587,8.232,4.587,8.232c-3.1-1.043-8.484-1.835-13.653,2.344
					c0,0,2.273,11.119-9.408,12.199c-0.746,1.641-1.476,3.367-2.186,5.178l8.405-2.102l-10.048,6.571
					c-0.197,0.57-0.392,1.147-0.583,1.733l11.976-1.255l-14.072,8.39c-0.304,1.155-0.593,2.338-0.874,3.543
					C9.673,72.014,9.428,73.124,9.193,74.259z M48.375,50.053c0,6.003-4.867,10.868-10.87,10.868
					c-6.002,0-10.869-4.865-10.869-10.868s4.866-10.87,10.869-10.87C43.509,39.183,48.375,44.05,48.375,50.053z"/>
			</g>
		</g>
		<ellipse stroke="#000000" stroke-width="4.0829" stroke-miterlimit="10" cx="38.067" cy="51.226" rx="2.683" ry="2.95"/>
		<path stroke="#000000" stroke-width="4.0829" stroke-miterlimit="10" d="M31.633,46.905l0.708-3.085
			c0.011-0.042,0.042-0.079,0.084-0.095c0.042-0.018,0.091-0.014,0.131,0.012l11.346,6.838c0.055,0.033,0.079,0.098,0.058,0.156
			l-0.283,0.804c-0.013,0.037-0.041,0.063-0.078,0.081c-0.019,0.007-0.038,0.011-0.058,0.011c-0.019,0-0.036-0.003-0.054-0.009
			l-11.772-4.561C31.654,47.033,31.62,46.969,31.633,46.905z"/>
		<g>
			<path fill="none" stroke="#000000" stroke-width="4.0829" stroke-miterlimit="10" d="M44.372,29.429
				c-0.039-0.07-0.08-0.141-0.121-0.211l0.01,0.018C44.299,29.3,44.334,29.364,44.372,29.429z"/>
		</g>
		<path fill="#D44917" stroke="#000000" stroke-width="4.0829" stroke-miterlimit="10" d="M108.052,91.054l-1.842-0.787l0.079-0.051
			l-0.989-0.337l-5.495-2.35l-3.911-0.861l-3.875-1.321l-8.906-1.521l-4.459-0.998l-2.538-0.069l-9.949-1.105l-8.949,0.408
			l-8.95-0.408l-9.95,1.105l-2.536,0.069l-4.458,0.998l-8.907,1.521l-3.874,1.321l-3.912,0.861l-5.495,2.35l-0.989,0.337l0.08,0.051
			l-1.412,0.379c-0.603,6.529-1.302,14.012-1.137,21.666c0.416,3.305,4.104,0.496,5.404-0.467c2.603-1.928,6.982-5.186,10.411-3.457
			c2.049,1.033,3.21,4.468,3.21,6.673c0,1.679,0.505,1.511,0.505,1.511s11.415-2.016,12.589-2.183c0.69-0.099,0.795-1.14,0.85-1.666
			c0.103-0.971-0.053-1.901-0.14-2.865c0.005,0.056,0.009,0.108,0.014,0.163c-0.03-0.326-0.051-0.65-0.051-0.98
			c0-7.187,8.382-13.017,18.749-13.064c10.366,0.048,18.749,5.878,18.749,13.064c0,0.334-0.017,0.662-0.052,0.986l0.267-0.174
			c-0.029,0.332-0.074,0.666-0.141,0.99c0,0-0.577,3.379,0.598,3.546s12.59,2.183,12.59,2.183s0.502,0.168,0.502-1.511
			c0-2.205,1.163-5.64,3.21-6.673c3.43-1.729,7.81,1.529,10.412,3.457c1.3,0.963,4.987,3.771,5.404,0.467
			C108.922,104.657,108.655,97.586,108.052,91.054z"/>
	</g>
	<g>
		<g>
			<path fill="#FBD4B1" d="M55.521,17.681c-0.054-1.449,0.046-2.879,0.233-4.231c-1.441-0.222-3.785-0.338-5.707,0.714l-0.064,5.711
				C51.356,18.358,53.596,17.828,55.521,17.681z"/>
			<path fill="#FBD4B1" d="M56.696,9.045c0.729-2.548,1.519-4.233,1.519-4.233s-3.272-3.902-8.057-0.252l-0.049,4.382
				C51.321,8.414,53.469,7.985,56.696,9.045z"/>
			<path fill="#FBD4B1" d="M49.781,37.546c2.344-4.648,4.606-6.314,6.579-6.469c-1.287-2.814-1.656-5.18-1.097-7.05
				c0.25-0.837,0.646-1.415,1.001-1.8c-0.386-1.237-0.605-2.51-0.7-3.777c-2.099,0.166-4.563,0.806-5.598,2.759
				c-0.007,0.634,0.043,1.223,0.11,1.85c0.226,2.081-1.362,3.876-2.897,5.045C43.316,31.04,49.781,37.546,49.781,37.546z"/>
			<path fill="#FBD4B1" d="M55.87,12.692c0.172-1.037,0.391-2.018,0.624-2.912c-3.342-1.092-5.415-0.484-6.395,0.017l-0.042,3.493
				C52.086,12.331,54.405,12.458,55.87,12.692z"/>
			<path fill="#FBD4B1" d="M61.286,25.37c-0.553-0.319-1.118-0.668-1.739-0.837c-0.41-0.111-0.839-0.049-1.253-0.135
				c-0.372-0.075-0.745-0.238-1.064-0.438c-0.136-0.086-0.841-0.663-0.676-0.896c-0.214,0.301-0.426,0.696-0.576,1.211
				c-0.365,1.252-0.399,3.408,1.229,6.826c0.516,0.068,1.008,0.235,1.472,0.469C58.87,29.758,59.464,27.033,61.286,25.37z"/>
			<path fill="#FBD4B1" d="M61.973,25.786c-1.881,1.576-2.419,4.492-2.569,6.215c2.278,1.565,3.722,4.538,3.722,4.538l2.518-8.06
				C65.154,27.991,63.531,26.759,61.973,25.786z"/>
			<path fill="#FFFFFF" d="M56.494,9.78c0.066-0.252,0.135-0.497,0.202-0.735c-3.227-1.06-5.375-0.631-6.587-0.104l-0.01,0.855
				C51.079,9.296,53.151,8.688,56.494,9.78z"/>
			<path fill="#FFFFFF" d="M55.754,13.449c0.035-0.256,0.073-0.508,0.116-0.757c-1.464-0.234-3.783-0.361-5.813,0.598l-0.01,0.873
				C51.969,13.111,54.313,13.228,55.754,13.449z"/>
			<path fill="#FFFFFF" d="M55.564,18.45c-0.02-0.258-0.033-0.514-0.043-0.77c-1.925,0.147-4.165,0.678-5.538,2.193l-0.018,1.335
				C51.001,19.256,53.465,18.616,55.564,18.45z"/>
			<path fill="#FFFFFF" d="M55.977,24.274c0.15-0.515,0.362-0.91,0.576-1.211c-0.105-0.275-0.201-0.555-0.289-0.836
				c-0.356,0.385-0.751,0.963-1.001,1.8c-0.56,1.87-0.19,4.235,1.097,7.05c0.288-0.023,0.572-0.014,0.847,0.023
				C55.578,27.683,55.612,25.526,55.977,24.274z"/>
			<path fill="#FFFFFF" d="M61.973,25.786c-0.232-0.146-0.463-0.285-0.687-0.416c-1.821,1.663-2.416,4.388-2.607,6.199
				c0.25,0.127,0.493,0.272,0.726,0.432C59.553,30.278,60.091,27.362,61.973,25.786z"/>
			<path fill="#FFFFFF" d="M49.724,25.171c2.362,2.058,3.762,4.097,4.168,6.084c0.059,0.289,0.093,0.559,0.108,0.812
				c0,0-0.657,0.413-0.77,0.538c0.024-0.354,0.005-0.777-0.098-1.266c-0.269-1.273-1.174-3.167-3.788-5.479L49.724,25.171z"/>
		</g>
		<path fill="#FBD4B1" d="M105.807,42.007c0.97,2.337-1.09,2.702-3.205,3.578c-2.115,0.877-3.815,2.303-4.784-0.035
			c-0.968-2.338-0.769-7.391,1.346-8.266C101.279,36.408,104.84,39.668,105.807,42.007z"/>
		<g>
			<path fill="#FBD4B1" d="M110.38,41.365c-0.97-2.915-1.971-5.792-3.167-8.627c-0.941-2.229-2.111-4.747-3.664-6.859
				c-0.808,0.429-1.451,0.952-1.866,1.341c1.94,3.008,4.849,8.535,5.678,14.564c0,0-8.228,1.932-12.005,4.953l2.519,3.607
				c0,0,5.121-3.859,11.751-6.294C109.625,44.051,111.304,44.135,110.38,41.365z"/>
			<path fill="#FBD4B1" d="M100.669,22.921c-0.824-0.6-1.853-1.11-2.895-0.826c-2.118,0.578-3.036,2.74-2.249,4.665
				c1.354,3.311,2.843,1.36,3.32-0.349c0,0,0.288-2.252,1.128-1.497c0.248,0.223,0.895,1.044,1.709,2.306
				c0.415-0.389,1.058-0.912,1.866-1.341C102.709,24.737,101.76,23.713,100.669,22.921z"/>
		</g>
		<polygon fill="#FBD4B1" points="80.332,115.06 81.003,123.788 83.521,123.285 85.452,115.899 		"/>
		<polygon fill="#FBD4B1" points="33.386,115.06 32.714,123.788 30.197,123.285 28.266,115.899 		"/>
		<path d="M34.897,124.208c0,0-3.526-1.847-7.22-1.679l3.274,6.296c0,0-5.119-1.51-8.562,2.938c0,0,9.15-0.252,12.422,0.925
			c0,0,1.596,0.922,1.344-1.428C35.904,128.907,34.897,124.208,34.897,124.208z"/>
		<path fill="none" d="M64.935,42.784c0.03-0.102,0.061-0.203,0.09-0.305C64.996,42.581,64.964,42.683,64.935,42.784z"/>
		<path fill="none" d="M64.737,43.459c0.029-0.102,0.059-0.206,0.089-0.308C64.796,43.253,64.766,43.357,64.737,43.459z"/>
		<path fill="none" d="M65.136,42.11c0.031-0.102,0.064-0.203,0.095-0.303C65.2,41.907,65.167,42.009,65.136,42.11z"/>
		<path fill="none" d="M65.348,41.435c0.03-0.1,0.062-0.197,0.093-0.295C65.409,41.237,65.377,41.335,65.348,41.435z"/>
		<path fill="none" d="M64.177,45.474c0.029-0.105,0.055-0.21,0.083-0.314C64.232,45.264,64.206,45.368,64.177,45.474z"/>
		<path fill="none" d="M65.563,40.755c0.03-0.092,0.061-0.185,0.09-0.277C65.624,40.57,65.593,40.663,65.563,40.755z"/>
		<path fill="none" d="M64.544,44.132c0.029-0.102,0.058-0.205,0.087-0.309C64.602,43.927,64.573,44.03,64.544,44.132z"/>
		<path fill="none" d="M64.359,44.803c0.026-0.103,0.057-0.205,0.085-0.308C64.416,44.598,64.385,44.7,64.359,44.803z"/>
		<path fill="none" d="M66.248,38.731c0.027-0.078,0.056-0.158,0.083-0.238C66.304,38.573,66.275,38.653,66.248,38.731z"/>
		<path fill="none" d="M66.734,37.394c0.021-0.06,0.044-0.119,0.067-0.178C66.778,37.274,66.755,37.334,66.734,37.394z"/>
		<path fill="none" d="M65.786,40.079c0.029-0.09,0.06-0.179,0.091-0.269C65.846,39.9,65.815,39.989,65.786,40.079z"/>
		<path fill="none" d="M68.309,33.56c0.01-0.021,0.019-0.046,0.03-0.068C68.328,33.514,68.319,33.538,68.309,33.56z"/>
		<path fill="none" d="M66.985,36.728c0.014-0.034,0.027-0.068,0.042-0.104C67.013,36.659,67,36.693,66.985,36.728z"/>
		<path fill="none" d="M68.563,33.006c0.023-0.05,0.046-0.102,0.07-0.151C68.608,32.904,68.585,32.956,68.563,33.006z"/>
		<path fill="none" d="M66.012,39.405c0.03-0.086,0.062-0.172,0.09-0.258C66.073,39.233,66.042,39.319,66.012,39.405z"/>
		<path fill="none" d="M66.486,38.062c0.027-0.073,0.054-0.145,0.08-0.219C66.54,37.917,66.514,37.988,66.486,38.062z"/>
		<path fill="none" d="M64.003,46.138c0.026-0.104,0.055-0.208,0.081-0.311C64.058,45.93,64.029,46.033,64.003,46.138z"/>
		<path fill="none" d="M63.508,48.115c0.026-0.106,0.052-0.213,0.077-0.319C63.56,47.902,63.534,48.009,63.508,48.115z"/>
		<path fill="none" d="M61.628,57.562c0.016-0.099,0.03-0.197,0.048-0.298C61.658,57.364,61.644,57.463,61.628,57.562z"/>
		<path fill="none" d="M62.418,53.126c0.02-0.104,0.041-0.209,0.063-0.314C62.459,52.917,62.438,53.021,62.418,53.126z"/>
		<path fill="none" d="M62.304,53.718c0.02-0.104,0.04-0.209,0.059-0.314C62.344,53.509,62.324,53.613,62.304,53.718z"/>
		<path fill="none" d="M62.537,52.526c0.022-0.105,0.044-0.211,0.065-0.318C62.581,52.315,62.559,52.421,62.537,52.526z"/>
		<path fill="none" d="M62.662,51.918c0.021-0.105,0.043-0.212,0.065-0.317C62.705,51.706,62.682,51.813,62.662,51.918z"/>
		<path fill="none" d="M62.088,54.868c0.02-0.102,0.037-0.203,0.056-0.306C62.125,54.665,62.108,54.767,62.088,54.868z"/>
		<path fill="none" d="M61.711,57.05c0.016-0.1,0.033-0.201,0.049-0.305C61.744,56.849,61.727,56.95,61.711,57.05z"/>
		<path fill="none" d="M61.89,55.983c0.019-0.103,0.037-0.204,0.054-0.308C61.927,55.779,61.909,55.881,61.89,55.983z"/>
		<path fill="none" d="M62.194,54.296c0.018-0.102,0.039-0.203,0.058-0.307C62.233,54.093,62.212,54.194,62.194,54.296z"/>
		<path fill="none" d="M61.988,55.431c0.016-0.101,0.035-0.201,0.054-0.303C62.023,55.229,62.004,55.33,61.988,55.431z"/>
		<path fill="none" d="M61.799,56.521c0.016-0.1,0.034-0.201,0.052-0.301C61.833,56.319,61.815,56.421,61.799,56.521z"/>
		<path fill="none" d="M68.845,32.403c0.029-0.059,0.058-0.118,0.086-0.176C68.902,32.285,68.874,32.345,68.845,32.403z"/>
		<path fill="none" d="M63.667,47.461c0.027-0.106,0.054-0.214,0.08-0.321C63.721,47.247,63.693,47.354,63.667,47.461z"/>
		<path fill="none" d="M63.833,46.803c0.026-0.106,0.053-0.212,0.079-0.316C63.885,46.591,63.859,46.696,63.833,46.803z"/>
		<path fill="none" d="M63.354,48.766c0.025-0.108,0.051-0.216,0.076-0.325C63.405,48.55,63.379,48.657,63.354,48.766z"/>
		<path fill="none" d="M62.923,50.68c0.023-0.106,0.047-0.215,0.069-0.324C62.97,50.465,62.946,50.573,62.923,50.68z"/>
		<path fill="none" d="M62.79,51.3c0.023-0.105,0.046-0.213,0.068-0.32C62.836,51.087,62.813,51.194,62.79,51.3z"/>
		<path fill="none" d="M63.063,50.044c0.023-0.105,0.048-0.211,0.072-0.318C63.11,49.833,63.085,49.938,63.063,50.044z"/>
		<path fill="none" d="M63.206,49.407c0.024-0.105,0.048-0.213,0.073-0.32C63.254,49.194,63.23,49.302,63.206,49.407z"/>
		<path fill="none" d="M72.442,26.241c0.081-0.11,0.161-0.221,0.241-0.328C72.603,26.021,72.522,26.131,72.442,26.241z"/>
		<path fill="none" d="M72.818,25.732c0.094-0.127,0.192-0.253,0.291-0.378C73.011,25.479,72.913,25.605,72.818,25.732z"/>
		<path fill="none" d="M71.711,27.299c0.073-0.108,0.146-0.216,0.219-0.323C71.856,27.083,71.784,27.19,71.711,27.299z"/>
		<path fill="none" d="M72.073,26.763c0.075-0.107,0.151-0.215,0.228-0.32C72.224,26.548,72.148,26.655,72.073,26.763z"/>
		<path fill="none" d="M73.2,25.235c0.129-0.162,0.259-0.324,0.389-0.482C73.458,24.911,73.329,25.073,73.2,25.235z"/>
		<path fill="none" d="M74.559,23.648c0.082-0.087,0.162-0.173,0.244-0.26C74.72,23.476,74.641,23.562,74.559,23.648z"/>
		<path fill="none" d="M75.411,22.782c0.081-0.078,0.162-0.157,0.245-0.233C75.573,22.625,75.491,22.704,75.411,22.782z"/>
		<path fill="none" d="M74.983,23.206c0.08-0.082,0.159-0.162,0.241-0.244C75.142,23.044,75.063,23.124,74.983,23.206z"/>
		<path fill="none" d="M74.137,24.116c0.085-0.096,0.168-0.191,0.253-0.285C74.305,23.925,74.222,24.021,74.137,24.116z"/>
		<path fill="none" d="M73.684,24.641c0.101-0.12,0.2-0.239,0.302-0.354C73.883,24.401,73.784,24.521,73.684,24.641z"/>
		<path fill="none" d="M69.439,31.209c0.037-0.073,0.073-0.147,0.111-0.22C69.512,31.062,69.476,31.136,69.439,31.209z"/>
		<path fill="none" d="M70.073,30.014c0.042-0.075,0.083-0.151,0.124-0.227C70.156,29.862,70.115,29.938,70.073,30.014z"/>
		<path fill="none" d="M69.751,30.609c0.039-0.075,0.079-0.151,0.119-0.226C69.831,30.458,69.791,30.534,69.751,30.609z"/>
		<path fill="none" d="M69.138,31.806c0.033-0.068,0.065-0.135,0.098-0.201C69.204,31.671,69.171,31.737,69.138,31.806z"/>
		<path fill="none" d="M71.468,27.669l-0.037,0.059c0.046-0.07,0.091-0.143,0.138-0.213C71.536,27.565,71.502,27.616,71.468,27.669z
			"/>
		<path fill="none" d="M70.511,29.235c-0.036,0.064-0.073,0.129-0.109,0.193c0.04-0.07,0.08-0.141,0.121-0.211L70.511,29.235z"/>
		<path d="M77.034,21.376c-0.101,0.079-0.202,0.157-0.303,0.238c-0.061,0.048-0.121,0.098-0.18,0.148
			c-0.089,0.074-0.179,0.146-0.268,0.223c-0.063,0.055-0.126,0.109-0.187,0.164c-0.085,0.074-0.169,0.15-0.253,0.227
			c-0.064,0.057-0.126,0.115-0.188,0.173c-0.083,0.076-0.164,0.155-0.245,0.233c-0.063,0.059-0.125,0.119-0.187,0.18
			c-0.082,0.082-0.161,0.162-0.241,0.244c-0.061,0.061-0.121,0.121-0.181,0.183c-0.082,0.087-0.162,0.173-0.244,0.26
			c-0.056,0.061-0.113,0.121-0.168,0.183c-0.085,0.094-0.168,0.189-0.253,0.285c-0.05,0.057-0.101,0.111-0.151,0.17
			c-0.103,0.115-0.202,0.234-0.302,0.354c-0.031,0.038-0.063,0.075-0.095,0.112c-0.13,0.158-0.26,0.32-0.389,0.482
			c-0.031,0.039-0.062,0.08-0.091,0.119c-0.098,0.125-0.196,0.251-0.291,0.378c-0.044,0.058-0.09,0.12-0.135,0.181
			c-0.081,0.107-0.161,0.218-0.241,0.328c-0.047,0.066-0.094,0.134-0.142,0.201c-0.077,0.105-0.152,0.213-0.228,0.32
			c-0.048,0.07-0.095,0.142-0.143,0.213c-0.073,0.107-0.146,0.215-0.219,0.323c-0.047,0.071-0.095,0.144-0.142,0.216
			c-0.046,0.07-0.091,0.143-0.138,0.213l-0.486,0.795c4.294-4.16,8.045-2.434,8.045-2.434c-5.373,2.184-4.587,8.232-4.587,8.232
			c3.098-1.043,8.482-1.835,13.652,2.344c0,0-2.272,11.119,9.408,12.199c-6.915-15.232-15.033-23.352-18.307-26.625
			c-0.521-0.521-1.021-0.954-1.507-1.319c-0.156,0.11-0.311,0.223-0.464,0.338C77.134,21.297,77.084,21.337,77.034,21.376z"/>
		<g>
			<path d="M77.27,39.183c-6.003,0-10.87,4.867-10.87,10.87s4.867,10.868,10.87,10.868c6.003,0,10.868-4.865,10.868-10.868
				S83.273,39.183,77.27,39.183z M77.27,58.739c-4.8,0-8.688-3.889-8.688-8.687c0-4.799,3.888-8.688,8.688-8.688
				c4.797,0,8.686,3.889,8.686,8.688C85.956,54.851,82.067,58.739,77.27,58.739z"/>
		</g>
		<circle fill="#FFFFFF" cx="77.27" cy="50.052" r="8.687"/>
		<path fill="#FBD4B1" d="M105.581,74.259c-10.3-5.855-26.46-9.766-44.829-10.191c-0.569-0.014-1.139-0.023-1.712-0.029
			l-0.029,0.754c-0.144,3.929-0.203,8.193-0.151,12.843l0.111,3.221l32.778,10.703l16.364-1.218
			C107.558,84.862,106.553,78.976,105.581,74.259z"/>
		<path d="M103.973,67.38c-0.653-2.494-1.355-4.873-2.096-7.135L89.902,58.99L103.973,67.38z"/>
		<path d="M101.293,58.512c-0.531-1.544-1.081-3.034-1.644-4.47l-8.405-2.102L101.293,58.512z"/>
		<g>
			<path fill="#D44917" d="M104.847,70.923c-0.28-1.205-0.572-2.388-0.875-3.543l-14.071-8.39l11.975,1.255
				c-0.191-0.586-0.385-1.163-0.583-1.733L91.245,51.94l8.405,2.102c-0.711-1.811-1.441-3.537-2.187-5.178
				c-11.68-1.08-9.408-12.199-9.408-12.199c-5.169-4.179-10.554-3.387-13.652-2.344c0,0-0.786-6.049,4.587-8.232
				c0,0-3.751-1.727-8.045,2.434l-0.423,0.695c-0.041,0.07-0.081,0.141-0.121,0.211c0.037-0.064,0.074-0.129,0.109-0.193
				l0.011-0.018c0.13-0.223,0.262-0.447,0.395-0.668c0.168-0.277,0.341-0.551,0.515-0.822l0.037-0.059
				c0.034-0.053,0.068-0.104,0.101-0.154c0.047-0.072,0.095-0.145,0.142-0.216c0.073-0.108,0.146-0.216,0.219-0.323
				c0.048-0.071,0.095-0.143,0.143-0.213c0.075-0.107,0.151-0.215,0.228-0.32c0.048-0.067,0.095-0.135,0.142-0.201
				c0.081-0.11,0.161-0.221,0.241-0.328c0.045-0.061,0.091-0.123,0.135-0.181c0.094-0.127,0.192-0.253,0.291-0.378
				c0.029-0.039,0.06-0.08,0.091-0.119c0.129-0.162,0.259-0.324,0.389-0.482c0.032-0.037,0.064-0.074,0.095-0.112
				c0.101-0.12,0.2-0.239,0.302-0.354c0.05-0.059,0.101-0.113,0.151-0.17c0.085-0.096,0.168-0.191,0.253-0.285
				c0.056-0.062,0.112-0.122,0.168-0.183c0.082-0.087,0.162-0.173,0.244-0.26c0.061-0.062,0.121-0.122,0.181-0.183
				c0.08-0.082,0.159-0.162,0.241-0.244c0.062-0.061,0.124-0.121,0.187-0.18c0.081-0.078,0.162-0.157,0.245-0.233
				c0.062-0.058,0.124-0.116,0.188-0.173c0.084-0.076,0.167-0.152,0.253-0.227c0.061-0.055,0.124-0.109,0.187-0.164
				c0.088-0.076,0.178-0.148,0.268-0.223c0.059-0.051,0.12-0.101,0.18-0.148c0.101-0.081,0.202-0.159,0.303-0.238
				c0.051-0.039,0.101-0.079,0.151-0.118c0.154-0.115,0.308-0.228,0.464-0.338c-2.75-2.067-4.929-1.815-6.411-1.06
				c0,0-3.287,1.822-5.973,7.99l-0.188,0.469c-2.45,5.885-5.278,16.658-6.038,35.719c0.573,0.006,1.143,0.016,1.712,0.029
				c18.368,0.426,34.529,4.336,44.829,10.191C105.347,73.124,105.101,72.014,104.847,70.923z M77.27,39.183
				c6.003,0,10.868,4.867,10.868,10.87S83.273,60.921,77.27,60.921c-6.003,0-10.87-4.865-10.87-10.868S71.267,39.183,77.27,39.183z"
				/>
		</g>
		<ellipse stroke="#000000" stroke-width="1.167" stroke-miterlimit="10" cx="76.707" cy="51.226" rx="2.683" ry="2.95"/>
		<path d="M83.14,46.905l-0.707-3.085c-0.01-0.042-0.043-0.079-0.085-0.095c-0.043-0.018-0.092-0.014-0.13,0.012l-11.347,6.838
			c-0.054,0.033-0.078,0.098-0.058,0.156l0.284,0.804c0.012,0.037,0.04,0.063,0.075,0.081c0.019,0.007,0.04,0.011,0.06,0.011
			c0.018,0,0.036-0.003,0.054-0.009l11.771-4.561C83.12,47.033,83.155,46.969,83.14,46.905z"/>
		<g>
			<path fill="none" d="M70.401,29.429c0.04-0.07,0.08-0.141,0.121-0.211l-0.011,0.018C70.475,29.3,70.438,29.364,70.401,29.429z"/>
		</g>
		<path fill="#FBD4B1" d="M8.967,42.007c-0.968,2.337,1.091,2.702,3.205,3.578c2.116,0.877,3.816,2.303,4.784-0.035
			c0.968-2.338,0.77-7.391-1.345-8.266C13.496,36.408,9.935,39.668,8.967,42.007z"/>
		<g>
			<path fill="#FBD4B1" d="M4.393,41.365c0.972-2.915,1.974-5.792,3.168-8.627c0.94-2.229,2.11-4.747,3.664-6.859
				c0.81,0.429,1.452,0.952,1.87,1.341c-1.943,3.008-4.853,8.535-5.679,14.564c0,0,8.225,1.932,12.002,4.953L16.9,50.345
				c0,0-5.121-3.859-11.751-6.294C5.149,44.051,3.47,44.135,4.393,41.365z"/>
			<path fill="#FBD4B1" d="M14.104,22.921c0.825-0.6,1.855-1.11,2.897-0.826c2.117,0.578,3.036,2.74,2.249,4.665
				c-1.354,3.311-2.844,1.36-3.318-0.349c0,0-0.291-2.252-1.13-1.497c-0.248,0.223-0.895,1.044-1.707,2.306
				c-0.418-0.389-1.06-0.912-1.87-1.341C12.065,24.737,13.015,23.713,14.104,22.921z"/>
		</g>
		<path fill="none" d="M42.333,26.241c-0.081-0.11-0.162-0.221-0.243-0.328C42.171,26.021,42.252,26.131,42.333,26.241z"/>
		<path fill="none" d="M41.956,25.732c-0.095-0.127-0.192-0.253-0.29-0.378C41.764,25.479,41.861,25.605,41.956,25.732z"/>
		<path fill="none" d="M43.063,27.299c-0.071-0.108-0.144-0.216-0.217-0.323C42.919,27.083,42.992,27.19,43.063,27.299z"/>
		<path fill="none" d="M42.701,26.763c-0.075-0.107-0.151-0.215-0.227-0.32C42.55,26.548,42.625,26.655,42.701,26.763z"/>
		<path fill="none" d="M41.575,25.235c-0.129-0.162-0.259-0.324-0.39-0.482C41.316,24.911,41.446,25.073,41.575,25.235z"/>
		<path fill="none" d="M40.214,23.648c-0.08-0.087-0.161-0.173-0.243-0.26C40.053,23.476,40.134,23.562,40.214,23.648z"/>
		<path fill="none" d="M39.364,22.782c-0.082-0.078-0.163-0.157-0.246-0.233C39.201,22.625,39.283,22.704,39.364,22.782z"/>
		<path fill="none" d="M39.792,23.206c-0.081-0.082-0.162-0.162-0.241-0.244C39.631,23.044,39.712,23.124,39.792,23.206z"/>
		<path fill="none" d="M40.64,24.116c-0.086-0.096-0.169-0.191-0.256-0.285C40.471,23.925,40.554,24.021,40.64,24.116z"/>
		<path fill="none" d="M41.091,24.641c-0.1-0.12-0.2-0.239-0.302-0.354C40.891,24.401,40.991,24.521,41.091,24.641z"/>
		<path fill="none" d="M43.306,27.669l0.038,0.059c-0.047-0.07-0.092-0.143-0.138-0.213C43.238,27.565,43.273,27.616,43.306,27.669z
			"/>
		<path d="M37.741,21.376c0.101,0.079,0.202,0.157,0.303,0.238c0.06,0.048,0.12,0.098,0.18,0.148
			c0.089,0.074,0.178,0.146,0.267,0.223c0.063,0.055,0.126,0.109,0.187,0.164c0.085,0.074,0.171,0.15,0.253,0.227
			c0.064,0.057,0.127,0.115,0.188,0.173c0.083,0.076,0.164,0.155,0.246,0.233c0.063,0.059,0.125,0.119,0.187,0.18
			c0.08,0.082,0.161,0.162,0.241,0.244c0.059,0.061,0.119,0.121,0.179,0.183c0.082,0.087,0.163,0.173,0.243,0.26
			c0.058,0.061,0.114,0.121,0.169,0.183c0.087,0.094,0.17,0.189,0.256,0.285c0.048,0.057,0.099,0.111,0.149,0.17
			c0.102,0.115,0.203,0.234,0.302,0.354c0.03,0.038,0.063,0.075,0.095,0.112c0.13,0.158,0.261,0.32,0.39,0.482
			c0.03,0.039,0.061,0.08,0.091,0.119c0.097,0.125,0.194,0.251,0.29,0.378c0.045,0.058,0.089,0.12,0.134,0.181
			c0.081,0.107,0.162,0.218,0.243,0.328c0.047,0.066,0.094,0.134,0.141,0.201c0.076,0.105,0.152,0.213,0.227,0.32
			c0.048,0.07,0.097,0.142,0.145,0.213c0.073,0.107,0.146,0.215,0.217,0.323c0.048,0.071,0.096,0.144,0.143,0.216
			c0.046,0.07,0.091,0.143,0.138,0.213l0.485,0.795c-4.293-4.16-8.044-2.434-8.044-2.434c5.372,2.184,4.587,8.232,4.587,8.232
			c-3.1-1.043-8.484-1.835-13.653,2.344c0,0,2.273,11.119-9.408,12.199c6.916-15.232,15.033-23.352,18.306-26.625
			c0.521-0.521,1.022-0.954,1.509-1.319c0.156,0.11,0.312,0.223,0.463,0.338C37.64,21.297,37.69,21.337,37.741,21.376z"/>
		<g>
			<path d="M26.637,50.053c0,6.003,4.866,10.868,10.869,10.868c6.003,0,10.87-4.865,10.87-10.868s-4.867-10.87-10.87-10.87
				C31.503,39.183,26.637,44.05,26.637,50.053z M28.818,50.053c0-4.799,3.89-8.688,8.688-8.688c4.797,0,8.688,3.889,8.688,8.688
				c0,4.798-3.892,8.687-8.688,8.687C32.708,58.739,28.818,54.851,28.818,50.053z"/>
		</g>
		<circle fill="#FFFFFF" cx="37.505" cy="50.052" r="8.687"/>
		<path fill="#FBD4B1" d="M9.193,74.259c10.301-5.855,26.461-9.766,44.828-10.191c0.569-0.014,1.141-0.023,1.714-0.029l0.028,0.754
			c0.144,3.929,0.203,8.193,0.153,12.843l-0.111,3.221L23.026,91.559L6.847,89.837C7.404,84.359,8.221,78.976,9.193,74.259z"/>
		<path d="M10.802,67.38c0.654-2.494,1.354-4.873,2.096-7.135l11.976-1.255L10.802,67.38z"/>
		<path d="M13.481,58.512c0.533-1.544,1.081-3.034,1.644-4.47l8.405-2.102L13.481,58.512z"/>
		<g>
			<path fill="#D44917" d="M9.193,74.259c10.301-5.855,26.461-9.766,44.828-10.191c0.569-0.014,1.141-0.023,1.714-0.029
				c-0.761-19.061-3.588-29.834-6.037-35.719l-0.188-0.469c-2.687-6.168-5.974-7.99-5.974-7.99c-1.482-0.756-3.661-1.008-6.41,1.06
				c0.156,0.11,0.312,0.223,0.463,0.338c0.051,0.039,0.102,0.079,0.153,0.118c0.101,0.079,0.202,0.157,0.303,0.238
				c0.06,0.048,0.12,0.098,0.18,0.148c0.089,0.074,0.18,0.146,0.267,0.223c0.063,0.055,0.126,0.109,0.187,0.164
				c0.085,0.074,0.171,0.15,0.253,0.227c0.064,0.057,0.127,0.115,0.188,0.173c0.083,0.076,0.164,0.155,0.246,0.233
				c0.063,0.059,0.125,0.119,0.187,0.18c0.08,0.082,0.161,0.162,0.241,0.244c0.059,0.061,0.119,0.121,0.179,0.183
				c0.082,0.087,0.163,0.173,0.243,0.26c0.058,0.061,0.114,0.121,0.169,0.183c0.087,0.094,0.17,0.189,0.256,0.285
				c0.048,0.057,0.099,0.111,0.149,0.17c0.102,0.115,0.203,0.234,0.302,0.354c0.03,0.038,0.063,0.075,0.095,0.112
				c0.13,0.158,0.261,0.32,0.39,0.482c0.03,0.039,0.061,0.08,0.091,0.119c0.097,0.125,0.194,0.251,0.29,0.378
				c0.045,0.058,0.089,0.12,0.134,0.181c0.081,0.107,0.162,0.218,0.243,0.328c0.047,0.066,0.094,0.134,0.141,0.201
				c0.076,0.105,0.152,0.213,0.227,0.32c0.048,0.07,0.097,0.142,0.145,0.213c0.073,0.107,0.146,0.215,0.217,0.323
				c0.048,0.071,0.096,0.144,0.143,0.216c0.033,0.051,0.067,0.102,0.101,0.154l0.038,0.059c0.172,0.271,0.346,0.545,0.514,0.822
				c0.133,0.221,0.265,0.445,0.394,0.668l0.01,0.018c0.038,0.064,0.073,0.129,0.111,0.193c-0.039-0.07-0.08-0.141-0.121-0.211
				l-0.422-0.695c-4.293-4.16-8.044-2.434-8.044-2.434c5.372,2.184,4.587,8.232,4.587,8.232c-3.1-1.043-8.484-1.835-13.653,2.344
				c0,0,2.273,11.119-9.408,12.199c-0.746,1.641-1.476,3.367-2.186,5.178l8.405-2.102l-10.048,6.571
				c-0.197,0.57-0.392,1.147-0.583,1.733l11.976-1.255l-14.072,8.39c-0.304,1.155-0.593,2.338-0.874,3.543
				C9.673,72.014,9.428,73.124,9.193,74.259z M48.375,50.053c0,6.003-4.867,10.868-10.87,10.868
				c-6.002,0-10.869-4.865-10.869-10.868s4.866-10.87,10.869-10.87C43.509,39.183,48.375,44.05,48.375,50.053z"/>
		</g>
		<ellipse stroke="#000000" stroke-width="1.167" stroke-miterlimit="10" cx="38.067" cy="51.226" rx="2.683" ry="2.95"/>
		<path d="M78.822,124.208c0,0,3.524-1.847,7.218-1.679l-3.273,6.296c0,0,5.12-1.51,8.562,2.938c0,0-9.148-0.252-12.423,0.925
			c0,0-1.595,0.922-1.344-1.428C77.814,128.907,78.822,124.208,78.822,124.208z"/>
		<path d="M31.633,46.905l0.708-3.085c0.011-0.042,0.042-0.079,0.084-0.095c0.042-0.018,0.091-0.014,0.131,0.012l11.346,6.838
			c0.055,0.033,0.079,0.098,0.058,0.156l-0.283,0.804c-0.013,0.037-0.041,0.063-0.078,0.081c-0.019,0.007-0.038,0.011-0.058,0.011
			c-0.019,0-0.036-0.003-0.054-0.009l-11.772-4.561C31.654,47.033,31.62,46.969,31.633,46.905z"/>
		<g>
			<path fill="none" d="M44.372,29.429c-0.039-0.07-0.08-0.141-0.121-0.211l0.01,0.018C44.299,29.3,44.334,29.364,44.372,29.429z"/>
		</g>
		<path fill="#D44917" d="M108.052,91.054l-1.842-0.787l0.079-0.051l-0.989-0.337l-5.495-2.35l-3.911-0.861l-3.875-1.321
			l-8.906-1.521l-4.459-0.998l-2.538-0.069l-9.949-1.105l-8.949,0.408l-8.95-0.408l-9.95,1.105l-2.536,0.069l-4.458,0.998
			l-8.907,1.521l-3.874,1.321l-3.912,0.861l-5.495,2.35l-0.989,0.337l0.08,0.051l-1.412,0.379
			c-0.603,6.529-1.302,14.012-1.137,21.666c0.416,3.305,4.104,0.496,5.404-0.467c2.603-1.928,6.982-5.186,10.411-3.457
			c2.049,1.033,3.21,4.468,3.21,6.673c0,1.679,0.505,1.511,0.505,1.511s11.415-2.016,12.589-2.183c0.69-0.099,0.795-1.14,0.85-1.666
			c0.103-0.971-0.053-1.901-0.14-2.865c0.005,0.056,0.009,0.108,0.014,0.163c-0.03-0.326-0.051-0.65-0.051-0.98
			c0-7.187,8.382-13.017,18.749-13.064c10.366,0.048,18.749,5.878,18.749,13.064c0,0.334-0.017,0.662-0.052,0.986l0.267-0.174
			c-0.029,0.332-0.074,0.666-0.141,0.99c0,0-0.577,3.379,0.598,3.546s12.59,2.183,12.59,2.183s0.502,0.168,0.502-1.511
			c0-2.205,1.163-5.64,3.21-6.673c3.43-1.729,7.81,1.529,10.412,3.457c1.3,0.963,4.987,3.771,5.404,0.467
			C108.922,104.657,108.655,97.586,108.052,91.054z"/>
	</g>
</g>
<ellipse fill="#8E8E90" cx="58.741" cy="134.778" rx="47.738" ry="6.896"/>
</svg>
