<?xml version="1.0" encoding="utf-8"?>
<!-- Generator: Adobe Illustrator 15.1.0, SVG Export Plug-In . SVG Version: 6.00 Build 0)  -->
<!DOCTYPE svg PUBLIC "-//W3C//DTD SVG 1.1//EN" "http://www.w3.org/Graphics/SVG/1.1/DTD/svg11.dtd">
<svg version="1.1" id="Layer_1" xmlns="http://www.w3.org/2000/svg" xmlns:xlink="http://www.w3.org/1999/xlink" x="0px" y="0px"
	 width="25.333px" height="24.333px" viewBox="0 0 25.333 24.333" enable-background="new 0 0 25.333 24.333" xml:space="preserve">
<circle fill="#FFFFFF" cx="12.219" cy="12.115" r="11.219"/>
<g>
	<g>
		<path fill="#4EB3E4" d="M7.471,14.199c0.039,0.429,0.281,0.832,0.686,1.059c0.335,0.188,0.682,0.326,1.035,0.42
			c-0.2,0.672-0.565,1.645-1.217,2.686c-0.618,0.99-0.626,2.184-0.02,3.277c0.894,1.611,2.865,2.693,4.909,2.693
			c1.402,0,2.65-0.646,3.512-1.819c1.231-1.678,1.505-4.154,0.729-6.622c-0.718-2.288,0.243-3.509,0.879-4.033
			c0.518,0.499,1.221,0.807,1.997,0.807c1.592,0,2.883-1.291,2.883-2.883c0-1.593-1.291-2.883-2.883-2.883s-2.883,1.291-2.883,2.883
			c0,0.224,0.028,0.441,0.076,0.65c-1.2,0.878-2.586,2.854-1.616,5.944c0.611,1.948,0.424,3.932-0.49,5.177
			c-0.388,0.528-1.085,1.158-2.205,1.158c-1.448,0-2.884-0.765-3.49-1.858c-0.224-0.403-0.408-1.015-0.023-1.632
			c0.861-1.379,1.293-2.665,1.497-3.451c0.479-0.072,0.946-0.227,1.396-0.467c0.4-0.214,0.646-0.601,0.7-1.02
			c1.905-1.722,2.784-4.824,2.835-5.006c0.103-0.372-0.072-0.755-0.4-0.93c0.264-2.329-0.599-3.503-1.118-3.981
			c0.039-0.224-0.05-0.463-0.247-0.591l-0.956-0.625c-0.249-0.163-0.563-0.081-0.7,0.185L11.9,4.217
			c-0.137,0.266-0.016,0.55,0.27,0.634l1.082,0.318c0.273,0.081,0.602-0.051,0.757-0.29c0.431,0.453,1.051,1.464,0.837,3.391
			c-0.294,0.056-0.546,0.27-0.631,0.577c-0.26,0.932-1.01,2.857-2.123,4.011c-0.354-0.136-0.762-0.13-1.123,0.063
			c-0.235,0.126-0.466,0.189-0.702,0.194h-0.048c-0.25-0.005-0.492-0.076-0.741-0.215c-0.353-0.198-0.754-0.215-1.108-0.09
			c-1.088-1.16-1.822-3.044-2.078-3.963C6.206,8.541,5.953,8.326,5.66,8.27C5.446,6.343,6.066,5.333,6.498,4.879
			C6.652,5.12,6.98,5.25,7.255,5.169l1.081-0.318c0.285-0.084,0.407-0.368,0.27-0.633L8.15,3.337C8.014,3.072,7.7,2.989,7.45,3.152
			L6.494,3.777C6.297,3.906,6.208,4.145,6.248,4.369C5.729,4.847,4.865,6.02,5.129,8.35c-0.328,0.175-0.503,0.558-0.4,0.93
			C4.777,9.458,5.631,12.461,7.471,14.199z"/>
	</g>
</g>
</svg>
